<svg xmlns="http://www.w3.org/2000/svg" width="32" height="32" viewBox="0 0 32 32" fill="none">
<rect x="0.32" y="0.32" width="31.36" height="31.36" rx="15.68" stroke="#FCFDFF" stroke-width="0.64"/>
<path fill-rule="evenodd" clip-rule="evenodd" d="M22 8H10C8.897 8 8 8.897 8 10V22C8 23.103 8.897 24 10 24H16V18.5H14V16H16V14C16 13.2044 16.3161 12.4413 16.8787 11.8787C17.4413 11.3161 18.2044 11 19 11H21V13.5H20C19.448 13.5 19 13.448 19 14V16H21.5L20.5 18.5H19V24H22C23.103 24 24 23.103 24 22V10C24 8.897 23.103 8 22 8Z" fill="#FCFDFF"/>
</svg>