<svg width="32" height="32" viewBox="0 0 32 32" fill="none" xmlns="http://www.w3.org/2000/svg">
<rect x="0.32" y="0.32" width="31.36" height="31.36" rx="15.68" stroke="#FCFDFF" stroke-width="0.64"/>
<path d="M22 10.8824V21.1176C22 21.3517 21.907 21.5761 21.7416 21.7416C21.5761 21.907 21.3517 22 21.1176 22H10.8824C10.6483 22 10.4239 21.907 10.2584 21.7416C10.093 21.5761 10 21.3517 10 21.1176V10.8824C10 10.6483 10.093 10.4239 10.2584 10.2584C10.4239 10.093 10.6483 10 10.8824 10H21.1176C21.3517 10 21.5761 10.093 21.7416 10.2584C21.907 10.4239 22 10.6483 22 10.8824ZM13.5294 14.5882H11.7647V20.2353H13.5294V14.5882ZM13.6882 12.6471C13.6892 12.5136 13.6638 12.3812 13.6136 12.2575C13.5633 12.1339 13.4892 12.0213 13.3955 11.9262C13.3018 11.8312 13.1902 11.7555 13.0673 11.7036C12.9443 11.6517 12.8123 11.6245 12.6788 11.6235H12.6471C12.3756 11.6235 12.1153 11.7314 11.9233 11.9233C11.7314 12.1153 11.6235 12.3756 11.6235 12.6471C11.6235 12.9185 11.7314 13.1789 11.9233 13.3708C12.1153 13.5628 12.3756 13.6706 12.6471 13.6706C12.7806 13.6739 12.9134 13.6508 13.038 13.6028C13.1626 13.5547 13.2764 13.4825 13.3731 13.3904C13.4698 13.2983 13.5474 13.1881 13.6015 13.066C13.6556 12.9439 13.685 12.8123 13.6882 12.6788V12.6471ZM20.2353 16.8047C20.2353 15.1071 19.1553 14.4471 18.0824 14.4471C17.7311 14.4295 17.3813 14.5043 17.0679 14.6641C16.7546 14.8238 16.4886 15.063 16.2965 15.3576H16.2471V14.5882H14.5882V20.2353H16.3529V17.2318C16.3274 16.9242 16.4243 16.6189 16.6226 16.3823C16.8208 16.1457 17.1044 15.9969 17.4118 15.9682H17.4788C18.04 15.9682 18.4565 16.3212 18.4565 17.2106V20.2353H20.2212L20.2353 16.8047Z" fill="#FCFDFF"/>
</svg>
