<svg width="100%" height="100%" viewBox="0 0 136 140" fill="none" xmlns="http://www.w3.org/2000/svg" preserveAspectRatio="xMidYMid meet">
<g filter="url(#filter0_d_378_3504)">
<rect x="9" y="5" width="118" height="122" rx="59" fill="#FCFDFF" shape-rendering="crispEdges"/>
<rect x="9" y="5" width="118" height="122" rx="59" stroke="#195829" shape-rendering="crispEdges"/>
<path d="M58.445 47.04C58.605 44.56 59.5517 42.6267 61.285 41.24C63.045 39.8533 65.285 39.16 68.005 39.16C69.8717 39.16 71.485 39.4933 72.845 40.16C74.205 40.8267 75.2317 41.7333 75.925 42.88C76.6183 44.0267 76.965 45.32 76.965 46.76C76.965 48.4133 76.525 49.8267 75.645 51C74.765 52.1733 73.7117 52.96 72.485 53.36V53.52C74.0583 54 75.285 54.88 76.165 56.16C77.045 57.4133 77.485 59.0267 77.485 61C77.485 62.5733 77.125 63.9733 76.405 65.2C75.685 66.4267 74.6183 67.4 73.205 68.12C71.7917 68.8133 70.0983 69.16 68.125 69.16C65.245 69.16 62.8717 68.4267 61.005 66.96C59.165 65.4667 58.1783 63.3333 58.045 60.56H62.445C62.5517 61.9733 63.0983 63.1333 64.085 64.04C65.0717 64.92 66.405 65.36 68.085 65.36C69.7117 65.36 70.965 64.92 71.845 64.04C72.725 63.1333 73.165 61.9733 73.165 60.56C73.165 58.6933 72.565 57.3733 71.365 56.6C70.1917 55.8 68.3783 55.4 65.925 55.4H64.885V51.64H65.965C68.125 51.6133 69.765 51.2533 70.885 50.56C72.0317 49.8667 72.605 48.7733 72.605 47.28C72.605 46 72.1917 44.9867 71.365 44.24C70.5383 43.4667 69.365 43.08 67.845 43.08C66.3517 43.08 65.1917 43.4667 64.365 44.24C63.5383 44.9867 63.045 45.92 62.885 47.04H58.445Z" fill="#195829"/>
<path d="M29.7947 92.02C29.7947 90.66 30.108 89.44 30.7347 88.36C31.3747 87.28 32.2347 86.44 33.3147 85.84C34.408 85.2267 35.6014 84.92 36.8947 84.92C38.3747 84.92 39.688 85.2867 40.8347 86.02C41.9947 86.74 42.8347 87.7667 43.3547 89.1H40.6147C40.2547 88.3667 39.7547 87.82 39.1147 87.46C38.4747 87.1 37.7347 86.92 36.8947 86.92C35.9747 86.92 35.1547 87.1267 34.4347 87.54C33.7147 87.9533 33.148 88.5467 32.7347 89.32C32.3347 90.0933 32.1347 90.9933 32.1347 92.02C32.1347 93.0467 32.3347 93.9467 32.7347 94.72C33.148 95.4933 33.7147 96.0933 34.4347 96.52C35.1547 96.9333 35.9747 97.14 36.8947 97.14C37.7347 97.14 38.4747 96.96 39.1147 96.6C39.7547 96.24 40.2547 95.6933 40.6147 94.96H43.3547C42.8347 96.2933 41.9947 97.32 40.8347 98.04C39.688 98.76 38.3747 99.12 36.8947 99.12C35.588 99.12 34.3947 98.82 33.3147 98.22C32.2347 97.6067 31.3747 96.76 30.7347 95.68C30.108 94.6 29.7947 93.38 29.7947 92.02ZM48.3034 97.16H53.0034V99H46.0234V85.1H48.3034V97.16ZM57.1902 85.1V99H54.9102V85.1H57.1902ZM62.4636 86.94V91.02H67.2636V92.88H62.4636V97.14H67.8636V99H60.1836V85.08H67.8636V86.94H62.4636ZM82.0919 99H79.8119L72.9519 88.62V99H70.6719V85.08H72.9519L79.8119 95.44V85.08H82.0919V99ZM94.0659 85.1V86.96H90.3659V99H88.0859V86.96H84.3659V85.1H94.0659ZM100.955 99.14C100.022 99.14 99.1817 98.98 98.435 98.66C97.6883 98.3267 97.1017 97.86 96.675 97.26C96.2483 96.66 96.035 95.96 96.035 95.16H98.475C98.5283 95.76 98.7617 96.2533 99.175 96.64C99.6017 97.0267 100.195 97.22 100.955 97.22C101.742 97.22 102.355 97.0333 102.795 96.66C103.235 96.2733 103.455 95.78 103.455 95.18C103.455 94.7133 103.315 94.3333 103.035 94.04C102.768 93.7467 102.428 93.52 102.015 93.36C101.615 93.2 101.055 93.0267 100.335 92.84C99.4283 92.6 98.6883 92.36 98.115 92.12C97.555 91.8667 97.075 91.48 96.675 90.96C96.275 90.44 96.075 89.7467 96.075 88.88C96.075 88.08 96.275 87.38 96.675 86.78C97.075 86.18 97.635 85.72 98.355 85.4C99.075 85.08 99.9083 84.92 100.855 84.92C102.202 84.92 103.302 85.26 104.155 85.94C105.022 86.6067 105.502 87.5267 105.595 88.7H103.075C103.035 88.1933 102.795 87.76 102.355 87.4C101.915 87.04 101.335 86.86 100.615 86.86C99.9617 86.86 99.4283 87.0267 99.015 87.36C98.6017 87.6933 98.395 88.1733 98.395 88.8C98.395 89.2267 98.5217 89.58 98.775 89.86C99.0417 90.1267 99.375 90.34 99.775 90.5C100.175 90.66 100.722 90.8333 101.415 91.02C102.335 91.2733 103.082 91.5267 103.655 91.78C104.242 92.0333 104.735 92.4267 105.135 92.96C105.548 93.48 105.755 94.18 105.755 95.06C105.755 95.7667 105.562 96.4333 105.175 97.06C104.802 97.6867 104.248 98.1933 103.515 98.58C102.795 98.9533 101.942 99.14 100.955 99.14Z" fill="#858585"/>
</g>
<defs>
<filter id="filter0_d_378_3504" x="0.5" y="0.5" width="135" height="139" filterUnits="userSpaceOnUse" color-interpolation-filters="sRGB">
<feFlood flood-opacity="0" result="BackgroundImageFix"/>
<feColorMatrix in="SourceAlpha" type="matrix" values="0 0 0 0 0 0 0 0 0 0 0 0 0 0 0 0 0 0 127 0" result="hardAlpha"/>
<feOffset dy="4"/>
<feGaussianBlur stdDeviation="4"/>
<feComposite in2="hardAlpha" operator="out"/>
<feColorMatrix type="matrix" values="0 0 0 0 0.0862745 0 0 0 0 0.568627 0 0 0 0 0.196078 0 0 0 0.2 0"/>
<feBlend mode="normal" in2="BackgroundImageFix" result="effect1_dropShadow_378_3504"/>
<feBlend mode="normal" in="SourceGraphic" in2="effect1_dropShadow_378_3504" result="shape"/>
</filter>
</defs>
</svg>
