<svg width="100%" height="100%" preserveAspectRatio="xMidYMid meet" viewBox="0 0 845 346" fill="none" xmlns="http://www.w3.org/2000/svg">
<path d="M214.257 256.511H184.239V309.194H111.46V256.511H3V202.696L116.275 37H184.239V201.563H214.257V256.511ZM111.46 201.563V169.84C111.46 163.892 111.744 155.961 112.027 145.764C112.593 135.568 112.876 130.469 113.159 129.903H111.177C106.929 139.533 102.115 148.314 96.7347 156.811L66.7169 201.563H111.46Z" stroke="#195829"/>
<g filter="url(#filter0_d_304_1462)">
<path d="M223.257 256.214H193.239V308.897H120.46V256.214H12V202.399L125.275 36.7029H193.239V201.266H223.257V256.214ZM120.46 201.266V169.543C120.46 163.595 120.744 155.664 121.027 145.467C121.593 135.271 121.876 130.172 122.159 129.606H120.177C115.929 139.236 111.115 148.016 105.735 156.514L75.7169 201.266H120.46Z" fill="#195829" fill-opacity="0.8" shape-rendering="crispEdges"/>
</g>
<path d="M579.657 172.8C579.678 186.708 577.88 200.56 574.311 214.002C564.114 252.578 540.065 286.046 506.757 308.016C482.441 324.008 454.267 333.155 425.194 334.497C396.122 335.838 367.224 329.324 341.539 315.639C315.854 301.953 294.329 281.603 279.227 256.725C264.124 231.847 256.001 203.36 255.711 174.258C255.666 173.773 255.648 173.287 255.657 172.8C255.716 129.853 272.803 88.6823 303.171 58.3143C333.539 27.9463 374.71 10.8594 417.657 10.8C438.172 10.7592 458.503 14.6641 477.543 22.302C507.654 34.3107 533.477 55.0669 551.678 81.8925C569.879 108.718 579.625 140.382 579.657 172.8Z" fill="#195829" fill-opacity="0.8"/>
<path d="M405.399 158.112C403.245 165.258 398.854 171.524 392.871 175.986C386.87 180.443 379.61 182.882 372.135 182.952C353.667 183.168 326.991 180.198 305.499 164.808C296.535 158.436 280.983 160.272 263.919 169.776L263.865 169.83L255.711 174.258C255.666 173.773 255.648 173.287 255.657 172.8C255.647 151.258 259.946 129.932 268.302 110.077C276.657 90.2214 288.901 72.2383 304.311 57.186L307.389 63.18C330.555 89.262 355.503 106.542 381.693 114.534C390.581 117.222 398.052 123.302 402.489 131.458C406.926 139.615 407.971 149.19 405.399 158.112ZM579.657 172.8C579.678 186.708 577.88 200.56 574.311 214.002L568.371 211.248C568.047 211.086 567.831 210.924 567.561 210.762C560.689 206.044 553.227 202.25 545.367 199.476C537.533 196.467 529.18 195.042 520.791 195.283C512.403 195.524 504.145 197.426 496.497 200.88C493.087 202.352 489.411 203.106 485.697 203.094C479.552 203.078 473.588 201.015 468.747 197.23C463.906 193.445 460.465 188.155 458.967 182.196C457.857 177.642 457.908 172.883 459.116 168.354C460.323 163.825 462.649 159.672 465.879 156.276C473.277 148.5 480.027 135 466.581 99.09C459.507 80.244 461.829 55.836 473.493 26.46C473.824 25.6047 474.385 24.8572 475.113 24.3L477.543 22.302C507.654 34.3107 533.477 55.0669 551.678 81.8925C569.879 108.718 579.625 140.382 579.657 172.8ZM506.757 308.016C475.793 328.484 438.725 337.666 401.787 334.018C364.849 330.369 330.294 314.113 303.933 287.982L305.445 284.634C305.665 284.201 305.918 283.786 306.201 283.392C315.408 273.585 327.559 267.045 340.815 264.762C369.435 258.12 380.883 250.992 385.365 246.186C394.331 236.921 406.463 231.38 419.336 230.669C432.21 229.958 444.877 234.13 454.809 242.352C475.118 259.107 491.443 280.172 502.599 304.02C504.003 305.424 505.407 306.72 506.757 308.016Z" fill="#CEEECC"/>
<path opacity="0.15" d="M579.657 172.8C579.678 186.708 577.88 200.56 574.311 214.002C564.114 252.578 540.065 286.046 506.757 308.016C472.283 330.595 430.515 339.224 389.917 332.155C349.318 325.086 312.925 302.848 288.111 269.946C309.349 285.864 334.173 296.32 360.4 300.395C386.627 304.469 413.453 302.036 438.52 293.311C463.586 284.586 486.124 269.835 504.153 250.356C522.181 230.877 535.148 207.267 541.911 181.602C545.48 168.16 547.278 154.308 547.257 140.4C547.287 105.427 535.954 71.3905 514.965 43.416C535.052 58.4802 551.355 78.0145 562.584 100.472C573.812 122.929 579.658 147.692 579.657 172.8Z" fill="#0F3460"/>
<path d="M480.733 23.5866C480.649 23.5483 480.595 23.4749 480.509 23.4403C480.422 23.4057 480.341 23.423 480.259 23.3944C449.794 10.6117 416.145 7.46672 383.839 14.3826C351.533 21.2985 322.121 37.9435 299.559 62.0778C299.489 62.1318 299.402 62.148 299.334 62.208C299.193 62.3715 299.062 62.544 298.943 62.7242C269.869 93.9753 254.34 135.459 255.744 178.12C257.148 220.78 275.373 261.153 306.439 290.424C306.573 290.62 306.72 290.806 306.88 290.981C306.981 291.065 307.107 291.085 307.211 291.161C332.752 315.081 365.368 330.061 400.155 333.849C434.942 337.637 470.018 330.029 500.109 312.167C500.196 312.132 500.289 312.149 500.376 312.109C500.592 311.975 500.797 311.825 500.99 311.66C519.869 300.3 536.24 285.219 549.108 267.335C561.977 249.451 571.074 229.136 575.847 207.626C575.876 207.506 575.907 207.392 575.929 207.271C583.991 170.357 578.887 131.785 561.501 98.2383C544.115 64.6912 515.542 38.2824 480.733 23.5866ZM303.054 74.3375C326.497 99.6451 351.851 116.709 378.541 124.881C384.697 126.72 389.88 130.909 392.97 136.542C396.06 142.175 396.807 148.797 395.05 154.977C393.567 159.92 390.534 164.255 386.399 167.343C382.234 170.429 377.198 172.113 372.016 172.155C355.027 172.331 330.901 169.732 311.772 156.044C300.903 148.276 285.055 148.401 267.406 156.061C270.765 125.845 283.193 97.3542 303.054 74.3375ZM417.657 324C381.086 324.021 345.758 310.728 318.273 286.604C325.586 280.889 334.157 277 343.275 275.26C368.722 269.381 385.067 262.3 393.238 253.615C400.306 246.325 409.867 241.972 420.007 241.428C430.147 240.884 440.118 244.189 447.926 250.681C465.83 265.65 480.471 284.135 490.943 304.992C468.537 317.48 443.308 324.024 417.657 324ZM500.215 299.376C489.161 277.445 473.699 258.032 454.798 242.352C444.875 234.114 432.204 229.934 419.327 230.65C406.451 231.366 394.322 236.925 385.373 246.212C380.857 251.014 369.46 258.128 340.841 264.74C329.618 266.905 319.126 271.879 310.346 279.198C282.216 250.935 266.435 212.676 266.457 172.8C266.457 171.337 266.526 169.891 266.568 168.438C282.573 160.181 296.993 158.749 305.488 164.826C326.278 179.697 351.826 182.962 370.23 182.962C370.871 182.962 371.503 182.958 372.126 182.951C379.6 182.882 386.86 180.446 392.862 175.993C398.849 171.525 403.239 165.25 405.387 158.095C407.96 149.182 406.917 139.613 402.484 131.463C398.051 123.313 390.585 117.238 381.704 114.555C356.636 106.879 332.672 90.6114 310.38 66.3654C330.98 45.5414 357.196 31.1646 385.829 24.9898C414.462 18.815 444.273 21.1093 471.624 31.5927C461.701 58.6413 459.936 81.3693 466.599 99.0927C480.033 135.01 473.286 148.523 465.89 156.301C462.131 160.198 459.6 165.113 458.612 170.437C457.624 175.76 458.222 181.256 460.333 186.242C462.443 191.228 465.973 195.483 470.482 198.48C474.992 201.476 480.283 203.08 485.697 203.094C489.419 203.107 493.104 202.351 496.521 200.873C504.164 197.425 512.414 195.525 520.795 195.281C529.176 195.038 537.523 196.456 545.353 199.455C552.049 201.861 558.469 204.975 564.504 208.743C555.313 246 532.34 278.387 500.215 299.376ZM566.805 197.503C561.155 194.305 555.252 191.576 549.155 189.346C530.709 182.374 510.26 182.952 492.239 190.956C490.175 191.854 487.947 192.31 485.697 192.294C481.958 192.279 478.33 191.019 475.387 188.712C472.444 186.405 470.354 183.183 469.447 179.556C468.777 176.769 468.819 173.858 469.569 171.091C470.318 168.325 471.75 165.791 473.734 163.722C487.72 149.012 488.671 127.272 476.711 95.2992C471.1 80.3784 472.852 59.8676 481.571 35.8171C511.5 49.7433 536.041 73.095 551.435 102.297C566.829 131.499 572.228 164.941 566.805 197.503Z" fill="#467951"/>
<path d="M823.257 256.511H793.239V309.194H720.46V256.511H612V202.696L725.275 37H793.239V201.563H823.257V256.511ZM720.46 201.563V169.84C720.46 163.892 720.744 155.961 721.027 145.764C721.593 135.568 721.876 130.469 722.159 129.903H720.177C715.929 139.533 711.115 148.314 705.735 156.811L675.717 201.563H720.46Z" stroke="#195829"/>
<g filter="url(#filter1_d_304_1462)">
<path d="M832.257 256.214H802.239V308.897H729.46V256.214H621V202.399L734.275 36.7029H802.239V201.266H832.257V256.214ZM729.46 201.266V169.543C729.46 163.595 729.744 155.664 730.027 145.467C730.593 135.271 730.876 130.172 731.159 129.606H729.177C724.929 139.236 720.115 148.016 714.735 156.514L684.717 201.266H729.46Z" fill="#195829" fill-opacity="0.8" shape-rendering="crispEdges"/>
</g>
<defs>
<filter id="filter0_d_304_1462" x="0" y="28.7029" width="235.257" height="296.194" filterUnits="userSpaceOnUse" color-interpolation-filters="sRGB">
<feFlood flood-opacity="0" result="BackgroundImageFix"/>
<feColorMatrix in="SourceAlpha" type="matrix" values="0 0 0 0 0 0 0 0 0 0 0 0 0 0 0 0 0 0 127 0" result="hardAlpha"/>
<feOffset dy="4"/>
<feGaussianBlur stdDeviation="6"/>
<feComposite in2="hardAlpha" operator="out"/>
<feColorMatrix type="matrix" values="0 0 0 0 0.117647 0 0 0 0 0.72549 0 0 0 0 0.270588 0 0 0 0.25 0"/>
<feBlend mode="normal" in2="BackgroundImageFix" result="effect1_dropShadow_304_1462"/>
<feBlend mode="normal" in="SourceGraphic" in2="effect1_dropShadow_304_1462" result="shape"/>
</filter>
<filter id="filter1_d_304_1462" x="609" y="28.7029" width="235.257" height="296.194" filterUnits="userSpaceOnUse" color-interpolation-filters="sRGB">
<feFlood flood-opacity="0" result="BackgroundImageFix"/>
<feColorMatrix in="SourceAlpha" type="matrix" values="0 0 0 0 0 0 0 0 0 0 0 0 0 0 0 0 0 0 127 0" result="hardAlpha"/>
<feOffset dy="4"/>
<feGaussianBlur stdDeviation="6"/>
<feComposite in2="hardAlpha" operator="out"/>
<feColorMatrix type="matrix" values="0 0 0 0 0.117647 0 0 0 0 0.72549 0 0 0 0 0.270588 0 0 0 0.25 0"/>
<feBlend mode="normal" in2="BackgroundImageFix" result="effect1_dropShadow_304_1462"/>
<feBlend mode="normal" in="SourceGraphic" in2="effect1_dropShadow_304_1462" result="shape"/>
</filter>
</defs>
</svg>
