<svg width="100%" height="100%" preserveAspectRatio="xMidYMid meet" viewBox="0 0 1011 704" fill="none" xmlns="http://www.w3.org/2000/svg">
<path d="M386.974 399.518C387.315 400.178 387.451 400.925 387.367 401.663C387.283 402.401 386.982 403.098 386.501 403.664C386.021 404.231 385.383 404.642 384.669 404.846C383.955 405.05 383.196 405.037 382.489 404.81C381.781 404.582 381.158 404.149 380.697 403.567C380.236 402.984 379.958 402.278 379.899 401.538C379.839 400.797 380.001 400.056 380.364 399.407C380.726 398.759 381.273 398.232 381.935 397.895C382.372 397.669 382.849 397.532 383.34 397.492C383.83 397.452 384.323 397.508 384.792 397.659C385.26 397.81 385.694 398.052 386.068 398.371C386.443 398.69 386.751 399.08 386.974 399.518Z" fill="#263238"/>
<path d="M396.172 378.206C398.014 377.256 398.737 374.993 397.787 373.151C396.837 371.309 394.574 370.586 392.732 371.536C390.89 372.486 390.167 374.749 391.117 376.591C392.067 378.433 394.33 379.156 396.172 378.206Z" fill="#263238"/>
<path d="M379.11 455.62C379.454 456.278 379.594 457.024 379.513 457.763C379.433 458.501 379.135 459.199 378.657 459.768C378.179 460.337 377.544 460.751 376.83 460.959C376.117 461.166 375.358 461.157 374.65 460.933C373.942 460.708 373.316 460.279 372.852 459.698C372.388 459.118 372.107 458.413 372.044 457.673C371.981 456.932 372.14 456.19 372.499 455.54C372.859 454.89 373.403 454.361 374.063 454.02C374.499 453.793 374.976 453.654 375.466 453.611C375.956 453.568 376.45 453.623 376.919 453.771C377.388 453.92 377.823 454.16 378.199 454.477C378.575 454.794 378.884 455.182 379.11 455.62Z" fill="#263238"/>
<mask id="path-4-inside-1_304_2127" fill="white">
<path d="M344.027 675.553C337.155 679.096 329.92 681.888 322.45 683.88C306.928 688.004 293.683 689.132 282.174 687.264C273.644 696.259 263.758 703.862 252.876 709.798C217.526 729.25 179.297 734.78 122.91 723.102C118.701 719.856 114.439 716.325 110.122 712.508C164.405 723.751 215.148 720.372 248.611 702.033C257.154 697.338 265.042 691.541 272.073 684.789C257.855 679.917 246.695 669.725 238.867 654.392C230.218 637.622 233.505 626.303 237.718 619.807C243.672 610.594 255.584 605.291 268.78 605.968C283.337 606.725 295.681 614.325 301.804 626.314C304.258 631.261 305.558 636.7 305.605 642.221C305.652 647.742 304.445 653.203 302.076 658.19C298.561 665.655 294.212 672.697 289.112 679.183C313.592 679.812 337.525 671.884 356.789 656.765C387.022 632.708 408.994 606.249 422.084 578.127C432.382 556.217 437.326 532.174 436.509 507.978C435.691 483.782 429.136 460.127 417.382 438.962L417.309 438.82C395.271 400.862 352.897 374.532 309.323 371.753C271.536 369.331 232.105 383.664 198.307 412.101C177.308 429.775 151.549 459.288 148.147 499.521C144.49 542.868 171.012 580.635 197.713 590.776C216.758 598.022 237.418 581.203 254.056 567.72L259.536 563.292C277.508 548.981 339.11 468.966 339.369 468.692L344.434 474.284C343.359 475.419 283.523 555.523 265.055 570.231C263.291 571.621 261.488 573.091 259.646 574.601C241.324 589.514 218.396 608.142 194.58 599.095C177.349 592.534 162.183 578.065 151.875 558.349C142.275 540.034 137.932 519.42 139.325 498.789C143.023 455.521 170.333 424.088 192.591 405.285C228.136 375.386 269.784 360.309 309.84 362.822C356.249 365.9 401.357 394.001 424.88 434.335C426.147 436.363 443.851 465.491 445.322 508.034C446.184 533.524 440.961 558.854 430.085 581.925C416.406 611.31 393.573 638.774 362.245 663.776C356.574 668.29 350.472 672.235 344.027 675.553ZM252.847 617.908C249.741 619.448 247.091 621.774 245.16 624.653C240.939 631.173 241.504 640.066 246.771 650.396C254.377 665.142 264.822 674.182 278.848 677.673C284.945 670.666 290.045 662.851 294.004 654.449C295.802 650.691 296.726 646.574 296.708 642.408C296.691 638.242 295.731 634.133 293.902 630.39C289.198 621.27 279.676 615.456 268.311 614.875C262.979 614.512 257.646 615.558 252.847 617.908Z"/>
</mask>
<path d="M344.027 675.553C337.155 679.096 329.92 681.888 322.45 683.88C306.928 688.004 293.683 689.132 282.174 687.264C273.644 696.259 263.758 703.862 252.876 709.798C217.526 729.25 179.297 734.78 122.91 723.102C118.701 719.856 114.439 716.325 110.122 712.508C164.405 723.751 215.148 720.372 248.611 702.033C257.154 697.338 265.042 691.541 272.073 684.789C257.855 679.917 246.695 669.725 238.867 654.392C230.218 637.622 233.505 626.303 237.718 619.807C243.672 610.594 255.584 605.291 268.78 605.968C283.337 606.725 295.681 614.325 301.804 626.314C304.258 631.261 305.558 636.7 305.605 642.221C305.652 647.742 304.445 653.203 302.076 658.19C298.561 665.655 294.212 672.697 289.112 679.183C313.592 679.812 337.525 671.884 356.789 656.765C387.022 632.708 408.994 606.249 422.084 578.127C432.382 556.217 437.326 532.174 436.509 507.978C435.691 483.782 429.136 460.127 417.382 438.962L417.309 438.82C395.271 400.862 352.897 374.532 309.323 371.753C271.536 369.331 232.105 383.664 198.307 412.101C177.308 429.775 151.549 459.288 148.147 499.521C144.49 542.868 171.012 580.635 197.713 590.776C216.758 598.022 237.418 581.203 254.056 567.72L259.536 563.292C277.508 548.981 339.11 468.966 339.369 468.692L344.434 474.284C343.359 475.419 283.523 555.523 265.055 570.231C263.291 571.621 261.488 573.091 259.646 574.601C241.324 589.514 218.396 608.142 194.58 599.095C177.349 592.534 162.183 578.065 151.875 558.349C142.275 540.034 137.932 519.42 139.325 498.789C143.023 455.521 170.333 424.088 192.591 405.285C228.136 375.386 269.784 360.309 309.84 362.822C356.249 365.9 401.357 394.001 424.88 434.335C426.147 436.363 443.851 465.491 445.322 508.034C446.184 533.524 440.961 558.854 430.085 581.925C416.406 611.31 393.573 638.774 362.245 663.776C356.574 668.29 350.472 672.235 344.027 675.553ZM252.847 617.908C249.741 619.448 247.091 621.774 245.16 624.653C240.939 631.173 241.504 640.066 246.771 650.396C254.377 665.142 264.822 674.182 278.848 677.673C284.945 670.666 290.045 662.851 294.004 654.449C295.802 650.691 296.726 646.574 296.708 642.408C296.691 638.242 295.731 634.133 293.902 630.39C289.198 621.27 279.676 615.456 268.311 614.875C262.979 614.512 257.646 615.558 252.847 617.908Z" fill="#195829" fill-opacity="0.2" stroke="black" stroke-width="1.55232" mask="url(#path-4-inside-1_304_2127)"/>
<path d="M290.568 688.097C289.35 688.349 288.098 688.378 286.87 688.183C283.89 687.923 280.933 687.442 278.023 686.743C275.106 686.11 272.244 685.244 269.464 684.154C268.273 683.778 267.165 683.173 266.205 682.373C266.3 682.325 267.532 682.89 269.688 683.579C271.844 684.267 274.845 685.121 278.204 685.89C281.562 686.659 284.671 687.217 286.91 687.523C288.141 687.627 289.363 687.819 290.568 688.097Z" fill="#263238"/>
<path d="M296.469 679.211C295.201 679.778 293.836 680.095 292.448 680.144C289.127 680.429 285.782 680.219 282.522 679.521C279.263 678.849 276.095 677.797 273.081 676.386C271.787 675.859 270.585 675.127 269.523 674.219C269.617 674.17 270.962 674.837 273.304 675.771C276.359 676.98 279.517 677.909 282.74 678.548C285.932 679.227 289.194 679.52 292.455 679.42C294.905 679.437 296.435 679.068 296.469 679.211Z" fill="#263238"/>
<path d="M250.876 668.249C250.432 667.978 250.037 667.633 249.71 667.229C248.725 666.224 247.793 665.169 246.918 664.067C241.122 656.746 237.374 648.018 236.055 638.774C235.846 637.387 235.72 635.989 235.676 634.587C235.619 634.073 235.634 633.554 235.721 633.044C235.847 632.978 236.026 635.227 236.634 638.695C237.467 643.203 238.791 647.607 240.585 651.825C242.405 656.025 244.688 660.009 247.391 663.703C249.494 666.54 250.986 668.152 250.876 668.249Z" fill="white"/>
<path d="M245.79 706.689C244.764 707.725 243.597 708.61 242.323 709.318C236.357 713.056 229.625 715.4 222.628 716.174C221.189 716.406 219.726 716.44 218.278 716.276C219.685 715.945 221.111 715.704 222.548 715.555C225.956 715.005 229.309 714.159 232.57 713.027C235.831 711.883 238.988 710.463 242.006 708.781C243.224 708.008 244.488 707.31 245.79 706.689Z" fill="white"/>
<path d="M436.662 541.874C436.655 543.434 436.478 544.989 436.132 546.51C434.809 553.911 432.606 561.127 429.569 568.004C429.011 569.458 428.289 570.844 427.417 572.135C427.835 570.669 428.36 569.235 428.986 567.844C430.01 565.175 431.356 561.459 432.648 557.291C433.94 553.123 434.87 549.262 435.511 546.47C435.782 544.912 436.167 543.376 436.662 541.874Z" fill="white"/>
<path d="M169.727 577.676C169.039 577.182 168.405 576.617 167.836 575.99C166.204 574.382 164.661 572.686 163.215 570.909C160.992 568.323 158.924 565.608 157.021 562.778C152.379 555.812 148.722 548.237 146.152 540.27C145.109 537.019 144.257 533.71 143.602 530.36C143.149 528.105 142.81 525.829 142.586 523.54C142.451 522.705 142.403 521.858 142.443 521.012C142.671 521.829 142.833 522.662 142.928 523.504C143.155 525.108 143.581 527.409 144.213 530.225C144.942 533.533 145.846 536.801 146.921 540.014C148.271 543.959 149.843 547.824 151.631 551.591C153.453 555.327 155.501 558.949 157.764 562.435C159.608 565.274 161.602 568.013 163.737 570.64C165.554 572.884 167.088 574.655 168.192 575.826C168.752 576.401 169.265 577.02 169.727 577.676Z" fill="white"/>
<path d="M142.68 501.801C143.061 503.509 143.15 505.269 142.944 507.007C143.023 508.759 142.812 510.511 142.317 512.193C141.947 510.481 141.863 508.718 142.069 506.978C141.997 505.231 142.204 503.483 142.68 501.801Z" fill="white"/>
<path d="M457.096 421.842L405.791 356.857C404.77 355.647 403.318 354.882 401.743 354.723C400.168 354.564 398.593 355.024 397.35 356.005C396.108 356.986 395.295 358.412 395.085 359.981C394.874 361.55 395.282 363.139 396.222 364.413L398.566 367.367L373.184 389.502C370.491 391.847 368.415 394.817 367.138 398.152C365.861 401.486 365.422 405.083 365.859 408.627L350.556 421.982C348.009 424.205 346.449 427.347 346.219 430.719C345.988 434.091 347.105 437.417 349.326 439.966L354.167 445.473L339.202 458.553C338.211 459.419 337.399 460.473 336.814 461.653C336.229 462.833 335.883 464.116 335.794 465.43C335.705 466.744 335.876 468.063 336.297 469.311C336.717 470.558 337.38 471.711 338.246 472.703C339.112 473.695 340.166 474.507 341.346 475.091C342.526 475.676 343.809 476.023 345.123 476.112C346.437 476.201 347.756 476.03 349.003 475.609C350.251 475.188 351.404 474.526 352.396 473.659L367.384 460.586L371.153 464.906C373.375 467.453 376.518 469.013 379.89 469.243C383.262 469.474 386.588 468.357 389.136 466.136L404.714 452.539L404.641 452.397C408.01 453.191 411.52 453.171 414.881 452.339C418.241 451.507 421.355 449.887 423.965 447.613L446.499 427.987L447.614 429.413C448.636 430.623 450.087 431.388 451.662 431.547C453.238 431.706 454.813 431.246 456.055 430.265C457.298 429.284 458.11 427.858 458.321 426.289C458.531 424.72 458.123 423.13 457.184 421.856L457.096 421.842Z" fill="#195829" fill-opacity="0.2"/>
<path d="M457.096 421.842C457.41 422.181 457.67 422.566 457.866 422.985C458.476 424.22 458.651 425.625 458.361 426.972C458.116 428.066 457.581 429.075 456.814 429.893C456.046 430.712 455.074 431.309 453.997 431.624C452.934 431.914 451.814 431.917 450.75 431.633C449.686 431.349 448.716 430.787 447.94 430.006C447.376 429.416 446.914 428.754 446.381 428.108L446.652 428.129L430.13 442.652L425.19 447.001C423.479 448.615 421.546 449.975 419.45 451.042C414.829 453.315 409.561 453.909 404.55 452.724L404.869 452.179L404.934 452.306L405.168 452.565L404.868 452.72C399.604 457.296 394.17 462.24 388.164 467.238C386.475 468.403 384.537 469.157 382.505 469.441C380.473 469.724 378.403 469.53 376.46 468.872C374.448 468.198 372.633 467.037 371.176 465.494C369.757 463.945 368.417 462.355 367.021 460.774L367.586 460.823L354.991 471.941C353.881 472.853 352.891 473.844 351.654 474.742C350.049 475.834 348.172 476.456 346.233 476.538C344.295 476.62 342.371 476.159 340.68 475.207C338.989 474.255 337.598 472.85 336.662 471.15C335.727 469.45 335.284 467.522 335.385 465.585C335.495 464 335.948 462.458 336.711 461.066C337.475 459.674 338.533 458.464 339.81 457.52L353.917 445.221L353.869 445.826C352.876 444.678 351.843 443.489 350.786 442.294C349.649 441.093 348.614 439.8 347.692 438.427C345.922 435.527 345.342 432.054 346.075 428.736C346.43 427.108 347.094 425.563 348.03 424.185C348.983 422.852 350.12 421.66 351.406 420.644L365.568 408.297L365.438 408.664C364.851 403.73 365.916 398.741 368.466 394.477C369.72 392.418 371.295 390.573 373.13 389.01L378.37 384.426L398.315 367.076L398.266 367.601C397.652 366.837 397.046 366.05 396.432 365.286C395.757 364.53 395.23 363.655 394.88 362.704C394.566 361.747 394.48 360.73 394.63 359.734C394.779 358.738 395.16 357.791 395.741 356.968C396.322 356.145 397.087 355.47 397.976 354.996C398.865 354.522 399.852 354.262 400.859 354.238C401.833 354.192 402.805 354.37 403.699 354.759C404.593 355.147 405.386 355.736 406.017 356.48L418.698 372.571C426.635 382.684 433.57 391.514 439.301 398.823C445.032 406.133 449.478 411.844 452.574 415.79C454.078 417.735 455.234 419.24 456.034 420.288C456.415 420.792 456.706 421.162 456.916 421.454C457.006 421.594 457.083 421.742 457.144 421.897C457.02 421.786 456.909 421.662 456.813 421.527C456.65 421.211 456.28 420.881 455.893 420.401L452.306 415.968C449.186 412.054 444.645 406.352 438.884 399.139C433.122 391.925 426.131 383.065 418.139 373C414.141 367.965 409.899 362.622 405.411 356.973C404.853 356.318 404.153 355.798 403.365 355.452C402.576 355.107 401.72 354.945 400.86 354.978C399.971 355.006 399.101 355.243 398.32 355.669C397.538 356.095 396.868 356.698 396.362 357.429C395.856 358.161 395.529 359.002 395.406 359.883C395.284 360.764 395.37 361.662 395.657 362.504C395.968 363.38 396.451 364.186 397.079 364.872C397.693 365.636 398.307 366.4 398.913 367.187L399.076 367.504L398.801 367.746L378.904 385.151C375.53 388.272 371.547 390.946 369.172 394.993C366.703 399.103 365.667 403.916 366.225 408.678L366.244 408.909L366.055 409.007L351.9 421.369C350.67 422.331 349.583 423.464 348.673 424.734C347.809 426.022 347.194 427.459 346.857 428.972C346.167 432.07 346.706 435.314 348.363 438.021C349.257 439.355 350.265 440.61 351.376 441.769C352.426 442.989 353.474 444.169 354.467 445.318L354.749 445.632L354.419 445.923L340.407 458.172C339.205 459.031 338.209 460.147 337.49 461.438C336.772 462.729 336.349 464.163 336.253 465.637C336.176 467.404 336.591 469.157 337.452 470.702C338.312 472.247 339.585 473.522 341.128 474.386C342.671 475.25 344.424 475.668 346.191 475.595C347.958 475.521 349.669 474.959 351.135 473.969C352.255 473.192 353.316 472.145 354.402 471.224L367.038 460.225L367.345 459.967L367.595 460.258C368.991 461.839 370.347 463.461 371.726 464.97C373.095 466.422 374.799 467.516 376.69 468.153C378.519 468.775 380.468 468.963 382.382 468.702C384.296 468.44 386.123 467.737 387.719 466.647C393.607 461.73 399.16 456.745 404.408 452.217L404.39 452.686L404.325 452.56L403.639 451.773L404.644 452.015C409.509 453.166 414.623 452.587 419.108 450.378C421.158 449.343 423.049 448.017 424.722 446.443L429.687 442.141L446.281 427.759L446.455 427.67L446.545 427.844C447.078 428.489 447.556 429.183 448.08 429.733C448.598 430.274 449.217 430.709 449.901 431.015C451.157 431.556 452.557 431.664 453.882 431.323C454.72 431.088 455.498 430.674 456.162 430.11C456.825 429.546 457.358 428.845 457.725 428.055C458.091 427.265 458.282 426.405 458.285 425.534C458.287 424.664 458.101 423.803 457.739 423.011C457.544 422.611 457.329 422.22 457.096 421.842Z" fill="#263238"/>
<path d="M446.986 427.536C446.781 427.642 435.687 414.434 422.166 397.956C408.644 381.478 397.801 367.981 397.998 367.819C398.195 367.658 409.289 380.905 422.834 397.391C436.38 413.877 447.183 427.374 446.986 427.536Z" fill="#263238"/>
<path d="M404.554 452.382C404.349 452.488 395.613 442.806 384.86 430.723C374.106 418.641 365.637 408.622 365.842 408.516C366.048 408.41 374.783 418.092 385.553 430.206C396.323 442.32 404.759 452.276 404.554 452.382Z" fill="#263238"/>
<path d="M367.353 460.603C364.78 458.46 362.46 456.032 360.438 453.364C358.201 450.884 356.118 448.27 354.2 445.536C356.768 447.689 359.085 450.126 361.107 452.799C363.342 455.273 365.428 457.879 367.353 460.603Z" fill="#263238"/>
<path d="M363.594 415.058C363.651 415.169 362.09 416.294 359.665 418.265C358.452 419.251 357.028 420.446 355.51 421.849C353.858 423.32 352.393 424.989 351.15 426.819C349.806 428.52 349.162 430.67 349.348 432.83C349.796 434.571 350.596 436.201 351.699 437.621C353.457 440.176 354.779 441.615 354.685 441.704C353.331 440.656 352.15 439.401 351.186 437.985C349.978 436.525 349.099 434.822 348.61 432.991C348.379 431.849 348.46 430.667 348.846 429.568C349.236 428.428 349.773 427.343 350.444 426.342C351.716 424.444 353.242 422.729 354.977 421.243C356.543 419.855 358.032 418.707 359.214 417.817C360.545 416.708 362.018 415.78 363.594 415.058Z" fill="white"/>
<path d="M395.274 374.447C394.918 374.92 394.492 375.336 394.009 375.68C393.167 376.414 391.916 377.48 390.357 378.764L378.153 388.7C375.939 390.496 373.97 392.574 372.297 394.882C370.956 396.78 370.024 398.937 369.561 401.215C369.189 403.334 369.292 405.509 369.863 407.583C369.509 407.096 369.268 406.537 369.159 405.945C368.778 404.353 368.722 402.701 368.994 401.087C369.39 398.7 370.301 396.428 371.663 394.428C373.332 392.017 375.338 389.857 377.62 388.015C382.398 384.089 386.811 380.733 390.017 378.259C391.608 377.038 392.893 376.075 393.839 375.388C394.281 375.022 394.763 374.707 395.274 374.447Z" fill="white"/>
<path d="M353.226 451.02C352.63 452.115 351.804 453.067 350.803 453.811C349.105 455.367 346.453 457.015 343.792 459.188C342.556 460.18 341.463 461.336 340.542 462.625C339.802 463.672 339.246 464.839 338.899 466.073C338.655 467.249 338.542 468.448 338.562 469.649C338.048 468.482 337.953 467.174 338.293 465.946C338.569 464.598 339.104 463.317 339.868 462.172C340.777 460.768 341.899 459.514 343.194 458.456C345.91 456.234 348.627 454.673 350.367 453.275C352.107 451.878 353.105 450.903 353.226 451.02Z" fill="white"/>
<path d="M400.771 356.044C400.836 356.171 400.243 356.457 399.519 357.11C398.601 357.95 397.946 359.039 397.634 360.244C397.365 361.468 397.473 362.744 397.942 363.906C398.287 364.809 398.676 365.329 398.573 365.402C398.471 365.475 397.925 365.116 397.381 364.176C396.668 362.925 396.45 361.451 396.772 360.048C397.116 358.653 397.962 357.433 399.147 356.622C400.054 356.014 400.738 355.941 400.771 356.044Z" fill="white"/>
<mask id="path-21-inside-2_304_2127" fill="white">
<path d="M1012.18 331.365C1009.03 333.002 1005.65 334.17 1002.16 334.831C967.494 341.326 957.899 318.841 950.133 300.796C942.931 283.96 937.712 273.725 921.732 275.604C900.59 278.103 896.63 288.31 890.62 303.776C883.469 322.191 874.593 345.098 831.888 359.679C809.768 367.226 770.976 373.486 712.585 360.02C691.808 355.305 671.483 348.781 651.844 340.522L655.433 332.427C656.441 332.868 755.685 376.35 829.024 351.292C867.816 338.048 875.536 318.139 882.363 300.57C888.481 284.809 894.252 269.927 920.691 266.796C944.049 264.054 951.612 281.704 958.273 297.298C966.082 315.541 972.825 331.293 1000.53 326.11C1031.73 320.263 1045.17 259.065 1053.19 222.592C1056.07 209.559 1057.93 200.238 1060.36 194.64L1068.75 196.316C1067.76 200.83 1064.53 212.499 1061.84 224.512C1053.7 261.71 1041.71 316.137 1012.18 331.365Z"/>
</mask>
<path d="M1012.18 331.365C1009.03 333.002 1005.65 334.17 1002.16 334.831C967.494 341.326 957.899 318.841 950.133 300.796C942.931 283.96 937.712 273.725 921.732 275.604C900.59 278.103 896.63 288.31 890.62 303.776C883.469 322.191 874.593 345.098 831.888 359.679C809.768 367.226 770.976 373.486 712.585 360.02C691.808 355.305 671.483 348.781 651.844 340.522L655.433 332.427C656.441 332.868 755.685 376.35 829.024 351.292C867.816 338.048 875.536 318.139 882.363 300.57C888.481 284.809 894.252 269.927 920.691 266.796C944.049 264.054 951.612 281.704 958.273 297.298C966.082 315.541 972.825 331.293 1000.53 326.11C1031.73 320.263 1045.17 259.065 1053.19 222.592C1056.07 209.559 1057.93 200.238 1060.36 194.64L1068.75 196.316C1067.76 200.83 1064.53 212.499 1061.84 224.512C1053.7 261.71 1041.71 316.137 1012.18 331.365Z" fill="#195829" fill-opacity="0.2" stroke="black" stroke-width="1.55232" mask="url(#path-21-inside-2_304_2127)"/>
<path d="M868.675 326.6C868.675 326.6 868.514 327.063 868.085 327.784C867.502 328.828 866.85 329.833 866.134 330.791C863.772 333.967 861.024 336.836 857.953 339.333C854.878 341.815 851.503 343.899 847.906 345.535C846.818 346.026 845.706 346.459 844.573 346.834C844.166 347.002 843.736 347.109 843.297 347.152C843.232 347.026 844.972 346.288 847.628 344.918C854.581 341.376 860.713 336.414 865.628 330.352C867.475 327.999 868.514 326.443 868.675 326.6Z" fill="white"/>
<path d="M902.589 278.913C901.746 279.389 900.868 279.801 899.964 280.147C895.804 282.218 892.499 285.678 890.621 289.928C890.315 290.847 889.94 291.743 889.502 292.607C889.452 291.618 889.627 290.632 890.014 289.721C890.816 287.445 892.093 285.367 893.761 283.623C895.429 281.88 897.449 280.512 899.687 279.61C900.587 279.154 901.581 278.916 902.589 278.913Z" fill="white"/>
<path d="M991.431 327.6C990.114 328.093 988.719 328.345 987.312 328.344C983.916 328.497 980.524 327.978 977.329 326.816C974.134 325.655 971.2 323.875 968.695 321.577C967.622 320.676 966.717 319.591 966.022 318.373C966.149 318.308 967.158 319.489 969.111 321.103C971.657 323.2 974.539 324.853 977.635 325.991C980.736 327.112 984.007 327.693 987.304 327.707C989.834 327.723 991.413 327.449 991.431 327.6Z" fill="white"/>
<path d="M659.711 338.665C659.011 341.284 657.298 343.517 654.951 344.874C652.604 346.231 649.814 346.6 647.195 345.901L626.797 340.414L632.093 320.654L652.476 326.149C655.095 326.85 657.328 328.562 658.685 330.909C660.042 333.256 660.411 336.046 659.711 338.665Z" fill="#195829" fill-opacity="0.2"/>
<path d="M659.711 338.665C659.825 337.743 659.888 336.816 659.899 335.887C659.812 333.321 658.749 330.885 656.927 329.076C655.677 327.819 654.114 326.919 652.4 326.468L646.28 324.882C641.938 323.72 637.126 322.46 632.011 321.116L632.549 320.839L629.904 330.727L627.252 340.599L626.975 340.061L641.189 343.876L647.294 345.55C648.999 346.014 650.797 346.019 652.504 345.564C654.988 344.902 657.126 343.32 658.486 341.138C658.943 340.325 659.352 339.486 659.711 338.626C659.554 339.564 659.226 340.467 658.742 341.286C657.426 343.628 655.237 345.353 652.654 346.087C650.85 346.612 648.939 346.644 647.119 346.18C645.204 345.687 643.161 345.14 640.999 344.595L626.706 340.82L626.291 340.714L626.413 340.291L629.041 330.411L631.702 320.555L631.808 320.14L632.223 320.246L646.469 324.124L652.575 325.798C654.388 326.3 656.031 327.286 657.327 328.649C659.19 330.575 660.22 333.157 660.193 335.836C660.218 336.801 660.054 337.762 659.711 338.665Z" fill="#263238"/>
<path d="M550.437 298.896L516.301 291.449C515.664 291.31 515.061 291.047 514.526 290.675C513.99 290.302 513.534 289.828 513.182 289.279C512.83 288.731 512.59 288.118 512.475 287.476C512.36 286.834 512.373 286.176 512.513 285.539C512.652 284.902 512.915 284.299 513.287 283.764C513.659 283.229 514.134 282.772 514.682 282.42C515.231 282.069 515.844 281.828 516.486 281.713C517.128 281.599 517.786 281.611 518.423 281.751L552.542 289.206L550.437 298.896Z" fill="#195829" fill-opacity="0.2"/>
<path d="M542.839 339.413L508.735 331.95C508.097 331.812 507.493 331.551 506.957 331.18C506.42 330.809 505.963 330.336 505.609 329.787C505.256 329.239 505.014 328.627 504.898 327.985C504.781 327.344 504.792 326.685 504.931 326.048C505.067 325.41 505.329 324.805 505.701 324.269C506.073 323.732 506.547 323.275 507.096 322.923C507.646 322.57 508.26 322.331 508.902 322.217C509.545 322.103 510.204 322.117 510.841 322.259L544.968 329.691L542.839 339.413Z" fill="#195829" fill-opacity="0.2"/>
<g opacity="0.6">
<path opacity="0.6" d="M550.437 298.896L516.301 291.449C515.664 291.31 515.061 291.047 514.526 290.675C513.99 290.302 513.534 289.828 513.182 289.279C512.83 288.731 512.59 288.118 512.475 287.476C512.36 286.834 512.373 286.176 512.513 285.539C512.652 284.902 512.915 284.299 513.287 283.764C513.659 283.229 514.134 282.772 514.682 282.42C515.231 282.069 515.844 281.828 516.486 281.713C517.128 281.599 517.786 281.611 518.423 281.751L552.542 289.206L550.437 298.896Z" fill="white"/>
</g>
<g opacity="0.6">
<path opacity="0.6" d="M542.839 339.413L508.735 331.95C508.097 331.812 507.493 331.551 506.957 331.18C506.42 330.809 505.963 330.336 505.609 329.787C505.256 329.239 505.014 328.627 504.898 327.985C504.781 327.344 504.792 326.685 504.931 326.048C505.067 325.41 505.329 324.805 505.701 324.269C506.073 323.732 506.547 323.275 507.096 322.923C507.646 322.57 508.26 322.331 508.902 322.217C509.545 322.103 510.204 322.117 510.841 322.259L544.968 329.691L542.839 339.413Z" fill="white"/>
</g>
<path d="M550.437 298.896C550.452 298.658 550.484 298.421 550.531 298.187L550.889 296.242L552.287 289.138L552.458 289.469L536.509 286.13L526.492 283.972L521.084 282.76L518.325 282.182C517.469 281.977 516.572 282.036 515.75 282.349C515.05 282.604 514.424 283.028 513.928 283.584C513.433 284.14 513.083 284.81 512.91 285.534C512.745 286.24 512.75 286.974 512.925 287.677C513.1 288.381 513.439 289.032 513.915 289.578C514.37 290.089 514.943 290.48 515.584 290.719C516.271 290.956 516.976 291.141 517.691 291.273L521.934 292.206L536.619 295.538L546.606 297.87L549.318 298.473C549.66 298.542 549.996 298.636 550.324 298.754C550.017 298.74 549.713 298.696 549.415 298.623L546.703 298.02C544.223 297.518 540.835 296.845 536.712 295.99L521.775 292.868L517.461 291.952C516.687 291.811 515.922 291.624 515.171 291.392C514.129 291.013 513.231 290.32 512.601 289.407C511.972 288.495 511.642 287.409 511.658 286.301C511.674 285.193 512.034 284.117 512.69 283.223C513.345 282.329 514.263 281.661 515.315 281.313C516.3 280.955 517.367 280.884 518.391 281.107L521.134 281.693L526.526 282.914L536.536 285.135L552.401 288.738L552.673 288.799L552.604 289.054L550.897 296.258L550.411 298.109C550.453 298.369 550.461 298.634 550.437 298.896Z" fill="#263238"/>
<path d="M542.839 339.413C542.85 339.171 542.887 338.93 542.949 338.696C543.038 338.17 543.149 337.532 543.307 336.75L544.705 329.646L544.876 329.978L528.919 326.622L518.91 324.481L513.502 323.268L510.743 322.69C509.88 322.502 508.981 322.563 508.152 322.866C507.454 323.127 506.831 323.555 506.337 324.113C505.844 324.672 505.495 325.342 505.321 326.067C505.153 326.772 505.158 327.507 505.336 328.21C505.514 328.912 505.859 329.562 506.342 330.102C506.793 330.612 507.36 331.005 507.994 331.251C508.685 331.48 509.392 331.658 510.109 331.781L514.344 332.738L529.045 336.062L539.032 338.395L541.744 338.997C542.084 339.057 542.416 339.154 542.734 339.287C542.734 339.287 542.439 339.259 541.841 339.147L539.154 338.632L529.163 336.601L514.242 333.471L509.919 332.539C509.143 332.412 508.377 332.225 507.63 331.979C506.848 331.672 506.154 331.179 505.607 330.541C505.033 329.899 504.622 329.127 504.411 328.292C504.2 327.457 504.194 326.582 504.394 325.744C504.614 324.889 505.039 324.1 505.632 323.445C506.225 322.79 506.969 322.29 507.799 321.987C508.784 321.631 509.85 321.559 510.874 321.782C511.808 322.001 512.725 322.188 513.634 322.36L519.026 323.581L529.027 325.786L544.901 329.405L545.156 329.473L545.104 329.721C544.37 332.72 543.796 335.138 543.372 336.917L542.911 338.776C542.932 339.205 542.847 339.429 542.839 339.413Z" fill="#263238"/>
<path d="M617.744 295.938L617.985 294.853C618.492 292.555 618.129 290.151 616.966 288.105C615.804 286.059 613.925 284.517 611.692 283.776C609.458 283.034 607.03 283.147 604.875 284.091C602.719 285.036 600.991 286.745 600.022 288.89L549.949 277.777L534.606 346.38L585.126 356.342C584.911 358.652 585.547 360.962 586.915 362.836C588.284 364.71 590.289 366.019 592.555 366.518C594.98 367.046 597.515 366.605 599.618 365.289C601.721 363.972 603.226 361.884 603.809 359.473C610.838 360.68 618.06 359.101 623.943 355.069C629.825 351.038 633.905 344.872 635.315 337.881L637.367 327.738C638.722 320.939 637.451 313.879 633.81 307.979C630.17 302.078 624.429 297.776 617.744 295.938Z" fill="#195829" fill-opacity="0.2"/>
<path d="M617.745 295.938L618.184 296.051L619.437 296.426C620.122 296.614 620.79 296.859 621.435 297.156L622.699 297.705L624.084 298.451C626.52 299.746 628.735 301.421 630.644 303.412C633.527 306.418 635.686 310.042 636.958 314.007C638.23 317.973 638.582 322.177 637.986 326.299C637.643 328.777 637.046 331.266 636.562 333.896C636.12 336.639 635.46 339.341 634.587 341.978C632.513 347.795 628.533 352.739 623.293 356.007C617.509 359.657 610.584 361.048 603.84 359.917L604.33 359.665C603.72 362.113 602.21 364.243 600.101 365.627C599.005 366.347 597.777 366.841 596.488 367.079C595.199 367.318 593.875 367.297 592.594 367.018C590.226 366.495 588.129 365.125 586.699 363.166C585.268 361.207 584.602 358.793 584.825 356.377L585.157 356.827L545.918 348.99L534.484 346.723L534.045 346.649L534.135 346.203C539.773 321.285 544.984 297.907 549.55 277.623L549.633 277.24L550 277.331L600.035 288.563L599.766 288.702C600.525 287.038 601.74 285.622 603.27 284.619C604.799 283.616 606.582 283.066 608.41 283.033C610.239 283 612.04 283.486 613.605 284.433C615.17 285.381 616.434 286.752 617.253 288.388C618.102 290.108 618.404 292.047 618.118 293.945C618.044 294.424 617.941 294.898 617.809 295.364L617.68 295.851C617.68 295.851 617.815 295.181 617.99 293.93C618.197 292.044 617.841 290.139 616.967 288.455C616.277 287.128 615.279 285.986 614.058 285.123C612.837 284.259 611.427 283.7 609.946 283.492C608.048 283.188 606.104 283.491 604.389 284.357C602.48 285.313 600.958 286.896 600.078 288.841L599.993 289.025L599.794 288.988L549.706 278.003L550.18 277.758L535.005 346.415L534.72 345.861L546.138 348.137L585.289 355.958L585.664 356.025L585.621 356.407C585.403 358.618 585.999 360.832 587.297 362.634C588.595 364.437 590.506 365.704 592.671 366.198C594.994 366.704 597.423 366.283 599.439 365.022C601.455 363.762 602.898 361.763 603.46 359.453L603.559 359.102L603.91 359.161C610.158 360.202 616.573 359.021 622.041 355.824C627.509 352.628 631.685 347.617 633.843 341.662C634.682 339.066 635.319 336.409 635.748 333.716C636.256 331.092 636.877 328.571 637.228 326.149C638.017 320.741 637.162 315.221 634.776 310.304C632.391 305.387 628.583 301.301 623.847 298.574C623.366 298.301 622.91 298.036 622.469 297.803L621.221 297.246C620.579 296.93 619.917 296.657 619.239 296.428L618 296.006C617.82 295.966 617.735 295.943 617.745 295.938Z" fill="#263238"/>
<path d="M578.121 317.539L542.866 309.847L541.361 316.745L576.616 324.437L578.121 317.539Z" fill="#E0E0E0"/>
<path d="M617.745 295.938C617.695 296.797 617.573 297.65 617.379 298.488C617.105 300.13 616.657 302.482 616.073 305.384C614.929 311.197 613.192 319.196 611.194 328.01C609.197 336.824 607.41 344.649 606.045 350.576L604.475 357.388C604.313 358.239 604.073 359.072 603.759 359.879C603.808 359.02 603.931 358.167 604.125 357.329C604.398 355.687 604.846 353.335 605.43 350.433C606.574 344.62 608.312 336.621 610.35 327.886L615.459 305.241L617.044 298.42C617.198 297.573 617.433 296.741 617.745 295.938Z" fill="#263238"/>
<path d="M599.99 288.827C599.935 289.735 599.797 290.637 599.578 291.52C599.25 293.25 598.74 295.754 598.103 298.825C596.796 304.981 594.882 313.452 592.692 322.786C590.502 332.119 588.507 340.432 587.018 346.702C586.291 349.638 585.773 352.047 585.263 353.93C585.081 354.828 584.826 355.709 584.501 356.565C584.577 355.655 584.72 354.752 584.928 353.863C585.257 352.133 585.75 349.637 586.404 346.559C587.711 340.402 589.625 331.931 591.815 322.598L597.497 298.697L599.243 291.453C599.425 290.56 599.674 289.682 599.99 288.827Z" fill="#263238"/>
</svg>
