<svg width="100%" height="100%" preserveAspectRatio="xMidYMid meet" viewBox="0 0 48 48" fill="none" xmlns="http://www.w3.org/2000/svg">
<path d="M10 10C10 9.46957 10.2107 8.96086 10.5858 8.58579C10.9609 8.21071 11.4696 8 12 8H16C16.5304 8 17.0391 8.21071 17.4142 8.58579C17.7893 8.96086 18 9.46957 18 10V38C18 38.5304 17.7893 39.0391 17.4142 39.4142C17.0391 39.7893 16.5304 40 16 40H12C11.4696 40 10.9609 39.7893 10.5858 39.4142C10.2107 39.0391 10 38.5304 10 38V10Z" stroke="#333333" stroke-width="2" stroke-linecap="round" stroke-linejoin="round"/>
<path d="M18 10C18 9.46957 18.2107 8.96086 18.5858 8.58579C18.9609 8.21071 19.4696 8 20 8H24C24.5304 8 25.0391 8.21071 25.4142 8.58579C25.7893 8.96086 26 9.46957 26 10V38C26 38.5304 25.7893 39.0391 25.4142 39.4142C25.0391 39.7893 24.5304 40 24 40H20C19.4696 40 18.9609 39.7893 18.5858 39.4142C18.2107 39.0391 18 38.5304 18 38V10Z" stroke="#333333" stroke-width="2" stroke-linecap="round" stroke-linejoin="round"/>
<path d="M10 16H18" stroke="#333333" stroke-width="2" stroke-linecap="round" stroke-linejoin="round"/>
<path d="M18 32H26" stroke="#333333" stroke-width="2" stroke-linecap="round" stroke-linejoin="round"/>
<path d="M27.6062 9.12008L31.9742 8.06009C33.0982 7.79009 34.2402 8.44009 34.5382 9.52409L41.9282 36.3601C42.0585 36.8514 42.0008 37.3737 41.7662 37.8246C41.5317 38.2756 41.1373 38.6227 40.6602 38.7981L40.3942 38.8801L36.0262 39.9401C34.9022 40.2101 33.7602 39.5601 33.4622 38.4761L26.0722 11.6401C25.9418 11.1488 25.9995 10.6265 26.2341 10.1756C26.4686 9.72459 26.8631 9.37744 27.3402 9.20208L27.6062 9.12008Z" stroke="#333333" stroke-width="2" stroke-linecap="round" stroke-linejoin="round"/>
<path d="M28 18L36 16" stroke="#333333" stroke-width="2" stroke-linecap="round" stroke-linejoin="round"/>
<path d="M32 32L39.846 30.04" stroke="#333333" stroke-width="2" stroke-linecap="round" stroke-linejoin="round"/>
</svg>
