<svg width="100%" height="100%" preserveAspectRatio="xMidYMid meet" viewBox="0 0 140 140" fill="none" xmlns="http://www.w3.org/2000/svg">
<circle cx="70" cy="70" r="70" fill="#195829"/>
<g clip-path="url(#clip0_2015_6694)">
<path d="M29.7129 48.8999L35.0254 66.6041M58.3879 89.9749L76.1004 95.2874" stroke="#FCFDFF" stroke-width="6.25" stroke-linecap="round" stroke-linejoin="round"/>
<path d="M53.6787 71.3208L77.6745 47.325" stroke="#FCFDFF" stroke-width="6.25" stroke-linecap="round" stroke-linejoin="round"/>
<path d="M21.667 42.9167C21.667 43.7375 21.8287 44.5502 22.1427 45.3085C22.4568 46.0668 22.9172 46.7558 23.4976 47.3362C24.0779 47.9165 24.7669 48.3769 25.5252 48.691C26.2835 49.0051 27.0962 49.1667 27.917 49.1667C28.7378 49.1667 29.5505 49.0051 30.3088 48.691C31.067 48.3769 31.756 47.9165 32.3364 47.3362C32.9168 46.7558 33.3771 46.0668 33.6912 45.3085C34.0053 44.5502 34.167 43.7375 34.167 42.9167C34.167 42.096 34.0053 41.2833 33.6912 40.525C33.3771 39.7667 32.9168 39.0777 32.3364 38.4973C31.756 37.917 31.067 37.4566 30.3088 37.1425C29.5505 36.8284 28.7378 36.6667 27.917 36.6667C27.0962 36.6667 26.2835 36.8284 25.5252 37.1425C24.7669 37.4566 24.0779 37.917 23.4976 38.4973C22.9172 39.0777 22.4568 39.7667 22.1427 40.525C21.8287 41.2833 21.667 42.096 21.667 42.9167Z" stroke="#FCFDFF" stroke-width="6.25" stroke-linecap="round" stroke-linejoin="round"/>
<path d="M75.8335 42.9167C75.8335 44.5744 76.492 46.1641 77.6641 47.3362C78.8362 48.5083 80.4259 49.1667 82.0835 49.1667C83.7411 49.1667 85.3308 48.5083 86.5029 47.3362C87.675 46.1641 88.3335 44.5744 88.3335 42.9167C88.3335 41.2591 87.675 39.6694 86.5029 38.4973C85.3308 37.3252 83.7411 36.6667 82.0835 36.6667C80.4259 36.6667 78.8362 37.3252 77.6641 38.4973C76.492 39.6694 75.8335 41.2591 75.8335 42.9167Z" stroke="#FCFDFF" stroke-width="6.25" stroke-linecap="round" stroke-linejoin="round"/>
<path d="M75.8335 97.0833C75.8335 98.7409 76.492 100.331 77.6641 101.503C78.8362 102.675 80.4259 103.333 82.0835 103.333C83.7411 103.333 85.3308 102.675 86.5029 101.503C87.675 100.331 88.3335 98.7409 88.3335 97.0833C88.3335 95.4256 87.675 93.8359 86.5029 92.6638C85.3308 91.4917 83.7411 90.8333 82.0835 90.8333C80.4259 90.8333 78.8362 91.4917 77.6641 92.6638C76.492 93.8359 75.8335 95.4256 75.8335 97.0833Z" stroke="#FCFDFF" stroke-width="6.25" stroke-linecap="round" stroke-linejoin="round"/>
<path d="M21.667 84.5833C21.667 89.5561 23.6424 94.3252 27.1587 97.8415C30.675 101.358 35.4442 103.333 40.417 103.333C45.3898 103.333 50.1589 101.358 53.6752 97.8415C57.1915 94.3252 59.167 89.5561 59.167 84.5833C59.167 79.6104 57.1915 74.8413 53.6752 71.325C50.1589 67.8087 45.3898 65.8333 40.417 65.8333C35.4442 65.8333 30.675 67.8087 27.1587 71.325C23.6424 74.8413 21.667 79.6104 21.667 84.5833Z" stroke="#FCFDFF" stroke-width="6.25" stroke-linecap="round" stroke-linejoin="round"/>
</g>
<defs>
<clipPath id="clip0_2015_6694">
<rect width="100" height="100" fill="white" transform="translate(5 20)"/>
</clipPath>
</defs>
</svg>
