<svg width="358" height="354" viewBox="0 0 358 354" fill="none" xmlns="http://www.w3.org/2000/svg">
<path d="M80.0196 229.39C79.9393 229.871 79.8591 230.353 80.0597 230.794C80.2202 231.236 80.7419 231.637 81.2636 231.517C81.7853 231.396 82.0662 230.835 82.2267 230.353C84.0727 224.762 85.7047 219.103 87.1226 213.378C86.3468 217.605 85.6111 221.845 84.9155 226.099C84.5944 228.106 84.2734 230.112 84.5142 232.119C84.5543 232.64 84.9155 233.363 85.4773 233.242C85.7582 233.202 85.9588 232.961 86.1194 232.761C87.4437 230.915 87.9654 228.708 88.487 226.541C89.1291 223.732 89.7712 220.922 90.4133 218.113C91.1758 214.823 91.858 211.211 89.9719 208.281C89.2495 207.118 87.9654 206.114 86.4805 206.034C81.6248 205.914 82.7484 211.612 82.3471 214.261C81.5713 219.317 80.7954 224.36 80.0196 229.39Z" fill="#E6B6AA"/>
<path d="M90.3732 196.724C90.3732 196.724 93.7842 212.335 94.1855 217.752C94.627 223.13 94.0652 235.65 91.4166 236.694C88.768 237.737 90.012 220.24 89.1693 216.348C88.3265 212.455 85.4372 207.198 85.4372 207.198C85.4372 207.198 83.8721 214.141 84.3135 216.869C84.7148 219.598 85.8385 224.133 84.2333 225.658C82.6281 227.143 78.0131 217.873 77.6118 212.696C77.2105 207.559 76.2875 198.289 76.2875 198.289L90.3732 196.724Z" fill="#E6B6AA"/>
<path d="M48.5976 22.2782C68.6226 23.6828 69.4252 41.1795 70.2278 48.3227C70.9903 55.4659 70.7896 65.1372 74.281 75.5711C77.7321 85.9648 82.5478 91.3824 80.2603 101.616C77.9328 111.849 70.3883 119.955 49.5608 119.955C28.6931 119.955 2.5683 111.688 4.77546 90.4193C6.90236 69.9529 16.3731 68.2273 23.6768 41.9821C28.372 25.288 37.4013 21.5157 48.5976 22.2782Z" fill="#333333"/>
<path d="M66.8168 39.0126C67.0575 48.082 65.7332 57.1916 62.884 65.8196C61.8807 68.8694 60.7571 71.3977 58.7506 73.9259C56.7842 76.4541 53.8547 78.3402 50.6443 78.6612C46.9122 79.0224 43.2603 77.6981 40.3709 75.2903C33.5087 69.6319 29.4555 61.0039 28.4122 52.1753C28.1312 49.5668 28.051 46.9584 28.6128 44.4302C29.9371 38.1297 35.154 33.0332 41.2137 30.8662C49.7614 27.8163 59.9946 30.505 65.974 37.287" fill="#E6B6AA"/>
<path d="M53.935 49.8877C54.256 52.6567 54.6172 55.3454 55.2191 58.0341C55.5134 59.3718 55.8478 60.6961 56.2224 62.007L56.3428 62.4886C56.3829 62.5688 56.423 62.6892 56.423 62.8899C56.423 63.0504 56.2625 63.251 56.1421 63.2912C55.9013 63.4116 55.7809 63.4116 55.5803 63.4918C55.4198 63.5453 55.2459 63.5855 55.0586 63.6122C54.3764 63.7326 53.654 63.8129 52.9718 63.7326C53.654 63.6122 54.3363 63.4517 54.9382 63.2109L55.4198 63.0103C55.5803 62.9701 55.7809 62.8899 55.8211 62.8497C55.8211 62.8096 55.8612 62.8096 55.8211 62.8497C55.8211 62.8497 55.8211 62.7695 55.7809 62.6892L55.5803 62.2077C55.0586 60.9235 54.6974 59.5591 54.3764 58.1946C53.8146 55.4658 53.5738 52.6567 53.935 49.8877Z" fill="#333333"/>
<path d="M58.1085 66.1001C57.8677 66.6218 57.5868 67.1435 57.2256 67.6251C56.8645 68.1067 56.423 68.508 55.9013 68.8691C55.3796 69.1902 54.7777 69.3908 54.2159 69.5513C53.654 69.7119 52.9718 69.8323 52.3297 69.7119C51.0857 69.5112 50.0022 68.829 49.1595 68.0264C48.2766 67.2238 47.5944 66.2607 47.0326 65.2173C47.8352 66.06 48.6779 66.8225 49.5608 67.5047C50.4436 68.1869 51.4469 68.7487 52.4501 68.9093C52.9718 68.9895 53.4534 68.9093 54.0152 68.7889C54.577 68.6819 55.0987 68.508 55.5803 68.2672C56.5434 67.8257 57.3059 66.9429 58.1085 66.1001Z" fill="#333333"/>
<path d="M65.2517 49.1254C64.4089 48.8445 63.6866 48.5234 62.9643 48.2827C62.2419 48.0151 61.5196 47.8011 60.7972 47.6406C60.0749 47.48 59.3124 47.3195 58.5499 47.2393C57.7875 47.159 57.025 46.9985 56.1823 47.0787C56.423 46.7176 56.8645 46.4768 57.2658 46.2761C57.6671 46.0889 58.0817 45.9685 58.5098 45.915C59.3927 45.7544 60.3157 45.7946 61.1584 45.9952C62.0413 46.1959 62.884 46.5972 63.5662 47.1189C64.2885 47.6406 64.8905 48.3228 65.2517 49.1254Z" fill="#333333"/>
<path d="M50.6844 46.2761C49.6811 46.4366 48.7582 46.557 47.8753 46.7175C46.9924 46.878 46.1229 47.0921 45.2668 47.3596C44.4375 47.6271 43.6081 47.9348 42.7787 48.2826C41.936 48.6438 41.1334 49.0451 40.2104 49.4865C40.6117 48.5635 41.2939 47.7609 42.0965 47.1188C42.8991 46.5169 43.8221 46.0353 44.7853 45.7544C45.7484 45.4334 46.7918 45.313 47.795 45.3932C48.8384 45.4735 49.8417 45.7544 50.6844 46.2761Z" fill="#333333"/>
<path d="M58.0282 53.5395C57.8276 54.3822 58.1486 55.1848 58.8308 55.3855C59.4729 55.546 60.1953 54.9842 60.3959 54.1415C60.6367 53.2987 60.2755 52.456 59.6334 52.2955C58.9913 52.135 58.269 52.6566 58.0282 53.5395Z" fill="#333333"/>
<path d="M44.6248 52.6967C44.384 53.5395 44.7452 54.3421 45.4274 54.5427C46.0695 54.7032 46.7918 54.1414 46.9924 53.2987C47.2332 52.456 46.8721 51.6132 46.23 51.4527C45.5478 51.2922 44.8655 51.8139 44.6248 52.6967Z" fill="#333333"/>
<path d="M68.3015 49.4864C65.8536 47.841 64.0879 45.353 62.9241 42.6643C61.7202 39.9354 61.0781 37.046 60.3959 34.1968C59.5933 35.7619 58.5098 36.4441 57.1855 37.5677C51.2061 42.6642 42.8991 44.8714 35.1941 43.3866C34.8731 47.6003 32.1844 60.0406 28.6128 62.328C27.9707 62.7293 27.1681 63.1306 26.4056 63.0103C25.4826 62.93 24.7201 62.1675 24.359 61.3248C23.9978 60.4821 23.9978 59.5189 23.9978 58.5959C24.0781 53.3389 25.4826 39.8551 28.0108 35.2803C29.3351 32.9527 30.9805 30.7055 33.2277 29.1805C35.5553 27.6556 38.3243 26.9332 41.0531 26.4517C44.3438 25.8898 47.6746 25.649 50.9653 26.0504C55.7809 26.6523 60.436 28.7792 64.0477 32.0699C64.7299 32.712 65.4122 33.3942 65.8536 34.2369C66.1746 34.8389 66.3753 35.4809 66.5759 36.123C67.8601 40.4972 68.5022 45.0721 68.4621 49.6469C68.5423 49.366 68.2213 49.7673 68.3015 49.4864Z" fill="#333333"/>
<path d="M24.9208 52.6969C24.6801 54.9442 25.4827 57.2717 27.0477 58.917C27.5293 59.4387 28.0911 59.9203 28.7733 60.121C30.2983 60.6025 31.9838 59.6795 32.8265 58.3151C33.6692 56.9507 33.7896 55.2652 33.6692 53.66C33.5488 51.6133 32.8666 49.3259 31.0206 48.4029C28.051 46.878 25.2018 49.8878 24.9208 52.6969Z" fill="#E6B6AA"/>
<g style="mix-blend-mode:multiply">
<path d="M31.0608 58.6765C30.4187 58.3153 29.897 57.7535 29.576 57.1114C29.4957 56.991 29.4556 56.8305 29.4556 56.7101C29.4556 56.4292 29.7365 56.2285 29.9773 56.068C30.4588 55.7737 30.9404 55.4794 31.4219 55.1851C31.5423 55.145 31.6226 55.0648 31.6627 54.9845C31.743 54.8641 31.743 54.7437 31.743 54.6233C31.6627 53.0582 31.5022 51.3326 30.4588 50.1287C30.1779 49.8077 29.8167 49.5669 29.4154 49.4465C28.7734 49.286 28.1313 49.4867 27.6096 49.888C27.0879 50.2491 26.7267 50.7708 26.3655 51.2925C26.3655 51.2925 25.2419 54.3825 26.9675 56.7904C28.6931 59.2383 31.0608 58.6765 31.0608 58.6765Z" fill="#E6B6AA"/>
</g>
<path d="M26.3655 51.2925C26.6866 50.7307 27.0477 50.1688 27.5694 49.7274C28.0911 49.286 28.8536 49.0452 29.5759 49.2458C30.3384 49.4866 30.82 50.0485 31.1811 50.6504C31.5423 51.2524 31.743 51.9346 31.8633 52.5767C31.9837 53.2589 31.9837 53.9411 32.0239 54.5832C32.0239 54.7437 32.064 55.0647 31.8232 55.2654C31.6226 55.4259 31.5022 55.466 31.3417 55.5864C31.0741 55.7469 30.7932 55.9075 30.4989 56.068C30.218 56.2285 29.897 56.3489 29.7364 56.5094C29.6562 56.6298 29.6161 56.7101 29.6161 56.8305C29.6562 56.9508 29.7364 57.0712 29.8167 57.2318C30.0976 57.7936 30.539 58.2751 31.0607 58.6764C30.4588 58.3955 29.9371 57.9541 29.5358 57.3923C29.4555 57.2318 29.3351 57.1114 29.295 56.9107C29.2148 56.7101 29.295 56.4292 29.4154 56.2686C29.6963 55.9476 29.9772 55.8272 30.2581 55.6265C30.5257 55.4393 30.7932 55.2654 31.0607 55.1049C31.1811 55.0246 31.3818 54.9042 31.4219 54.8641C31.4219 54.8239 31.462 54.7838 31.4219 54.6233C31.3818 53.9812 31.3417 53.3391 31.2213 52.697C31.141 52.0951 30.9404 51.4931 30.6594 50.9313C30.3785 50.4096 29.9371 49.9281 29.4555 49.7274C28.9338 49.4866 28.2516 49.6472 27.7299 49.9682C27.2082 50.2892 26.7668 50.8109 26.3655 51.2925Z" fill="#333333"/>
<path d="M31.743 60.1612C31.743 61.1645 30.9404 61.927 29.9772 61.927C28.974 61.927 28.1714 61.1645 28.1714 60.1612C28.1714 59.1981 28.974 58.3955 29.9772 58.3955C30.9404 58.3955 31.743 59.1981 31.743 60.1612Z" fill="white"/>
<path d="M65.8135 94.9541C65.8135 94.9541 72.2744 101.455 76.5282 108.639C80.782 115.862 90.5337 197.647 90.5337 197.647L80.7018 198.049L65.8135 94.9541Z" fill="#E6B6AA"/>
<path d="M88.166 348.537C75.4849 349.981 62.5228 348.858 50.243 345.286C50.6042 350.102 50.8449 353.192 50.8449 353.192H92.4198C92.4198 353.192 92.0185 350.543 88.166 348.537Z" fill="#333333"/>
<path d="M88.166 348.537C87.3233 348.095 86.3601 347.694 85.1562 347.333C78.4545 345.407 61.4393 338.705 61.4393 338.705L75.4046 228.748L44.9056 229.109C44.9056 229.109 50.8449 262.257 50.0022 268.397C49.1594 274.537 45.5477 283.726 46.1095 289.866C46.5108 294.562 49.0792 329.354 50.243 345.286C62.5228 348.858 75.4848 349.981 88.166 348.537Z" fill="#E6B6AA"/>
<path d="M54.4165 348.537C41.7354 349.981 28.7332 348.858 16.4935 345.286C16.8546 350.102 17.0954 353.192 17.0954 353.192H58.6703C58.6703 353.192 58.269 350.543 54.4165 348.537Z" fill="#333333"/>
<path d="M54.4165 348.537C53.5738 348.095 52.5705 347.694 51.4067 347.333C44.705 345.407 27.6898 338.705 27.6898 338.705L41.615 228.748C41.615 228.748 11.116 219.157 11.1963 231.678C11.2766 244.158 17.0954 262.257 16.2527 268.397C15.41 274.537 11.7982 283.727 12.3199 289.866C12.7614 294.562 15.3297 329.355 16.4935 345.286C28.7332 348.858 41.7354 349.981 54.4165 348.537Z" fill="#E6B6AA"/>
<path d="M54.4968 83.9986L52.731 73.3641L38.3644 71.0767C38.3644 71.0767 37.7223 83.9183 36.6388 85.684L53.6139 110.364L54.4968 83.9986Z" fill="#E6B6AA"/>
<path d="M75.1638 143.15C75.6053 133.8 78.4144 130.55 77.3309 121.881C76.2875 113.213 65.8135 94.9541 65.8135 94.9541L54.4968 83.9985L53.6139 110.364L36.6389 85.684C35.5553 87.4096 22.9143 94.3923 16.8145 99.1677C10.7147 103.943 24.8807 143.391 23.9978 150.334C23.115 157.316 13.3232 179.749 11.7983 194.999C10.2733 210.248 11.1562 231.557 11.1562 231.557C11.1562 231.557 29.6562 240.266 53.4133 237.456C77.1302 234.607 88.2463 228.507 88.2463 228.507C88.2463 228.507 74.7224 152.541 75.1638 143.15Z" fill="#317159"/>
<path d="M23.9978 150.334C26.1247 151.176 28.3319 151.819 30.5792 152.34C32.7863 152.902 35.0336 153.303 37.2809 153.584C41.8156 154.186 46.3904 154.307 50.9252 153.905C55.4599 153.584 59.9946 152.782 64.1681 151.016C66.295 150.173 68.3417 149.09 70.1876 147.805C72.0336 146.521 73.7994 144.996 75.1638 143.15C72.6356 147.003 68.6627 149.732 64.449 151.578C63.4056 152.099 62.282 152.461 61.1985 152.822C60.6367 153.022 60.0748 153.143 59.513 153.303C58.9913 153.464 58.4295 153.624 57.8275 153.745C56.7039 153.986 55.5803 154.226 54.4566 154.347L52.731 154.587L51.0054 154.748C46.3904 155.069 41.7755 154.949 37.2006 154.186C32.6659 153.464 28.1713 152.3 23.9978 150.334Z" fill="#004E64"/>
<path d="M32.8264 86.1656C34.8731 88.7741 36.7993 91.5029 38.7256 94.1515L44.5043 102.218L50.2028 110.324L55.8612 118.43L55.0987 118.631C55.4599 112.732 55.7809 106.793 56.1822 100.893C56.5835 94.9541 56.9848 89.055 57.4664 83.1157C57.3059 89.055 57.0651 94.9943 56.7842 100.934C56.5434 106.833 56.2223 112.772 55.9414 118.671L55.8612 119.875L55.179 118.912L43.9425 102.579L38.4045 94.3923C36.5586 91.6635 34.7126 88.8945 32.8264 86.1656Z" fill="#004E64"/>
<path d="M40.2505 74.6079C41.4545 75.4506 42.6985 76.2934 43.9827 76.9355C44.6247 77.2565 45.2668 77.4973 45.9892 77.6979C46.6714 77.8986 47.3937 78.0591 48.0759 78.1795C48.7983 78.3133 49.5072 78.3668 50.2028 78.34C50.9252 78.34 51.6475 78.2598 52.3297 78.0992C53.7343 77.7782 55.0586 77.096 56.3428 76.3736C55.2592 77.3769 53.9751 78.2598 52.4903 78.7012C51.0456 79.2229 49.4404 79.263 47.9555 78.9821C47.1931 78.8617 46.4707 78.6611 45.7484 78.4203C45.0662 78.1795 44.3037 77.8986 43.6616 77.4973C42.3373 76.7348 41.2538 75.6914 40.2505 74.6079Z" fill="#004E64"/>
<g opacity="0.2">
<path d="M60.4361 26.0503C58.7907 28.7791 56.6638 31.2271 54.0955 33.1935C51.5272 35.1598 48.5575 36.6045 45.4274 37.367C42.2571 38.0492 38.9263 38.0091 35.7961 37.2065C32.666 36.4039 29.7365 34.7987 27.5293 32.4711C29.8568 34.6783 32.7864 36.1631 35.8764 36.8854C38.9664 37.6479 42.2169 37.688 45.307 36.9657C48.4371 36.2835 51.3265 34.8388 53.8948 32.9527C56.4632 31.0666 58.6703 28.6989 60.4361 26.0503Z" fill="white"/>
<path d="M56.0619 23.8032C54.577 25.2479 52.8113 26.4117 50.9252 27.2946C48.9989 28.1373 46.9523 28.659 44.8655 28.8998C42.7788 29.1004 40.692 28.9399 38.6454 28.4583C36.5987 28.0169 34.6725 27.1742 32.9067 26.0906C34.7527 27.0538 36.7191 27.736 38.7256 28.1774C40.7321 28.5787 42.7788 28.6991 44.8254 28.4985C46.872 28.2978 48.8786 27.7761 50.7647 26.9735C52.6909 26.211 54.4566 25.1275 56.0619 23.8032Z" fill="white"/>
<path d="M63.0044 28.0571C63.3254 31.1472 63.7669 34.2372 64.8504 37.1667C65.8536 40.0561 67.499 42.7849 69.8265 44.8717C68.5825 43.9487 67.499 42.7849 66.576 41.5007C65.6931 40.2166 65.0109 38.7719 64.4491 37.2871C63.4057 34.3174 63.0044 31.1873 63.0044 28.0571Z" fill="white"/>
<path d="M67.0976 52.6567C67.0174 54.9442 66.9371 57.2717 67.0174 59.5591C67.0575 61.8466 67.218 64.134 67.6595 66.3813C68.0608 68.6286 68.743 70.8357 69.6259 72.9225C70.5488 75.0494 71.5922 77.0559 72.6356 79.1025C73.679 81.1492 74.7224 83.2359 75.5651 85.403C76.3677 87.5299 76.9697 89.7772 77.2506 92.1047C77.5315 94.3921 77.5315 96.7197 77.2105 99.0071C76.8894 101.254 76.2875 103.622 74.6421 105.308C76.2473 103.582 76.769 101.214 77.0098 98.967C77.2907 96.6796 77.2506 94.3921 76.9295 92.1448C76.6085 89.8574 76.0467 87.6503 75.204 85.5234C74.3612 83.3965 73.3178 81.3498 72.2744 79.3032C70.1877 75.2099 68.0608 71.0364 67.3384 66.4615C66.5358 61.8867 66.8167 57.2316 67.0976 52.6567Z" fill="white"/>
<path d="M63.1248 68.8291C62.8037 71.1567 63.3656 73.4842 64.1682 75.6512C64.9708 77.8183 65.974 79.905 66.8168 82.1122C67.6194 84.3194 68.1411 86.6469 68.2614 89.0146C68.3818 91.3421 68.1411 93.7098 67.499 95.9571C67.9805 93.6697 68.1009 91.3421 67.9404 89.0146C67.7799 86.7272 67.2582 84.4397 66.4155 82.2727C65.653 80.0655 64.6096 77.9788 63.8873 75.7315C63.5261 74.6078 63.205 73.4842 63.0445 72.3204C62.884 71.1567 62.884 69.9527 63.1248 68.8291Z" fill="white"/>
<path d="M22.7538 59.6396C22.4328 61.3251 21.9111 63.0106 21.269 64.6158C20.5868 66.2611 19.8243 67.8262 19.0217 69.3512C17.4165 72.4412 15.6508 75.4911 14.487 78.7416C13.243 81.952 12.7213 85.4835 13.3633 88.8946C14.0054 92.3056 15.6508 95.516 18.1388 97.964C15.5705 95.6364 13.7646 92.3859 13.0824 88.9748C12.32 85.4835 12.8818 81.8718 14.0857 78.5811C15.3297 75.2904 17.0955 72.2807 18.7408 69.2308C20.3861 66.1809 21.9512 63.0106 22.7538 59.6396Z" fill="white"/>
<path d="M28.6931 65.6592C28.2115 68.0269 27.3287 70.3143 26.3655 72.5214C25.4024 74.7286 24.3992 76.8956 23.7972 79.1831C23.115 81.5106 22.9946 83.9184 23.3156 86.2861C23.6367 88.6136 24.4393 90.9412 25.6432 92.9878C24.2788 91.0215 23.3558 88.734 22.9946 86.3262C22.5933 83.9184 22.7538 81.4303 23.3959 79.1028C24.038 76.7351 25.0814 74.5681 26.0846 72.3609C27.0879 70.1939 28.0911 68.0269 28.6931 65.6592Z" fill="white"/>
</g>
<path d="M222.401 121.56C222.401 121.56 219.753 117.868 216.462 116.223C210.001 112.932 200.571 110.404 199.688 109.2C198.323 107.394 196.758 104.826 195.635 104.705C194.511 104.585 193.829 105.869 193.829 105.869C193.829 105.869 192.826 104.545 191.903 104.906C190.98 105.267 190.779 105.989 190.779 105.989C190.779 105.989 189.455 104.745 188.211 105.387C187.007 106.03 189.374 108.959 189.374 108.959L196.678 118.59L218.308 125.653L222.401 121.56Z" fill="#E6B6AA"/>
<path d="M190.779 105.99C191.956 107.327 193.106 108.678 194.23 110.043C195.354 111.407 196.437 112.772 197.561 114.176L197.441 114.096C198.725 114.417 200.009 114.859 201.333 115.22C202.617 115.621 203.901 116.062 205.146 116.544C203.821 116.263 202.497 115.942 201.213 115.621C199.888 115.26 198.564 114.939 197.28 114.537L197.2 114.497L197.16 114.457C196.076 113.053 194.993 111.688 193.949 110.244C192.879 108.852 191.822 107.434 190.779 105.99Z" fill="#004748"/>
<path d="M193.829 105.869C194.738 106.806 195.621 107.755 196.477 108.718C197.32 109.641 198.163 110.645 199.006 111.608L198.885 111.528C200.169 111.889 201.454 112.37 202.738 112.772C204.022 113.213 205.266 113.654 206.51 114.136C205.186 113.855 203.901 113.534 202.617 113.173C201.333 112.772 200.009 112.45 198.765 112.009L198.685 111.969L198.644 111.929C197.842 110.926 196.999 109.962 196.196 108.919C195.394 107.929 194.605 106.913 193.829 105.869Z" fill="#004748"/>
<path d="M218.83 124.289L214.095 129.225C214.095 129.225 207.754 124.771 205.226 124.289C202.738 123.807 196.076 122.604 192.986 119.473C189.936 116.303 184.278 106.672 186.284 105.909C188.331 105.147 194.23 114.377 196.156 115.621C198.083 116.825 200.611 116.945 203.3 117.226C205.948 117.547 208.557 117.828 212.008 119.393C215.419 120.958 218.83 124.289 218.83 124.289Z" fill="#E6B6AA"/>
<path d="M220.957 120.316C220.957 120.316 218.99 114.537 215.138 111.327C211.245 108.116 206.51 102.819 205.105 103.421C203.701 103.983 204.142 106.551 206.309 108.678C208.476 110.805 209.078 111.247 209.319 111.728C209.52 112.21 210.683 115.099 210.683 115.099" fill="#E6B6AA"/>
<path d="M187.93 106.551C188.973 107.916 189.99 109.294 190.98 110.685C192.023 112.049 192.986 113.454 193.989 114.858L193.869 114.778C195.595 115.42 197.28 116.142 198.965 116.784C200.651 117.507 202.336 118.189 204.022 118.992C202.256 118.43 200.531 117.828 198.805 117.186C197.119 116.544 195.394 115.942 193.708 115.219L193.628 115.179L193.588 115.139C192.625 113.735 191.662 112.33 190.699 110.885C189.762 109.467 188.839 108.023 187.93 106.551Z" fill="#004748"/>
<path d="M308.039 336.297V353.192H353.186C355.794 353.192 357.6 350.623 356.757 348.175C356.276 346.771 355.232 345.607 353.868 345.005L329.188 333.528L308.039 336.297Z" fill="#333333"/>
<path d="M356.637 350.944C352.584 351.105 348.531 351.185 344.478 351.265C340.425 351.305 336.371 351.305 332.358 351.345C328.305 351.305 324.252 351.305 320.199 351.265C316.146 351.185 312.093 351.105 308.04 350.944C312.093 350.784 316.146 350.703 320.199 350.663C324.252 350.583 328.305 350.623 332.358 350.583C336.371 350.623 340.425 350.583 344.478 350.663C348.531 350.744 352.584 350.784 356.637 350.944Z" fill="white"/>
<path d="M335.569 341.513C336.331 340.229 337.535 339.306 338.86 338.664C340.184 338.062 341.709 337.781 343.154 338.022C341.749 338.383 340.425 338.785 339.181 339.346C337.897 339.948 336.773 340.671 335.569 341.513Z" fill="white"/>
<path d="M338.458 343.079C339.181 341.915 340.224 341.072 341.388 340.39C342.552 339.788 343.876 339.347 345.2 339.307C344.036 339.909 342.873 340.47 341.749 341.072C340.665 341.674 339.582 342.357 338.458 343.079Z" fill="white"/>
<path d="M342.03 343.6C342.872 342.637 343.956 341.915 345.08 341.353C346.243 340.831 347.487 340.47 348.812 340.43C347.648 341.032 346.524 341.514 345.401 342.035C344.277 342.557 343.193 343.119 342.03 343.6Z" fill="white"/>
<path d="M288.817 34.4775C286.249 43.1858 285.245 52.3354 285.807 61.3647C286.008 64.5751 286.409 67.8257 287.693 70.7953C288.977 73.7248 291.265 76.3734 294.275 77.4971C297.766 78.7812 301.779 77.8582 305.15 76.2932C313.216 72.5611 319.316 65.2172 322.607 56.9504C323.53 54.5426 324.292 52.0144 324.412 49.4059C324.693 42.9851 320.961 36.7248 315.664 33.1131C308.16 27.9764 297.565 27.9764 290.061 33.0328" fill="#E6B6AA"/>
<path d="M286.249 46.7574C286.249 46.7574 286.77 42.303 287.573 39.2129C292.91 40.2964 298.729 39.0524 302.903 35.4808C305.391 41.5405 311.129 45.9147 317.35 46.9982C315.343 52.8572 316.306 59.7596 319.797 64.8963C322.847 61.6858 325.897 58.1544 327.703 54.021C329.509 49.9277 330.312 45.2325 329.308 40.8583C328.425 36.9255 326.178 33.4342 323.329 30.7455C320.48 28.0567 317.028 26.1305 313.457 24.6457C306.555 21.7964 298.89 20.6326 291.746 22.599C289.74 23.1207 287.774 23.9233 286.168 25.2075C283.239 27.5752 281.834 31.4678 281.634 35.3203C281.353 41.3398 286.249 46.7574 286.249 46.7574Z" fill="#333333"/>
<path d="M326.86 58.355C326.459 60.8431 324.934 63.1305 322.807 64.495C322.125 64.9364 321.363 65.2574 320.56 65.2976C318.794 65.4179 317.189 63.893 316.667 62.2075C316.146 60.4819 316.507 58.5958 317.069 56.9103C317.831 54.7032 319.196 52.4158 321.483 51.9342C325.135 51.1316 327.382 55.2249 326.86 58.355Z" fill="#E6B6AA"/>
<g style="mix-blend-mode:multiply">
<path d="M318.513 63.0905C319.276 62.8498 319.998 62.4083 320.56 61.8064C320.68 61.686 320.801 61.5656 320.801 61.4051C320.881 61.084 320.64 60.8031 320.4 60.5623C319.971 60.1075 319.53 59.6527 319.075 59.1979C318.995 59.1177 318.915 59.0374 318.875 58.917C318.834 58.7565 318.875 58.6361 318.915 58.4756C319.477 56.7901 320.119 54.9842 321.603 53.981C322.005 53.7402 322.446 53.5396 322.928 53.5396C323.65 53.5396 324.292 53.981 324.734 54.5027C325.175 55.0645 325.456 55.7467 325.697 56.4289C325.697 56.4289 326.018 60.0808 323.449 62.2077C320.881 64.3747 318.513 63.0905 318.513 63.0905Z" fill="#E6B6AA"/>
</g>
<path d="M325.697 56.4288C325.376 55.7466 325.055 55.0644 324.573 54.5828C324.092 54.0611 323.449 53.7401 322.807 53.8203C322.205 53.9006 321.603 54.3019 321.122 54.8236C320.68 55.3052 320.319 55.9071 319.998 56.5492C319.717 57.1913 319.477 57.8735 319.236 58.5557C319.196 58.7564 319.196 58.7965 319.196 58.8366C319.236 58.9169 319.396 59.0774 319.517 59.1978L320.239 60.0004C320.48 60.2813 320.761 60.5221 320.961 60.9635C321.082 61.1642 321.042 61.4852 320.921 61.6457C320.801 61.8464 320.64 61.9668 320.52 62.1273C319.918 62.6089 319.236 62.97 318.513 63.0904C319.196 62.8095 319.798 62.4082 320.279 61.8464C320.4 61.726 320.52 61.6056 320.56 61.4852C320.64 61.3648 320.6 61.2444 320.56 61.124C320.44 60.8833 320.119 60.6425 319.838 60.4017L319.075 59.6392C318.915 59.4787 318.794 59.3984 318.634 59.1577C318.554 59.0373 318.513 58.8366 318.554 58.7162C318.554 58.5557 318.594 58.4353 318.594 58.3551C318.834 57.6728 319.075 56.9505 319.356 56.2683C319.677 55.5861 320.079 54.9039 320.64 54.342C321.202 53.8203 321.924 53.3388 322.767 53.2585C323.65 53.2184 324.372 53.7401 324.854 54.342C325.295 54.9841 325.536 55.7065 325.697 56.4288Z" fill="#004E64"/>
<path d="M298.087 48.3223C297.886 51.1314 297.124 53.8602 296 56.3884C295.438 57.6726 294.796 58.9166 294.034 60.0804L293.713 60.5218C293.673 60.6021 293.673 60.6422 293.673 60.6422C293.673 60.6422 293.633 60.6021 293.633 60.6422C293.713 60.7225 293.873 60.8429 293.994 60.9232L294.435 61.2041C294.997 61.5652 295.639 61.8461 296.281 62.0869C295.599 62.0468 294.917 61.8461 294.235 61.5652C294.074 61.5117 293.913 61.4448 293.753 61.3646C293.592 61.2442 293.472 61.2041 293.271 61.0435C293.151 60.9633 293.031 60.7626 293.071 60.562C293.111 60.4015 293.151 60.3212 293.191 60.2409L293.432 59.7594C294.074 58.5555 294.676 57.3248 295.238 56.0674C296.321 53.5793 297.244 50.9709 298.087 48.3223Z" fill="#004E64"/>
<path d="M290.743 63.4116C291.425 64.4149 292.148 65.2977 293.031 66.0201C293.873 66.7424 294.877 67.2641 295.96 67.4246C297.044 67.6253 298.127 67.4648 299.09 66.9029C300.013 66.3411 300.856 65.4181 301.819 64.7359C301.057 65.6589 300.455 66.6622 299.451 67.4246C298.448 68.2272 297.044 68.468 295.84 68.2674C294.556 68.0667 293.432 67.3845 292.549 66.5016C291.706 65.6188 291.104 64.5353 290.743 63.4116Z" fill="#004E64"/>
<path d="M287.132 45.3529C287.653 44.6305 288.376 44.1088 289.178 43.7075C289.981 43.3464 290.864 43.1457 291.747 43.1056C292.629 43.0655 293.552 43.1859 294.395 43.5069C294.796 43.6942 295.184 43.9082 295.559 44.149C295.92 44.3898 296.281 44.7108 296.442 45.1522C295.639 44.9115 294.837 44.8713 294.074 44.8312C293.312 44.7509 292.549 44.7509 291.827 44.7911C291.078 44.8178 290.329 44.8847 289.579 44.9917C288.817 45.072 288.014 45.2325 287.132 45.3529Z" fill="#004E64"/>
<path d="M301.98 45.4733C302.943 45.1122 303.986 45.0319 304.989 45.1523C305.993 45.2727 306.956 45.5937 307.879 46.1154C308.762 46.597 309.564 47.239 310.247 48.0015C310.889 48.764 311.41 49.687 311.611 50.6501C310.808 50.0482 310.086 49.4863 309.323 48.9646C308.601 48.4563 307.852 48.0015 307.076 47.6002C306.3 47.1722 305.498 46.7842 304.668 46.4364C303.826 46.0753 302.943 45.7944 301.98 45.4733Z" fill="#004E64"/>
<path d="M293.352 51.0916C293.392 51.9744 292.87 52.7369 292.228 52.777C291.546 52.777 290.944 52.135 290.904 51.2521C290.823 50.3692 291.345 49.6068 292.027 49.5666C292.71 49.5265 293.312 50.2087 293.352 51.0916Z" fill="#004E64"/>
<path d="M306.635 52.9373C306.715 53.8201 306.193 54.5425 305.511 54.5826C304.829 54.6227 304.227 53.9405 304.187 53.0577C304.147 52.1748 304.668 51.4525 305.351 51.4123C305.993 51.3722 306.595 52.0544 306.635 52.9373Z" fill="#004E64"/>
<path d="M317.309 83.3559C315.504 79.383 315.985 62.6086 315.865 62.0869L299.893 69.5511C299.893 69.5511 299.09 80.1455 298.488 81.7908L303.585 90.459L317.309 83.3559Z" fill="#E6B6AA"/>
<path d="M346.123 98.0839C344.397 96.0774 319.717 86.6869 317.59 83.8377C317.483 83.7039 317.39 83.5434 317.309 83.3561L303.585 90.4591L298.488 81.791C297.846 83.3962 273.006 89.0947 270.758 91.342C268.511 93.5893 244.794 135.967 244.794 135.967L220.716 118.992L210.322 128.583L246.48 159.884L264.819 138.254L233.237 334.812C233.237 334.812 240.179 340.109 247.924 341.554C255.669 342.958 266.665 339.306 266.665 339.306L291.345 198.008L303.184 336.417C303.184 336.417 308.681 340.912 318.674 340.711C328.666 340.51 335.167 334.411 335.167 334.411L326.258 198.57L333.081 196.363L332.519 202.262C332.519 202.262 336.211 205.272 340.344 205.994C344.478 206.676 349.895 205.994 349.895 205.994L357.56 151.618C357.56 151.618 347.808 100.09 346.123 98.0839Z" fill="#317159"/>
<path d="M317.309 83.3561L303.585 90.4591L298.488 81.791C298.488 81.791 289.018 114.457 285.647 130.87C282.236 147.324 280.149 166.064 280.149 166.064C280.149 166.064 283.48 167.549 288.496 167.91C294.435 168.312 299.451 166.867 299.451 166.867C299.451 166.867 304.387 129.586 307.277 116.022C310.126 102.458 317.309 83.3561 317.309 83.3561Z" fill="white"/>
<path d="M340.023 99.2075C337.455 100.853 335.729 103.461 334.445 106.15C333.241 108.879 332.318 111.768 331.556 114.698C330.833 117.587 330.352 120.557 330.111 123.567C329.87 126.576 329.87 129.586 330.111 132.556V132.516L334.525 145.518L338.859 158.52V158.56V158.6L336.01 177.461C335.087 183.762 334.084 190.062 333.081 196.363C333.964 190.062 334.846 183.722 335.769 177.421L338.498 158.56L338.538 158.64L334.124 145.638L329.79 132.636V132.596C329.549 129.586 329.549 126.576 329.83 123.567C330.071 120.557 330.593 117.547 331.315 114.618C332.077 111.688 333.041 108.839 334.325 106.11C335.649 103.381 337.415 100.813 340.023 99.2075Z" fill="white"/>
<path d="M299.451 166.867C299.211 171.255 298.957 175.629 298.689 179.99L297.806 193.152L297.686 192.952C302.06 195.199 306.755 196.885 311.571 197.968C313.979 198.53 316.427 198.851 318.875 199.011C321.363 199.132 323.811 198.971 326.258 198.57C323.851 199.011 321.363 199.292 318.875 199.212C316.386 199.092 313.938 198.811 311.491 198.289C309.083 197.767 306.675 197.085 304.347 196.242C302.02 195.4 299.732 194.477 297.525 193.313L297.405 193.233V193.112L298.368 179.99C298.716 175.602 299.077 171.228 299.451 166.867Z" fill="white"/>
<path d="M264.819 138.254C265.087 134.964 265.381 131.673 265.702 128.382L266.705 118.47L267.789 108.638C268.163 105.347 268.551 102.057 268.952 98.7661C268.685 102.057 268.404 105.347 268.11 108.638L267.107 118.51L266.023 128.382C265.648 131.673 265.247 134.964 264.819 138.254Z" fill="white"/>
<path d="M313.457 94.0708C314.661 97.4016 315.865 100.692 316.989 103.983L316.868 103.943L327.422 100.612L327.904 100.451L327.623 100.853L321.884 109.039L316.106 117.146L310.287 125.252C308.361 127.941 306.394 130.629 304.428 133.318C306.354 130.589 308.2 127.82 310.126 125.091L315.825 116.945L321.563 108.799L327.342 100.692L327.543 100.933L316.948 104.143L316.828 104.184L316.788 104.063C315.664 100.773 314.581 97.4016 313.457 94.0708Z" fill="white"/>
<path d="M294.796 94.2316L288.335 99.7695L288.255 99.8498L288.175 99.7695L281.112 93.2685L281.433 93.1079C282.182 99.2345 282.904 105.361 283.6 111.488L284.643 120.677L285.607 129.867L284.403 120.718L283.239 111.528C282.49 105.401 281.767 99.2746 281.072 93.1481L280.992 92.6665L281.353 93.0277L288.335 99.609H288.175L294.796 94.2316Z" fill="white"/>
<path d="M293.994 83.3159C292.63 84.7205 291.265 86.0849 289.861 87.4092C288.416 88.7736 287.011 90.0979 285.567 91.4222L285.647 91.2216C286.57 94.0307 287.453 96.8398 288.255 99.689C287.172 96.9201 286.209 94.1511 285.246 91.342L285.205 91.2216L285.326 91.1413C286.73 89.7769 288.175 88.4927 289.62 87.1684C291.064 85.8843 292.509 84.6001 293.994 83.3159Z" fill="white"/>
<path d="M320.801 85.9644C321.898 87.8906 322.981 89.8169 324.051 91.7431L327.182 97.562L327.302 97.7225L327.141 97.8429C325.416 98.8863 323.73 99.9297 322.045 100.973C320.333 102.016 318.62 103.033 316.908 104.023C318.54 102.899 320.199 101.802 321.884 100.732C323.53 99.6086 325.215 98.5652 326.901 97.4817L326.861 97.7626L323.771 91.9036C322.754 89.9239 321.764 87.9441 320.801 85.9644Z" fill="white"/>
<path d="M280.149 166.064C279.774 170.104 279.373 174.131 278.945 178.144L277.621 190.183V190.303L277.54 190.343C275.935 191.387 274.25 192.269 272.484 192.992C270.718 193.714 268.872 194.236 267.026 194.597C265.14 194.958 263.254 195.159 261.328 195.038C260.405 194.958 259.442 194.838 258.519 194.557C257.636 194.276 256.713 193.915 256.031 193.233C256.753 193.875 257.676 194.196 258.559 194.477C259.482 194.717 260.405 194.798 261.328 194.838C263.214 194.918 265.1 194.677 266.946 194.316C268.792 193.915 270.598 193.353 272.323 192.631C274.049 191.908 275.735 191.066 277.3 190.022L277.219 190.143L278.624 178.104C279.105 174.09 279.614 170.077 280.149 166.064Z" fill="white"/>
<path d="M293.151 97.7225L303.585 90.459L312.333 100.813" stroke="#004E64" stroke-width="0.842734" stroke-miterlimit="10"/>
<path d="M298.93 93.7898L299.853 99.7692L284.684 151.778L289.66 161.891L298.007 153.223L302.943 100.291L307.197 94.9536L303.585 90.459L298.93 93.7898Z" fill="#333333"/>
<path d="M298.93 98.8867C300.535 99.8097 302.341 100.291 304.187 100.251" stroke="white" stroke-width="0.842734" stroke-miterlimit="10"/>
<path d="M298.448 78.0587C299.652 77.8982 300.776 77.537 301.899 77.1759C303.023 76.7478 304.107 76.2663 305.15 75.7312C306.193 75.1694 307.197 74.5674 308.2 73.9253C309.203 73.2431 310.126 72.5208 311.089 71.7583C310.367 72.7214 309.524 73.6444 308.601 74.4069C307.638 75.2095 306.635 75.8917 305.511 76.4535C304.428 77.0154 303.304 77.4969 302.1 77.7778C300.896 78.0587 299.652 78.2193 298.448 78.0587Z" fill="#004E64"/>
<path d="M303.184 336.417C304.347 337.22 305.712 337.661 307.036 338.022C308.401 338.384 309.765 338.624 311.17 338.785C313.938 339.066 316.748 339.106 319.517 338.945C322.326 338.825 325.135 338.544 327.864 337.982C329.228 337.701 330.552 337.34 331.837 336.818C332.479 336.538 333.121 336.257 333.723 335.855C334.285 335.454 334.846 335.013 335.167 334.411C334.927 335.053 334.405 335.574 333.843 336.016C333.281 336.457 332.639 336.859 332.037 337.18C330.753 337.782 329.389 338.263 327.984 338.584C325.215 339.307 322.406 339.628 319.557 339.788C316.748 339.908 313.898 339.868 311.049 339.387C309.685 339.146 308.28 338.865 306.916 338.424C306.233 338.183 305.591 337.902 304.949 337.581C304.307 337.26 303.705 336.899 303.184 336.417Z" fill="white"/>
<path d="M264.859 336.297V353.192H219.713C217.144 353.192 215.339 350.623 216.181 348.175C216.663 346.771 217.706 345.607 219.071 345.005L243.751 333.528L264.859 336.297Z" fill="#333333"/>
<path d="M216.302 350.944C220.355 350.784 224.408 350.744 228.461 350.663C232.474 350.583 236.527 350.623 240.58 350.583C244.634 350.623 248.687 350.583 252.74 350.663C256.793 350.703 260.806 350.784 264.859 350.944C260.806 351.105 256.793 351.185 252.74 351.265C248.687 351.305 244.634 351.305 240.58 351.345C236.527 351.305 232.474 351.305 228.461 351.265C224.408 351.185 220.355 351.105 216.302 350.944Z" fill="white"/>
<path d="M237.37 341.514C236.166 340.671 235.002 339.949 233.758 339.347C232.514 338.785 231.19 338.384 229.785 338.023C231.23 337.782 232.715 338.063 234.079 338.665C235.404 339.307 236.608 340.23 237.37 341.514Z" fill="white"/>
<path d="M234.481 343.079C233.317 342.357 232.274 341.674 231.15 341.072C230.066 340.47 228.903 339.909 227.699 339.307C229.063 339.347 230.347 339.788 231.511 340.39C232.675 341.072 233.758 341.915 234.481 343.079Z" fill="white"/>
<path d="M230.909 343.6C229.705 343.119 228.622 342.557 227.498 342.035C226.374 341.514 225.251 341.032 224.127 340.43C225.411 340.47 226.655 340.831 227.819 341.353C228.983 341.915 230.066 342.637 230.909 343.6Z" fill="white"/>
<path d="M233.237 334.812C234.441 335.615 235.698 336.31 237.009 336.899C238.293 337.501 239.658 337.982 241.022 338.424C243.751 339.226 246.56 339.748 249.409 339.868C250.854 339.949 252.298 339.949 253.743 339.949C255.188 339.949 256.592 339.909 258.037 339.868C259.482 339.842 260.926 339.788 262.371 339.708C263.816 339.628 265.261 339.507 266.665 339.307C263.856 340.029 260.967 340.31 258.077 340.511C255.188 340.711 252.299 340.832 249.369 340.711C246.48 340.551 243.55 339.989 240.821 339.026C238.092 338.022 235.444 336.698 233.237 334.812Z" fill="white"/>
<path d="M335.288 203.987C333.201 208.723 331.957 213.137 328.626 217.07C327.021 218.996 325.335 220.962 324.453 223.29C324.292 223.731 324.132 224.213 324.292 224.654C324.412 225.136 325.215 225.617 325.536 225.296C328.747 222.247 331.837 218.755 334.244 215.023C332.8 217.351 332.358 220.441 330.392 222.287C328.385 224.093 326.62 226.139 325.175 228.427C325.014 228.708 324.814 229.029 324.814 229.39C324.814 229.751 325.215 230.353 325.536 230.232C328.827 228.828 331.596 226.46 333.883 223.772C336.171 221.083 338.217 218.113 340.023 215.103C338.418 218.073 337.575 221.685 335.809 224.574C335.127 225.658 334.325 226.701 333.642 227.785C333 228.908 332.479 230.152 332.519 231.476C332.519 231.757 332.519 232.078 332.719 232.319C332.88 232.56 333.281 232.801 333.482 232.6C337.655 228.106 341.227 222.808 343.434 217.07C342.23 220.842 341.026 224.654 339.461 228.306C339.14 229.029 338.859 229.992 339.461 230.594C340.224 229.952 340.866 229.189 341.428 228.386C345.922 222.086 346.364 214.06 346.725 206.235C346.725 206.235 343.274 206.275 340.144 205.673C337.254 205.111 335.288 203.987 335.288 203.987Z" fill="#E6B6AA"/>
<path d="M167.022 86.9279C170.072 78.0993 169.269 68.2674 165.898 59.5993C162.527 50.891 156.668 43.3465 149.886 36.9658C143.465 30.9062 135.921 25.609 131.707 17.8237C132.991 30.7457 137.486 44.1491 143.947 55.3856C145.994 58.9572 148.281 62.3683 151.01 65.4181C154.1 68.7891 157.712 71.5982 160.762 74.9691C163.852 78.3401 166.621 82.3932 167.022 86.9279Z" fill="#D0E9D6"/>
<path d="M134.717 25.8496C136.001 28.5785 137.486 31.1869 139.212 33.675C140.897 36.1229 142.823 38.4505 144.95 40.5373C149.164 44.7911 154.06 48.3626 158.193 52.8171C160.28 55.0644 162.086 57.5926 163.41 60.3214C164.775 63.0503 165.778 65.8995 166.5 68.8692C167.142 71.8388 167.664 74.8084 167.865 77.8182C168.025 80.8681 167.905 83.918 167.222 86.8475C167.744 83.8779 167.744 80.828 167.463 77.8583C167.182 74.8887 166.621 71.9191 165.858 69.0297C165.096 66.1403 164.132 63.2911 162.768 60.6425C161.404 57.9939 159.638 55.5861 157.591 53.3789C153.578 48.9646 148.682 45.393 144.469 40.9787C140.295 36.6045 136.964 31.4277 134.717 25.8496Z" fill="#004E64"/>
<path d="M169.831 45.393C171.797 39.6544 171.276 33.2737 169.069 27.6153C166.901 21.957 163.089 17.0611 158.675 12.9277C154.501 8.95478 149.605 5.54371 146.876 0.487305C147.719 8.87452 150.609 17.5828 154.822 24.8865C156.147 27.214 157.631 29.4212 159.437 31.3876C161.404 33.5947 163.771 35.4407 165.778 37.6077C167.784 39.8149 169.55 42.4234 169.831 45.393Z" fill="#D0E9D6"/>
<path d="M148.843 5.66406C149.645 7.46992 150.609 9.15539 151.732 10.7606C152.856 12.3658 154.1 13.8908 155.464 15.2552C158.193 18.0242 161.404 20.3517 164.092 23.2411C165.417 24.6858 166.621 26.3311 167.503 28.0968C168.386 29.8626 169.028 31.7487 169.47 33.6749C170.353 37.4873 170.834 41.5003 169.951 45.3528C170.313 43.4266 170.313 41.4602 170.112 39.4938C169.911 37.5676 169.55 35.6413 169.069 33.7552C168.587 31.8691 167.945 30.0231 167.062 28.2975C166.179 26.5719 165.015 25.0068 163.691 23.6023C161.083 20.7129 157.872 18.3853 155.183 15.5361C153.819 14.0914 152.575 12.5665 151.532 10.9211C150.448 9.23565 149.565 7.51005 148.843 5.66406Z" fill="#004E64"/>
<path d="M168.707 104.826C166.059 95.8769 167.303 86.045 171.075 77.5374C174.847 69.0298 181.027 61.7663 188.09 55.7066C194.832 49.9278 202.577 44.9918 207.152 37.4072C205.266 50.2489 200.169 63.4517 193.187 74.3671C191.02 77.8183 188.572 81.1491 185.682 84.0385C182.472 87.2891 178.74 89.9376 175.489 93.1481C172.239 96.3585 169.309 100.291 168.707 104.826Z" fill="#D0E9D6"/>
<path d="M203.781 45.2729C201.293 50.7708 197.721 55.7871 193.307 59.9606C188.933 64.1743 183.877 67.5051 179.663 71.7589C177.536 73.8456 175.65 76.1732 174.165 78.7415C172.68 81.35 171.597 84.119 170.674 86.9682C169.791 89.8576 169.109 92.7871 168.707 95.7567C168.226 98.7264 168.145 101.736 168.507 104.746C167.945 101.776 167.985 98.6862 168.306 95.7166C168.627 92.7068 169.269 89.7372 170.072 86.8077C170.874 83.8782 172.038 81.0691 173.523 78.3804C175.008 75.7318 176.894 73.2838 179.061 71.1569C183.435 66.9031 188.491 63.5723 192.906 59.5192C195.113 57.5127 197.119 55.2654 198.925 52.8977C200.771 50.4899 202.377 47.9617 203.781 45.2729Z" fill="#004E64"/>
<path d="M170.433 63.5719C167.985 56.4689 168.627 48.5231 171.356 41.5404C174.085 34.5176 178.78 28.4178 184.278 23.2812C189.455 18.3853 195.554 14.1315 198.925 7.83105C197.882 18.2649 194.27 29.0599 189.053 38.1294C187.408 41.0187 185.602 43.7877 183.355 46.2357C180.907 48.9244 177.977 51.2519 175.489 53.9407C173.001 56.6294 170.794 59.92 170.433 63.5719Z" fill="#D0E9D6"/>
<path d="M196.518 14.292C194.712 18.8267 192.023 23.0002 188.612 26.5317C185.241 30.0632 181.308 32.9525 178.058 36.5241C176.412 38.2899 174.968 40.2562 173.884 42.3831C172.801 44.51 171.998 46.7974 171.396 49.125C170.794 51.4927 170.353 53.8604 170.112 56.2682C169.871 58.676 169.871 61.1239 170.272 63.5317C169.189 58.7562 169.831 53.74 170.874 49.0046C171.436 46.6369 172.239 44.3094 173.362 42.1022C174.446 39.8951 175.891 37.8885 177.576 36.0827C180.907 32.471 184.84 29.6217 188.251 26.1705C191.662 22.7595 194.471 18.7063 196.518 14.292Z" fill="#004E64"/>
<path d="M167.463 2.81494C169.229 11.2423 170.433 19.79 171.115 28.3779C171.516 32.6718 171.677 36.9657 171.797 41.2597C171.837 45.5937 171.757 49.8877 171.597 54.2217C171.356 58.5156 170.955 62.8096 170.553 67.1035L169.189 79.905C168.386 88.4126 167.905 96.9202 168.667 105.508C166.861 97.0808 166.821 88.3324 167.263 79.7445C167.463 75.4506 167.865 71.1567 168.186 66.9029C168.547 62.6089 168.908 58.3551 169.109 54.1013C169.349 49.8475 169.43 45.5536 169.43 41.2998C169.47 37.0059 169.349 32.7521 169.229 28.4581C168.868 19.9104 168.226 11.4028 167.463 2.81494Z" fill="#004E64"/>
<path d="M258.278 147.524C253.462 137.893 247.122 129.145 239.537 121.64C221.599 103.742 196.798 92.6665 169.43 92.6665C156.548 92.6665 144.228 95.1144 132.951 99.5689C130.891 100.398 128.858 101.281 126.852 102.217C123.481 103.823 120.23 105.602 117.1 107.555C117.073 107.555 117.06 107.568 117.06 107.595C116.498 107.943 115.936 108.291 115.374 108.638C115.267 108.719 115.147 108.799 115.013 108.879C114.505 109.227 114.01 109.561 113.528 109.882C113.368 109.989 113.194 110.11 113.007 110.244C112.552 110.565 112.084 110.899 111.602 111.247C111.442 111.354 111.281 111.461 111.12 111.568C109.703 112.611 108.325 113.668 106.987 114.738C106.666 115.006 106.358 115.26 106.064 115.501C105.77 115.741 105.475 115.996 105.181 116.263C104.833 116.531 104.499 116.812 104.178 117.106C103.91 117.347 103.643 117.587 103.375 117.828C103.001 118.149 102.653 118.47 102.332 118.791C102.064 119.005 101.81 119.233 101.569 119.473C101.168 119.821 100.78 120.182 100.406 120.557C100.218 120.744 100.018 120.945 99.8038 121.159C99.2419 121.721 98.6668 122.296 98.0782 122.885C80.7419 140.742 70.0673 165.142 70.0673 192.029C70.0673 206.395 73.1573 220.08 78.6552 232.4C84.9155 246.445 94.3461 258.805 106.024 268.477C119.427 279.633 135.801 287.258 153.779 290.107C158.875 290.95 164.092 291.351 169.43 291.351C178.178 291.351 186.686 290.227 194.752 288.101C195.501 287.887 196.25 287.672 196.999 287.458C197.267 287.378 197.534 287.298 197.802 287.218C198.283 287.084 198.751 286.95 199.206 286.816C199.527 286.709 199.848 286.602 200.169 286.495C200.597 286.362 201.012 286.228 201.413 286.094C201.761 285.96 202.109 285.84 202.457 285.733C202.831 285.599 203.206 285.465 203.58 285.332C203.955 285.198 204.33 285.051 204.704 284.89C205.025 284.783 205.36 284.663 205.707 284.529C206.109 284.368 206.497 284.208 206.871 284.047C207.192 283.914 207.513 283.78 207.834 283.646C208.236 283.486 208.637 283.312 209.038 283.124C209.332 283.017 209.627 282.897 209.921 282.763C210.322 282.576 210.724 282.389 211.125 282.201C211.392 282.068 211.673 281.934 211.968 281.8C212.369 281.613 212.784 281.412 213.212 281.198C213.479 281.064 213.733 280.944 213.974 280.837C214.402 280.623 214.83 280.396 215.258 280.155C215.499 280.048 215.727 279.927 215.941 279.794C216.395 279.553 216.85 279.312 217.305 279.071C217.492 278.964 217.693 278.857 217.907 278.75C218.362 278.483 218.817 278.215 219.271 277.948C219.459 277.841 219.633 277.734 219.793 277.627C220.275 277.359 220.756 277.078 221.238 276.784C221.398 276.704 221.545 276.61 221.679 276.503C222.187 276.209 222.682 275.901 223.164 275.58C223.271 275.5 223.378 275.419 223.485 275.339C224.02 275.018 224.542 274.684 225.05 274.336C225.13 274.282 225.197 274.229 225.251 274.175C225.813 273.801 226.361 273.426 226.896 273.052C227.431 272.677 227.953 272.303 228.461 271.928C247.242 258.043 260.927 237.657 266.304 214.141C267.909 207.038 268.792 199.613 268.792 192.029C268.792 176.017 264.98 160.928 258.278 147.524Z" fill="#F6F6FF"/>
<path d="M114.692 262.819L118.946 257.241L127.012 251.863L126.25 244.158L119.708 236.854C119.708 236.854 123.16 230.714 124.684 230.714C126.25 230.714 125.086 223.009 125.086 223.009L120.07 215.706L115.856 212.255L106.626 209.165L100.486 209.566C100.486 209.566 94.7072 204.55 94.3059 203.426C93.9448 202.262 86.8417 199.533 86.8417 199.533L70.2679 197.768C70.9502 210.047 73.8797 221.725 78.6552 232.4C84.9155 246.446 94.3461 258.806 106.024 268.477C106.88 269.199 107.75 269.895 108.632 270.564L110.679 268.718L114.692 262.819Z" fill="#195829"/>
<path d="M268.792 192.029C268.792 178.425 266.023 165.503 261.087 153.705L253.703 159.925L252.178 170.278L244.152 177.662L230.548 183.842L227.779 189.541L222.161 202.984L222.562 208.723L227.177 216.829C227.177 216.829 228.341 219.879 231.391 218.756C234.481 217.592 237.932 218.756 237.932 218.756L242.547 224.896L241.784 229.511L236.768 232.601L234.842 237.577L239.096 242.954L241.383 247.569L245.236 251.823L247.162 253.87C256.312 242.392 262.933 228.909 266.304 214.141C267.909 207.038 268.792 199.614 268.792 192.029Z" fill="#195829"/>
<path d="M191.341 274.496L195.635 265.868L199.527 259.568L201.935 254.913L206.109 247.047L210.322 243.155L209.359 224.615L207.714 220.802L211.326 211.693L216.543 204.429L218.549 193.433L213.172 187.855L206.47 183.923L189.334 182.799L176.212 180.632L167.263 175.415L164.815 172.285L161.604 166.346L172.961 155.029L178.619 149.25L181.268 141.144L188.291 128.503L188.973 111.367L185.803 103.662L189.374 94.673C182.913 93.3487 176.252 92.6665 169.43 92.6665C156.548 92.6665 144.228 95.1144 132.951 99.5689C130.891 100.398 128.858 101.281 126.852 102.217C123.481 103.823 120.23 105.602 117.1 107.555C117.073 107.555 117.06 107.568 117.06 107.595C116.498 107.943 115.936 108.291 115.374 108.638C115.267 108.719 115.147 108.799 115.013 108.879C114.505 109.227 114.01 109.561 113.528 109.882C113.368 109.989 113.194 110.11 113.007 110.244C112.552 110.565 112.084 110.899 111.602 111.247C111.442 111.354 111.281 111.461 111.121 111.568C109.703 112.611 108.325 113.668 106.987 114.738C106.666 115.006 106.358 115.26 106.064 115.501C105.77 115.741 105.476 115.996 105.181 116.263C104.833 116.531 104.499 116.812 104.178 117.106C103.91 117.347 103.643 117.587 103.375 117.828C103.001 118.149 102.653 118.47 102.332 118.791C102.064 119.005 101.81 119.233 101.57 119.473C101.168 119.821 100.78 120.182 100.406 120.557C100.218 120.744 100.018 120.945 99.8038 121.159C99.2955 121.667 98.7872 122.176 98.2788 122.684L102.212 132.596L114.893 134.924L116.378 143.271L119.548 147.725H129.5L134.476 157.677L143.746 172.606V177.582V182.558L139.452 186.852L133.995 190.905L128.336 201.058L128.738 209.526L130.263 212.576L138.73 220.682L141.82 229.51L144.87 243.355L158.354 257.561L161.404 259.127L164.494 272.169L165.256 277.185L172.199 282.563L174.887 286.014L176.372 291.11C181.188 290.789 185.883 290.107 190.498 289.104L191.261 277.225L191.341 274.496Z" fill="#195829"/>
<path d="M229.464 255.635C228.702 257.2 215.62 259.889 215.62 259.889L208.717 269.119L206.791 277.947L205.747 284.489C206.122 284.355 206.497 284.208 206.871 284.047C207.192 283.913 207.513 283.78 207.834 283.646C208.236 283.485 208.637 283.312 209.038 283.124C209.332 283.017 209.627 282.897 209.921 282.763C210.322 282.576 210.724 282.389 211.125 282.201C211.392 282.068 211.673 281.934 211.968 281.8C212.369 281.613 212.784 281.412 213.212 281.198C213.479 281.064 213.733 280.944 213.974 280.837C214.402 280.623 214.83 280.395 215.258 280.155C215.499 280.048 215.727 279.927 215.941 279.793C216.395 279.553 216.85 279.312 217.305 279.071C217.492 278.964 217.693 278.857 217.907 278.75C218.362 278.483 218.817 278.215 219.271 277.947C219.459 277.84 219.633 277.733 219.793 277.626C220.275 277.359 220.756 277.078 221.238 276.784C221.398 276.703 221.545 276.61 221.679 276.503C222.188 276.208 222.682 275.901 223.164 275.58C223.271 275.5 223.378 275.419 223.485 275.339C224.02 275.018 224.542 274.684 225.05 274.336C225.13 274.282 225.197 274.229 225.251 274.175C225.813 273.801 226.361 273.426 226.896 273.052C227.431 272.677 227.953 272.303 228.461 271.928C234.36 267.554 239.738 262.578 244.513 257.04L236.768 253.348C236.768 253.348 230.227 254.11 229.464 255.635Z" fill="#195829"/>
<path d="M200.33 118.31L206.751 126.336L215.098 142.348L217.987 153.584L228.22 152.621L229.826 148.448L236.889 148.769L237.531 156.755L245.838 160.286L252.258 153.584L258.358 152.3L260.244 151.698C259.629 150.307 258.974 148.916 258.278 147.525C253.462 137.893 247.122 129.145 239.537 121.641C230.227 112.371 219.071 104.906 206.711 99.8901C204.865 103.02 202.898 106.793 202.898 106.793L200.33 118.31Z" fill="#195829"/>
<path d="M83.5912 188.417L88.768 181.234L91.9784 177.221L97.4361 176.298L97.9578 163.255L92.781 157.236L96.3526 145.237L87.1628 136.328C76.6487 151.818 70.3884 170.399 70.1075 190.464L74.0001 188.417H83.5912Z" fill="#195829"/>
<path d="M66.897 209.365H271.962L247.202 353.513H91.6573L66.897 209.365Z" fill="#FCFDFF"/>
<path d="M276.497 210.529H62.3623C60.8374 210.529 59.5933 209.325 59.5933 207.8V198.048C59.5933 196.523 60.8374 195.319 62.3623 195.319H276.497C278.022 195.319 279.266 196.523 279.266 198.048V207.8C279.266 209.325 278.022 210.529 276.497 210.529Z" fill="#D0E9D6"/>
<g opacity="0.2">
<g style="mix-blend-mode:multiply">
<path d="M171.837 256.398H195.394V246.165H171.837V256.398Z" fill="#195829"/>
<path d="M160.079 245.162H183.636V234.888H160.079V245.162Z" fill="#195829"/>
</g>
<g style="mix-blend-mode:multiply">
<path d="M113.689 237.135H90.1725V226.902H113.689V237.135Z" fill="#195829"/>
<path d="M139.091 237.135H115.535V226.902H139.091V237.135Z" fill="#195829"/>
<path d="M126.209 249.215H102.693V238.981H126.209V249.215Z" fill="#195829"/>
<path d="M150.849 225.859H127.293V215.625H150.849V225.859Z" fill="#195829"/>
</g>
<g style="mix-blend-mode:multiply">
<path d="M240.982 242.673H217.425V232.44H240.982V242.673Z" fill="#195829"/>
<path d="M252.74 231.397H229.224V221.164H252.74V231.397Z" fill="#195829"/>
</g>
<g style="mix-blend-mode:multiply">
<path d="M221.559 297.491H245.075V287.258H221.559V297.491Z" fill="#195829"/>
<path d="M196.156 297.491H219.713V287.258H196.156V297.491Z" fill="#195829"/>
<path d="M208.998 309.611H232.554V299.377H208.998V309.611Z" fill="#195829"/>
<path d="M184.398 286.255H207.915V275.981H184.398V286.255Z" fill="#195829"/>
</g>
<g style="mix-blend-mode:multiply">
<path d="M104.981 291.712H128.537V281.439H104.981V291.712Z" fill="#195829"/>
<path d="M93.2224 280.436H116.779V270.203H93.2224V280.436Z" fill="#195829"/>
</g>
<g style="mix-blend-mode:multiply">
<path d="M175.369 327.99H198.885V317.757H175.369V327.99Z" fill="#195829"/>
<path d="M149.967 327.99H173.523V317.757H149.967V327.99Z" fill="#195829"/>
<path d="M162.808 340.07H186.365V329.836H162.808V340.07Z" fill="#195829"/>
<path d="M138.208 316.714H161.725V306.48H138.208V316.714Z" fill="#195829"/>
</g>
</g>
<path d="M16.6139 98.9668C16.6139 98.9668 13.7647 101.174 11.6779 105.067C9.79177 108.558 8.74838 113.333 7.14317 120.557C3.81237 135.726 0 166.305 0 166.305L52.691 195.319H86.4003C86.4003 195.319 85.2767 188.818 74.602 188.457C63.9675 188.056 54.6573 187.414 54.6573 187.414C54.6573 187.414 28.4523 166.506 24.2788 162.734C20.1454 159.002 16.5336 156.835 16.5336 156.835C16.5336 156.835 26.8471 126.456 25.4827 115.821C24.1182 105.187 16.6139 98.9668 16.6139 98.9668Z" fill="#E6B6AA"/>
<path d="M7.38394 153.705C9.9924 153.945 12.5206 154.748 14.8482 155.831C17.2158 156.955 19.423 158.4 21.2289 160.246C19.0217 158.922 16.8145 157.677 14.487 156.594C12.1996 155.47 9.83188 154.587 7.38394 153.705Z" fill="#004E64"/>
<path d="M64.5294 192.269C65.9741 192.189 67.4188 192.149 68.8233 192.109C70.268 192.149 71.6726 192.149 73.1173 192.229C73.8396 192.269 74.5218 192.35 75.2442 192.39C75.9665 192.47 76.6889 192.51 77.4112 192.791C78.1336 193.112 78.6954 193.473 79.2973 193.875C79.6184 194.089 79.9127 194.316 80.1802 194.557C80.421 194.798 80.7019 195.079 80.7821 195.44C80.6618 195.079 80.3407 194.878 80.0598 194.677C79.7923 194.463 79.498 194.276 79.1769 194.115C78.5349 193.794 77.8928 193.473 77.2507 193.273C76.6086 193.112 75.9264 193.112 75.2041 193.072C74.4817 193.072 73.7995 193.072 73.0771 193.032C71.6592 193.005 70.2413 192.938 68.8233 192.831C67.3787 192.711 65.9741 192.55 64.5294 192.269Z" fill="#004E64"/>
<path d="M66.0544 189.862C67.78 189.781 69.5056 189.822 71.2311 189.822C72.9567 189.862 74.6824 189.902 76.4079 190.022C77.2908 190.102 78.1335 190.183 79.0164 190.383C79.8993 190.544 80.7821 190.945 81.5045 191.427C82.2268 191.908 82.909 192.43 83.5511 193.032C83.8722 193.353 84.1665 193.687 84.434 194.035C84.6748 194.396 84.9155 194.798 84.9557 195.199C84.6748 194.396 83.9925 193.835 83.3505 193.273C82.6683 192.791 81.9459 192.27 81.2236 191.868C79.7789 191.025 78.0533 190.945 76.3678 190.825C74.6422 190.745 72.9166 190.624 71.191 190.504C69.5055 190.343 67.78 190.183 66.0544 189.862Z" fill="#004E64"/>
</svg>
