<svg width="120" height="121" viewBox="0 0 120 121" fill="none" xmlns="http://www.w3.org/2000/svg">
<path d="M56.0327 0.279154C43.6582 1.37996 30.9477 6.60886 21.5064 14.4981C10.018 24.0996 2.7767 37.1259 0.393471 52.3846C-0.125951 55.687 -0.125948 65.1663 0.362919 68.591C1.34065 75.0124 3.1128 80.7917 5.92378 86.6322C9.04031 93.1148 14.754 100.851 19.1538 104.612C20.1009 105.438 20.8648 106.263 20.8037 106.447C20.7731 106.661 20.9259 106.783 21.1703 106.722C21.4148 106.661 21.9647 106.967 22.3925 107.395C24.7146 109.596 33.9725 115.039 37.028 115.957C37.3946 116.079 37.6391 116.263 37.5779 116.385C37.5168 116.507 37.7613 116.63 38.0974 116.66C38.464 116.66 40.3278 117.18 42.2527 117.791C44.1777 118.403 47.3858 119.198 49.433 119.534C51.4801 119.871 54.0161 120.268 55.1161 120.452C56.216 120.635 58.752 120.727 60.7686 120.666C69.2321 120.36 77.8789 118.342 85.3036 114.887C86.7091 114.244 88.0229 113.786 88.2063 113.908C88.359 114 88.4202 113.969 88.3285 113.786C88.2063 113.602 88.8479 113.082 89.7034 112.624C90.5589 112.165 92.1478 111.187 93.2172 110.422C94.2866 109.688 95.3254 109.199 95.5087 109.291C95.6921 109.413 95.7532 109.382 95.6615 109.199C95.5393 109.046 96.5476 108.037 97.892 106.967C99.2363 105.927 101.589 103.725 103.147 102.105C104.706 100.484 106.08 99.1999 106.203 99.2304C106.325 99.2915 106.417 99.1999 106.386 99.0775C106.233 98.6189 109.594 94.1544 109.9 94.3379C110.083 94.4601 110.114 94.3685 109.991 94.1544C109.839 93.9404 109.961 93.5429 110.205 93.2676C111.152 92.1363 114.116 86.4487 115.461 83.1462C118.73 75.1348 120.533 64.2795 119.86 56.7877C119.097 48.0118 117.141 40.9177 113.627 33.854C111.733 30.093 110.175 27.7079 105.867 21.9591C99.7558 13.8559 97.4336 9.69727 96.5781 5.44688L96.2115 3.70391L93.4616 4.59075C91.9339 5.04937 90.5895 5.44688 90.4062 5.44688C90.2534 5.44688 88.3285 5.99731 86.1286 6.63941C83.9592 7.31221 81.301 8.10723 80.2622 8.41293C79.1928 8.68822 78.3373 9.08573 78.3373 9.29976C78.3373 9.48324 78.7956 11.4708 79.3761 13.7336C79.9261 15.9963 80.7816 19.5128 81.2705 21.5922L82.126 25.384L83.0732 25.2005C86.2508 24.5582 88.084 24.6195 90.6506 25.4145C93.706 26.393 96.242 27.983 98.5336 30.3988C102.995 35.1384 107.028 44.6482 108.311 53.4853C108.83 57.1241 108.494 65.7166 107.669 69.5084C105.317 80.3942 100 89.4454 91.6895 96.723C85.2425 102.319 76.9012 106.386 68.6516 107.853C53.405 110.606 38.739 106.6 27.0673 96.4784C18.6649 89.2314 12.7985 78.5901 10.9652 67.3679C10.3847 63.7903 10.3847 56.1456 10.9652 52.2622C12.0957 44.6177 15.4873 36.6062 20.2843 30.2459C22.4231 27.4021 27.0062 22.846 29.7561 20.7972C36.9363 15.4459 46.1026 11.2568 52.4578 10.3699C55.4827 9.94186 61.0741 9.94186 63.6712 10.3394C65.9628 10.7063 70.5459 11.9907 72.4708 12.8162C73.1736 13.1221 73.7541 13.3361 73.7541 13.3054C73.7541 13.2749 73.3264 11.8683 72.8375 10.1864C72.3486 8.50474 71.9209 6.9147 71.9209 6.63941C71.9209 6.27245 72.7764 5.81383 74.9152 5.04937C76.5346 4.46838 78.3373 3.88739 78.8872 3.76502C79.4067 3.67336 79.865 3.45933 79.865 3.33696C79.865 2.66431 70.5459 0.676663 65.5045 0.248568C61.5324 -0.0877876 60.1575 -0.0877871 56.0327 0.279154Z" fill="#FCFDFF"/>
<path d="M53.5884 25.292C43.1083 27.2185 34.5531 33.0284 28.9311 41.9878C23.8286 50.1522 22.5147 61.9554 25.6618 71.3736C27.7395 77.5503 31.681 83.5131 36.2336 87.366C37.1807 88.1916 37.8835 88.956 37.7613 89.0784C37.6391 89.1701 37.7002 89.2313 37.8529 89.1701C38.0363 89.1395 39.1973 89.751 40.4806 90.5461C43.4444 92.3808 46.897 93.8792 50.5635 94.9188C54.0772 95.8973 61.3186 96.2643 65.1378 95.6527C68.071 95.194 72.6236 93.7569 75.4041 92.4114C76.5651 91.861 77.6956 91.494 77.8484 91.5858C78.0317 91.6775 78.0928 91.6775 77.9706 91.5246C77.8484 91.4023 78.9483 90.4849 80.4149 89.5065C88.4202 84.247 93.7366 76.6331 95.4782 67.9793C96.242 64.1265 95.6921 54.7084 94.7449 55.0754C94.531 55.1365 91.2311 56.2679 87.3508 57.5828C83.5009 58.8975 80.2927 59.9984 80.2316 60.029C80.2011 60.0595 80.3538 60.8853 80.6288 61.8943C81.2094 64.157 81.2094 67.7959 80.6288 70.0587C79.6511 73.8198 76.9623 77.8561 73.6014 80.6387C71.4931 82.3817 67.0017 84.5834 64.4351 85.1031C53.9856 87.2742 41.6111 80.7916 36.5391 70.4868C34.767 66.9092 34.217 64.0348 34.1864 58.5C34.1864 53.0571 34.4003 52.0481 36.4169 48.1035C38.9834 43.1192 47.3553 36.7283 52.6412 35.7193C59.7297 34.3738 69.5377 37.5539 73.2042 42.3853C75.2207 45.0151 76.4429 44.3423 58.6298 50.3051C49.8913 53.21 42.6499 55.7175 42.5277 55.8398C42.4055 55.9621 42.9249 58.0109 43.7193 60.3959L45.1554 64.738L46.1026 64.5545C46.5914 64.4628 48.5469 63.8208 50.3802 63.1785C52.244 62.5059 56.216 61.1604 59.2409 60.1513C62.2657 59.1423 65.0156 58.2249 65.3517 58.072C65.6878 57.9191 67.2155 57.3993 68.7127 56.8794C70.2404 56.3901 74.1513 55.1059 77.4206 54.0051C80.6899 52.9042 85.3953 51.3447 87.9007 50.5497C90.3756 49.7547 92.6061 48.9291 92.8505 48.7456C93.2477 48.4705 93.1561 48.073 92.3005 46.0853C87.6257 35.3829 78.2762 27.9218 66.5739 25.4755C62.6935 24.6805 57.3771 24.6194 53.5884 25.292Z" fill="#FCFDFF"/>
<path d="M53.5884 25.292C43.1083 27.2185 34.5531 33.0284 28.9311 41.9878C23.8286 50.1522 22.5147 61.9554 25.6618 71.3736C27.7395 77.5503 31.681 83.5131 36.2336 87.366C37.1807 88.1916 37.8835 88.956 37.7613 89.0784C37.6391 89.1701 37.7002 89.2313 37.8529 89.1701C38.0363 89.1395 39.1973 89.751 40.4806 90.5461C43.4444 92.3808 46.897 93.8792 50.5635 94.9188C54.0772 95.8973 61.3186 96.2643 65.1378 95.6527C68.071 95.194 72.6236 93.7569 75.4041 92.4114C76.5651 91.861 77.6956 91.494 77.8484 91.5858C78.0317 91.6775 78.0928 91.6775 77.9706 91.5246C77.8484 91.4023 78.9483 90.4849 80.4149 89.5065C88.4202 84.247 93.7366 76.6331 95.4782 67.9793C96.242 64.1265 95.6921 54.7084 94.7449 55.0754C94.531 55.1365 91.2311 56.2679 87.3508 57.5828C83.5009 58.8975 80.2927 59.9984 80.2316 60.029C80.2011 60.0595 80.3538 60.8853 80.6288 61.8943C81.2094 64.157 81.2094 67.7959 80.6288 70.0587C79.6511 73.8198 76.9623 77.8561 73.6014 80.6387C71.4931 82.3817 67.0017 84.5834 64.4351 85.1031C53.9856 87.2742 41.6111 80.7916 36.5391 70.4868C34.767 66.9092 34.217 64.0348 34.1864 58.5C34.1864 53.0571 34.4003 52.0481 36.4169 48.1035C38.9834 43.1192 47.3553 36.7283 52.6412 35.7193C59.7297 34.3738 69.5377 37.5539 73.2042 42.3853C75.2207 45.0151 76.4429 44.3423 58.6298 50.3051C49.8913 53.21 42.6499 55.7175 42.5277 55.8398C42.4055 55.9621 42.9249 58.0109 43.7193 60.3959L45.1554 64.738L46.1026 64.5545C46.5914 64.4628 48.5469 63.8208 50.3802 63.1785C52.244 62.5059 56.216 61.1604 59.2409 60.1513C62.2657 59.1423 65.0156 58.2249 65.3517 58.072C65.6878 57.9191 67.2155 57.3993 68.7127 56.8794C70.2404 56.3901 74.1513 55.1059 77.4206 54.0051C80.6899 52.9042 85.3953 51.3447 87.9007 50.5497C90.3756 49.7547 92.6061 48.9291 92.8505 48.7456C93.2477 48.4705 93.1561 48.073 92.3005 46.0853C87.6257 35.3829 78.2762 27.9218 66.5739 25.4755C62.6935 24.6805 57.3771 24.6194 53.5884 25.292Z" fill="#FCFDFF"/>
</svg>
