<svg width="100%" height="100%" viewBox="0 0 139 119" fill="none" xmlns="http://www.w3.org/2000/svg" preserveAspectRatio="xMidYMid meet">
<path d="M66.2539 10.2284C56.1289 11.1291 45.7289 15.4075 38.0039 21.8626C28.6039 29.7187 22.6789 40.3771 20.7289 52.862C20.3039 55.5641 20.3039 63.3202 20.7039 66.1224C21.5039 71.3765 22.9539 76.1052 25.2539 80.884C27.8039 86.1882 32.4789 92.5181 36.0789 95.5956C36.8539 96.2711 37.4789 96.9466 37.4289 97.0967C37.4039 97.2719 37.5289 97.372 37.7289 97.322C37.9289 97.2719 38.3789 97.5221 38.7289 97.8724C40.6289 99.6737 48.2039 104.127 50.7039 104.878C51.0039 104.978 51.2039 105.128 51.1539 105.228C51.1039 105.328 51.3039 105.428 51.5789 105.453C51.8789 105.453 53.4039 105.879 54.9789 106.379C56.5539 106.879 59.1789 107.53 60.8539 107.805C62.5289 108.08 64.6039 108.406 65.5039 108.556C66.4039 108.706 68.4789 108.781 70.1289 108.731C77.0539 108.481 84.1289 106.829 90.2039 104.002C91.3539 103.477 92.4289 103.101 92.5789 103.202C92.7039 103.277 92.7539 103.252 92.6789 103.101C92.5789 102.951 93.1039 102.526 93.8039 102.151C94.5039 101.775 95.8039 100.975 96.6789 100.349C97.5539 99.7489 98.4039 99.3485 98.5539 99.4236C98.7039 99.5237 98.7539 99.4986 98.6789 99.3485C98.5789 99.2235 99.4039 98.3977 100.504 97.5221C101.604 96.6715 103.529 94.87 104.804 93.544C106.079 92.2179 107.204 91.1671 107.304 91.1921C107.404 91.2421 107.479 91.1671 107.454 91.067C107.329 90.6917 110.079 87.0389 110.329 87.189C110.479 87.289 110.504 87.214 110.404 87.0389C110.279 86.8637 110.379 86.5385 110.579 86.3132C111.354 85.3876 113.779 80.7339 114.879 78.0317C117.554 71.4766 119.029 62.5946 118.479 56.4647C117.854 49.2841 116.254 43.4796 113.379 37.7C111.829 34.6226 110.554 32.6711 107.029 27.9674C102.029 21.3371 100.129 17.9345 99.4289 14.4567L99.1289 13.0306L96.8789 13.7562C95.6289 14.1315 94.5289 14.4567 94.3789 14.4567C94.2539 14.4567 92.6789 14.9071 90.8789 15.4325C89.1039 15.983 86.9289 16.6335 86.0789 16.8836C85.2039 17.1089 84.5039 17.4341 84.5039 17.6092C84.5039 17.7594 84.8789 19.3856 85.3539 21.2371C85.8039 23.0885 86.5039 25.9657 86.9039 27.6671L87.6039 30.7696L88.3789 30.6195C90.9789 30.094 92.4789 30.1441 94.5789 30.7946C97.0789 31.5952 99.1539 32.8962 101.029 34.8729C104.679 38.7509 107.979 46.532 109.029 53.7626C109.454 56.74 109.179 63.7705 108.504 66.873C106.579 75.78 102.229 83.1859 95.4289 89.1405C90.1539 93.7191 83.3289 97.0467 76.5789 98.2476C64.1039 100.499 52.1039 97.2219 42.5539 88.9404C35.6789 83.0107 30.8789 74.3039 29.3789 65.1216C28.9039 62.1944 28.9039 55.9394 29.3789 52.7619C30.3039 46.507 33.0789 39.9519 37.0039 34.7477C38.7539 32.4209 42.5039 28.693 44.7539 27.0166C50.6289 22.6381 58.1289 19.2105 63.3289 18.4849C65.8039 18.1346 70.3789 18.1346 72.5039 18.4599C74.3789 18.7601 78.1289 19.811 79.7039 20.4865C80.2789 20.7367 80.7539 20.9119 80.7539 20.8867C80.7539 20.8617 80.4039 19.7109 80.0039 18.3347C79.6039 16.9587 79.2539 15.6577 79.2539 15.4325C79.2539 15.1322 79.9539 14.757 81.7039 14.1315C83.0289 13.6561 84.5039 13.1807 84.9539 13.0806C85.3789 13.0056 85.7539 12.8305 85.7539 12.7304C85.7539 12.18 78.1289 10.5537 74.0039 10.2034C70.7539 9.92817 69.6289 9.92817 66.2539 10.2284Z" fill="url(#paint0_linear_197_331)"/>
<path d="M64.254 30.6946C55.679 32.2708 48.679 37.0246 44.079 44.3553C39.904 51.0356 38.829 60.6932 41.404 68.3993C43.104 73.4532 46.329 78.3321 50.054 81.4846C50.829 82.1601 51.404 82.7856 51.304 82.8857C51.204 82.9607 51.254 83.0108 51.379 82.9607C51.529 82.9357 52.479 83.4361 53.529 84.0866C55.954 85.5878 58.779 86.8138 61.779 87.6644C64.654 88.4651 70.579 88.7653 73.704 88.2649C76.104 87.8896 79.829 86.7137 82.104 85.6128C83.054 85.1624 83.979 84.8622 84.104 84.9373C84.254 85.0123 84.304 85.0123 84.204 84.8872C84.104 84.7872 85.004 84.0366 86.204 83.2359C92.754 78.9326 97.104 72.7027 98.529 65.6221C99.154 62.4696 98.704 54.7636 97.929 55.0638C97.754 55.1138 95.054 56.0396 91.879 57.1154C88.729 58.1912 86.104 59.0919 86.054 59.1169C86.029 59.1419 86.154 59.8176 86.379 60.6432C86.854 62.4946 86.854 65.4719 86.379 67.3234C85.579 70.4008 83.379 73.7034 80.629 75.9802C78.904 77.4063 75.229 79.2078 73.129 79.6331C64.579 81.4094 54.454 76.1053 50.304 67.6737C48.854 64.7464 48.404 62.3946 48.379 57.8659C48.379 53.4124 48.554 52.5868 50.204 49.3593C52.304 45.2811 59.154 40.0519 63.479 39.2263C69.279 38.1254 77.304 40.7274 80.304 44.6806C81.954 46.8323 82.954 46.2818 68.379 51.1607C61.229 53.5376 55.304 55.5892 55.204 55.6893C55.104 55.7893 55.529 57.4657 56.179 59.4172L57.354 62.9699L58.129 62.8198C58.529 62.7448 60.129 62.2194 61.629 61.6939C63.154 61.1436 66.404 60.0427 68.879 59.2171C71.354 58.3914 73.604 57.6408 73.879 57.5157C74.154 57.3906 75.404 56.9653 76.629 56.5399C77.879 56.1396 81.079 55.0888 83.754 54.1881C86.429 53.2873 90.279 52.0113 92.329 51.3608C94.354 50.7103 96.179 50.0348 96.379 49.8847C96.704 49.6596 96.629 49.3343 95.929 47.7079C92.104 38.9511 84.454 32.8463 74.879 30.8447C71.704 30.1942 67.354 30.1442 64.254 30.6946Z" fill="black"/>
<path d="M64.254 30.6946C55.679 32.2708 48.679 37.0246 44.079 44.3553C39.904 51.0356 38.829 60.6932 41.404 68.3993C43.104 73.4532 46.329 78.3321 50.054 81.4846C50.829 82.1601 51.404 82.7856 51.304 82.8857C51.204 82.9607 51.254 83.0108 51.379 82.9607C51.529 82.9357 52.479 83.4361 53.529 84.0866C55.954 85.5878 58.779 86.8138 61.779 87.6644C64.654 88.4651 70.579 88.7653 73.704 88.2649C76.104 87.8896 79.829 86.7137 82.104 85.6128C83.054 85.1624 83.979 84.8622 84.104 84.9373C84.254 85.0123 84.304 85.0123 84.204 84.8872C84.104 84.7872 85.004 84.0366 86.204 83.2359C92.754 78.9326 97.104 72.7027 98.529 65.6221C99.154 62.4696 98.704 54.7636 97.929 55.0638C97.754 55.1138 95.054 56.0396 91.879 57.1154C88.729 58.1912 86.104 59.0919 86.054 59.1169C86.029 59.1419 86.154 59.8176 86.379 60.6432C86.854 62.4946 86.854 65.4719 86.379 67.3234C85.579 70.4008 83.379 73.7034 80.629 75.9802C78.904 77.4063 75.229 79.2078 73.129 79.6331C64.579 81.4094 54.454 76.1053 50.304 67.6737C48.854 64.7464 48.404 62.3946 48.379 57.8659C48.379 53.4124 48.554 52.5868 50.204 49.3593C52.304 45.2811 59.154 40.0519 63.479 39.2263C69.279 38.1254 77.304 40.7274 80.304 44.6806C81.954 46.8323 82.954 46.2818 68.379 51.1607C61.229 53.5376 55.304 55.5892 55.204 55.6893C55.104 55.7893 55.529 57.4657 56.179 59.4172L57.354 62.9699L58.129 62.8198C58.529 62.7448 60.129 62.2194 61.629 61.6939C63.154 61.1436 66.404 60.0427 68.879 59.2171C71.354 58.3914 73.604 57.6408 73.879 57.5157C74.154 57.3906 75.404 56.9653 76.629 56.5399C77.879 56.1396 81.079 55.0888 83.754 54.1881C86.429 53.2873 90.279 52.0113 92.329 51.3608C94.354 50.7103 96.179 50.0348 96.379 49.8847C96.704 49.6596 96.629 49.3343 95.929 47.7079C92.104 38.9511 84.454 32.8463 74.879 30.8447C71.704 30.1942 67.354 30.1442 64.254 30.6946Z" fill="url(#paint1_linear_197_331)"/>
<defs>
<linearGradient id="paint0_linear_197_331" x1="41.9414" y1="18.9447" x2="72.6914" y2="108.507" gradientUnits="userSpaceOnUse">
<stop stop-color="#159131"/>
<stop offset="0.444844" stop-color="#159131"/>
<stop offset="1" stop-color="#00177D"/>
</linearGradient>
<linearGradient id="paint1_linear_197_331" x1="52.914" y1="35.5874" x2="70.8048" y2="88.5464" gradientUnits="userSpaceOnUse">
<stop stop-color="#159131"/>
<stop offset="0.444844" stop-color="#159131"/>
<stop offset="1" stop-color="#00177D"/>
</linearGradient>
</defs>
</svg>
