<svg width="100%" height="100%" preserveAspectRatio="xMidYMid meet" viewBox="0 0 242 11" fill="none" xmlns="http://www.w3.org/2000/svg">
<g clip-path="url(#clip0_107_2743)">
<g clip-path="url(#clip1_107_2743)">
<path d="M557.028 3.41795C557.566 3.47168 558.178 3.8179 558.965 3.62542C559.503 3.44866 560.075 3.32301 560.662 3.25168C561.156 3.23254 561.738 3.59369 562.163 3.51182C563.177 3.31317 563.104 4.25145 563.631 4.1792C564.278 4.09003 564.81 3.67002 565.446 3.48068C565.728 3.39661 566.144 3.52825 566.5 3.56137C566.447 3.84528 566.324 4.1199 566.14 4.37328C565.884 4.54008 565.55 4.63866 565.199 4.65217C563.582 4.80355 561.856 4.47683 560.357 5.16894C560.233 5.20939 560.095 5.22824 559.955 5.2239C559.815 5.21957 559.679 5.19218 559.557 5.144C558.069 4.39531 556.765 4.94079 555.542 5.42163C555.008 5.63173 554.621 5.91556 554.17 5.47931C553.903 5.24595 553.541 5.07545 553.131 4.99161C552.722 4.90777 552.288 4.91479 551.89 5.01166C550.629 5.15628 549.384 5.3511 548.156 5.59517C547.907 5.64494 547.778 5.99088 547.596 6.20011C547.389 4.87328 545.323 6.08835 544.809 5.17889C543.592 5.34476 542.398 5.57121 541.233 5.85651C540.71 6.06354 540.11 6.15389 539.507 6.1155C538.904 6.07712 538.33 5.91186 537.859 5.64163C536.949 5.21602 536.845 5.21517 536.665 6.09519C536.573 6.54931 536.306 6.64203 535.788 6.59928C535.085 6.54118 534.367 6.19122 533.709 6.65635C533.602 6.5814 533.515 6.49176 533.46 6.39311C533.402 6.29447 533.375 6.18901 533.382 6.08353C533.429 5.96173 533.322 6.02543 533.213 6.09268L533.482 6.26614C533.569 6.18907 533.646 6.10698 533.715 6.02068C533.724 6.00535 533.6 5.94377 533.382 6.08589C531.93 6.2714 530.453 6.36997 528.972 6.38059C528.594 6.3899 527.984 6.50687 527.873 6.39063C526.705 5.19568 525.849 5.89191 524.753 6.43669C524.381 6.62008 523.098 6.94784 522.847 5.90464C522.778 5.62205 522.144 5.66597 521.815 6.04189C521.225 6.7175 521.063 6.71194 520.378 6.17228C519.197 5.2396 518.57 5.12273 518.083 5.95454C517.449 7.03397 516.559 6.81341 515.558 6.46191C515.469 6.413 515.365 6.37793 515.254 6.35893C515.145 6.33993 515.029 6.33747 514.918 6.35173C514.807 6.36598 514.702 6.39665 514.609 6.44165C514.518 6.48665 514.44 6.54498 514.384 6.61278C513.982 6.97473 513.619 7.34451 512.974 6.73587C512.329 6.12723 511.279 6.31508 510.639 6.49917C510.31 6.60527 509.952 6.65843 509.587 6.65475C509.222 6.65108 508.864 6.59068 508.533 6.47794C507.283 6.05836 506.022 6.17189 504.747 6.19819C503.233 6.2296 501.712 6.23584 500.206 6.3223C498.645 6.31004 497.094 6.45395 495.6 6.74958C494.428 7.05347 492.898 6.46873 491.49 6.5279C490.082 6.58707 488.65 6.65465 487.231 6.62538C486.234 6.60455 485.276 6.81384 484.202 6.53572C483.495 6.35162 482.527 7.07876 481.611 6.41983C481.479 6.32661 480.703 6.78346 480.221 6.79549C479.556 6.81151 478.615 6.41195 478.266 6.60514C477.645 6.94738 477.038 6.82802 476.433 6.9209C476.115 6.97028 475.779 6.95009 475.472 6.863C475.165 6.77592 474.903 6.62608 474.718 6.43346C474.467 6.21998 474.73 5.71328 473.973 5.78762C473.435 5.84118 472.65 5.78153 472.417 6.00239C471.649 6.72475 470.277 6.32268 469.407 6.90527C469.025 7.16149 468.057 7.02842 467.357 7.00607C466.834 6.98916 466.316 6.83964 465.791 6.79519C464.712 6.70711 463.825 7.37192 462.526 6.93639C461.612 6.63042 460.291 6.89229 459.164 6.97061C458.372 7.02533 457.538 6.82593 456.784 7.32244C456.508 7.4297 456.197 7.48778 455.879 7.4916C455.561 7.49542 455.245 7.44487 454.958 7.34436C454.582 7.15125 454.131 7.04933 453.668 7.05459C453.208 7.05986 452.765 7.17202 452.409 7.37347C452.314 7.42008 452.084 7.44094 452.024 7.39868C450.465 6.2988 448.25 7.25369 446.598 6.47951C445.944 6.17353 445.726 6.82813 444.981 6.74521C442.926 6.51476 440.86 6.10383 438.756 6.29249C437.602 6.39566 436.478 6.69556 435.324 6.74127C434.248 6.80593 433.189 6.96997 432.177 7.22912C431.43 7.39953 430.776 7.92853 429.762 7.3514C429.353 7.12059 428.318 7.3458 427.616 7.47653C427.326 7.53019 427.226 7.79556 426.79 7.5386C425.705 6.89881 424.384 7.09149 423.11 7.06441C420.906 7.01826 418.673 7.5429 416.498 6.84679C416.022 7.03936 415.463 7.11689 414.912 7.06765C414.36 7.01841 413.842 6.84509 413.437 6.57389C413.382 6.53629 412.888 6.93833 412.614 6.92441C411.353 6.86144 410.017 7.34863 408.842 6.64338C407.819 7.28658 406.396 6.93366 405.253 7.31057C404.75 7.5266 404.161 7.62677 403.567 7.59721C402.971 7.56764 402.402 7.4098 401.937 7.14557C400.714 6.48298 399.272 6.89606 397.94 7.05129C397.349 7.16049 396.775 7.31149 396.23 7.50198C394.424 7.99635 394.435 7.98744 392.667 6.88245C392.394 6.76236 392.067 6.71956 391.753 6.76294C390.423 8.72476 388.072 7.63327 386.162 7.52168C385.652 7.49173 384.987 7.30668 384.36 7.24847C384.207 7.22783 384.06 7.18532 383.929 7.12357C383.798 7.06182 383.686 6.98214 383.6 6.88951C383.404 6.64209 383.786 6.14017 383.081 6.12434C382.448 6.06952 381.809 6.16254 381.269 6.3889C380.7 6.8096 379.917 7.05829 379.083 7.08347C378.246 7.10866 377.426 6.90843 376.785 6.52421C376.501 6.37186 376.147 6.29464 375.793 6.30637C375.015 6.40318 374.27 6.61343 373.496 6.73775C372.806 6.84667 372.07 5.88995 371.359 6.74668C371.303 6.81581 370.774 6.8013 370.629 6.70471C370.118 6.36636 369.775 6.36594 369.221 6.70407C368.154 7.35881 367.077 7.36862 365.523 7.3828C364.286 7.39409 362.874 7.02527 361.766 7.78591C361.651 7.83859 361.517 7.87132 361.377 7.88155C361.237 7.89178 361.097 7.87918 360.963 7.8448C358.682 7.15144 356.36 7.7373 354.062 7.62807C353.175 7.58576 352.341 7.74406 351.367 7.37884C350.717 7.13381 349.427 7.49682 348.591 7.80409C347.608 8.16488 346.965 6.92294 346.067 7.63535C344.043 7.72711 341.963 8.06801 340.013 7.83368C338.496 7.59271 336.926 7.60846 335.431 7.87958C334.829 8.01292 334.671 7.72411 334.388 7.75775C331.506 8.10129 328.635 7.22385 325.793 7.58518C324.36 7.79847 322.881 7.84148 321.42 7.71246C320.51 7.61989 319.345 7.4171 318.515 8.08199C318.415 8.16147 317.891 7.94286 317.559 7.92536C317.05 7.89895 316.418 7.79797 316.047 7.95911C315.773 8.12317 315.426 8.21472 315.064 8.21803C314.699 8.22134 314.345 8.13621 314.059 7.97725C313.734 7.81953 313.167 7.92672 312.711 7.88045C311.819 7.793 310.967 8.08285 309.984 7.69954C309.412 7.47665 308.349 7.99298 307.502 7.99426C305.961 7.996 304.373 8.40923 302.878 7.74032C302.209 7.44151 301.815 8.27071 300.99 7.94226C300.487 7.74278 299.733 7.86695 299.093 7.82939C298.379 7.78841 297.614 8.07157 296.956 7.60321C296.847 7.55336 296.722 7.52303 296.595 7.51499C296.466 7.50694 296.337 7.52141 296.222 7.55712C295.31 8.34765 293.693 7.58489 292.774 8.30571C291.863 7.54588 290.353 8.53068 289.394 7.71675C289.301 7.63844 288.502 8.07671 288.011 8.09586C285.838 8.19387 283.66 8.24833 281.481 8.25922C281.034 8.22438 280.618 8.08317 280.3 7.85953C279.581 7.39698 279.477 7.55802 279.441 8.12948C279.435 8.22395 278.645 8.33611 278.209 8.35122C275.941 8.42763 273.67 8.50405 271.397 8.5195C270.356 8.529 269.155 8.14064 268.303 8.38587C267.194 8.70679 266.124 8.58168 265.047 8.68416C264.3 8.7543 263.224 8.96055 262.839 8.7043C261.98 8.13339 261.593 8.96429 260.973 8.79931C260.888 8.7778 260.753 8.83005 260.697 8.7989C260.272 8.55239 259.781 8.04498 259.463 8.09361C258.914 8.17368 258.511 8.79598 257.986 8.83536C256.111 8.97678 254.207 8.9619 252.315 9.01903C251.572 9.04165 251.699 8.67283 251.621 8.36393C251.579 8.19192 251.768 7.75451 251.141 8.00242C251.009 8.06478 250.9 8.14744 250.825 8.24405C250.747 8.34067 250.702 8.44873 250.693 8.56005C250.707 8.7241 251.414 8.89826 250.698 9.05021C249.564 9.29043 248.418 8.81887 247.24 8.98734C246.982 9.02431 246.515 8.58354 246.079 8.91763C246.016 8.9825 245.936 9.03788 245.843 9.08062C245.749 9.12335 245.645 9.15258 245.536 9.16656C245.425 9.18055 245.311 9.17905 245.2 9.16213C245.091 9.14521 244.987 9.1132 244.893 9.06799C244.306 8.90136 243.672 8.83495 243.045 8.87433C242.567 8.89218 241.88 9.29544 241.682 9.18289C240.983 8.7835 240.536 8.83684 240.074 9.30254C239.885 9.16408 239.649 9.05979 239.391 8.99895C239.131 8.93811 238.855 8.92255 238.588 8.95368C238.048 9.01357 237.492 8.97711 236.971 8.84765C235.679 8.40618 234.405 8.74032 233.13 8.74783C232.056 8.76224 230.982 8.69337 229.923 8.54252C229.768 8.50703 229.543 8.66858 229.338 8.68452C228.518 8.75063 227.543 9.00872 226.91 8.78816C226.029 8.48249 225.453 8.31596 224.703 8.83529C224.568 8.92916 224.076 8.76477 223.749 8.73376C223.42 8.70275 222.835 8.62832 222.811 8.68015C222.146 10.1029 220.884 9.23897 219.801 9.04772C219.29 8.95681 218.75 8.54949 218.285 9.08499C217.024 8.93172 215.767 9.43166 214.439 8.9008C213.948 8.70416 212.982 9.12516 212.222 9.22942C211.953 9.23514 211.684 9.21151 211.424 9.15932C211.583 8.9673 211.748 8.77756 211.902 8.58324C212.032 8.41727 212.642 8.25457 211.982 8.06299C211.549 7.94148 211.085 7.88824 210.623 7.9071C210.429 7.91474 210.24 8.17035 210.087 8.33065C209.914 8.51225 209.835 8.84546 209.624 8.88375C208.745 9.12334 207.801 9.23179 206.852 9.20221C205.916 9.08059 205.293 9.64506 204.4 9.45443C203.813 9.32902 203.195 9.55865 202.538 9.21047C202.117 8.98739 201.282 9.12694 200.636 9.14104C197.796 9.20448 194.957 9.2908 192.117 9.34603C191.55 9.35707 190.687 9.62529 190.724 8.79231C190.723 8.7712 189.883 8.63752 189.824 8.71136C189.144 9.56487 187.983 9.46465 186.86 9.49074C183.263 9.57281 179.667 9.68888 176.068 9.7481C175.188 9.762 174.263 10.0284 173.391 9.4629C173.136 9.37333 172.854 9.33076 172.572 9.33929C172.289 9.34783 172.016 9.40721 171.778 9.51166C170.746 10.2147 169.983 9.93849 169.179 9.3401L166.242 9.48418C164.704 9.90868 164.565 9.88296 162.92 9.50862C162.327 9.3739 161.396 9.18946 161.092 9.38515C160.231 9.94361 159.709 9.78068 159.006 9.27577C158.573 8.96719 158.206 8.60815 157.374 8.60987C156.423 8.61151 156.819 9.32913 156.48 9.34807C155.578 9.39969 154.62 10.2416 153.699 9.2937C153.601 9.19315 152.995 9.20044 152.772 9.30684C150.359 10.4618 147.808 9.82121 145.275 9.54703C144.473 9.40717 143.644 9.36888 142.827 9.43393C139.15 10.0122 139.147 10.0732 135.492 9.29385C134.706 9.12512 133.786 9.55513 133.129 8.9636C133.061 8.96041 132.993 8.96718 132.929 8.98351C132.865 8.99984 132.807 9.02538 132.758 9.05846C132.297 9.63322 131.258 9.53011 130.712 9.85115C129.886 10.3366 129.428 9.42599 128.798 9.76596C128.747 9.21817 128.044 9.29789 127.769 9.4165C126.423 9.99932 124.912 9.77917 123.473 9.91132C121.292 10.1124 119.028 9.67511 116.893 10.4264C115.96 10.7545 114.874 9.86311 113.712 10.137C113.097 10.2136 112.458 10.1198 111.932 9.87528C111.592 9.76991 110.997 10.1805 110.494 10.2144C109.271 10.296 108.035 10.2955 106.808 10.3243C106.524 10.321 106.24 10.3294 105.957 10.3497C105.249 10.4276 105.179 9.23385 104.01 9.94112C103.509 10.2447 102.368 10.0734 101.518 10.053C99.9654 10.1069 98.4059 10.0445 96.8664 9.86675C95.3085 9.63984 93.6983 9.73023 92.228 10.1272C91.3268 10.3593 90.0533 9.92127 88.9513 9.77183C88.7825 9.74933 88.5519 9.5767 88.4936 9.60654C86.5344 10.6271 84.4367 9.64884 82.42 9.74875C82.2303 9.74053 82.0406 9.74719 81.8537 9.76859C81.2775 9.89582 80.6923 10.1897 80.1446 10.1466C79.5799 10.1036 79.0853 9.65604 78.5034 9.55228C77.9861 9.50559 77.4628 9.55885 76.9907 9.70624C75.7307 10.0215 74.3767 10.1229 73.039 10.002C71.9081 9.95373 70.7647 10.1008 69.6322 10.0589C68.3718 10.0118 67.0443 10.4672 65.8416 9.78741C65.7333 9.72625 65.2847 9.84237 65.1314 9.96221C64.6077 10.3698 64.1887 10.2247 63.7354 9.8981C63.3647 9.63117 63.0293 9.27598 62.4904 9.81566C62.3338 9.88575 62.1541 9.92708 61.9673 9.93596C61.7805 9.94483 61.5925 9.92095 61.4208 9.86647C59.6552 9.10916 58.0972 9.53556 56.6049 10.1877C56.1654 10.3794 56.0865 10.4124 55.9515 10.0372C55.6924 9.32122 54.9095 9.24099 53.9992 9.26982C51.1616 9.35963 48.3213 9.44711 45.4794 9.47772C44.5035 9.48662 43.4313 9.84061 42.5379 9.19731C42.4569 9.16478 42.3655 9.14719 42.2726 9.14618C42.1798 9.14519 42.0886 9.16082 42.0077 9.19159C40.8036 10.2369 39.3924 9.41773 38.2259 9.21142C37.375 8.99516 36.4696 8.9127 35.5749 8.96998C34.2411 9.15805 33.0183 8.8174 31.8102 8.60384C30.9091 8.44495 30.3982 9.2541 29.3696 8.77446C28.7898 8.50415 27.7196 8.75198 26.8709 8.77145C25.7346 8.79765 24.5964 8.81157 23.4628 8.8612C22.6508 8.95993 21.8099 8.8355 21.1149 8.51377C20.4166 8.19239 19.5716 8.07156 18.759 8.17698C18.1923 8.20151 17.6196 8.1874 17.056 8.22538C14.7707 8.45409 12.4343 8.3537 10.1896 7.93035C9.26535 7.72358 8.78607 8.16773 8.07324 8.05696C7.37636 7.94603 6.77721 7.31762 5.91546 8.06315C5.53991 8.3879 3.44902 7.29639 3.37098 6.57938C3.33491 6.13604 3.17202 5.70067 2.89195 5.29903C2.61187 4.89739 2.22029 4.53766 1.74043 4.24115C1.26882 3.9341 1.56357 3.8669 2.00198 3.82361C2.61728 3.75936 3.24408 3.89732 3.82311 3.50855C4.47172 3.09621 5.22469 2.7714 6.04503 2.55008C6.76889 2.34353 7.65267 2.65856 8.38412 2.13236C8.87171 1.78078 9.34345 2.33587 9.74567 2.57262C10.4449 2.9808 10.8982 3.04586 10.9902 2.26808C11.0015 2.1636 11.5292 1.97877 11.5716 2.0077C12.4367 2.59908 13.144 1.83269 13.966 1.90963C14.7881 1.98656 15.6979 1.77654 16.5094 1.89814C17.3605 2.02641 18.0671 2.29792 18.9179 1.83395C19.3412 1.60317 20.0071 1.80819 20.3763 2.18772C20.5602 2.38667 20.8465 2.52915 21.1744 2.58504C21.5023 2.64092 21.8463 2.60582 22.1332 2.48715C23.6111 1.65921 25.1695 2.33514 26.5041 2.50884C27.5966 2.65133 28.8636 2.94527 29.6758 2.65229C30.5672 2.33045 31.1526 2.64763 31.8118 2.70494C33.0168 2.81122 34.1315 3.35692 35.3729 2.62612C35.6981 2.4905 36.0835 2.44063 36.4609 2.48538C36.8383 2.53013 37.1833 2.66662 37.4346 2.87059C37.7057 3.08567 38.4303 3.34349 38.566 3.26426C39.0513 2.93548 39.4725 2.56349 39.8192 2.1575C39.922 2.05336 40.6806 1.27009 40.7035 1.29802C40.8663 1.48761 40.9977 1.68926 41.0952 1.899C41.3396 2.56464 41.896 2.93192 42.8908 2.78328C45.1213 2.44981 47.2862 3.07388 49.5058 3.06359C50.6865 3.05869 51.7465 3.58323 53.0638 2.98894C53.9623 2.58377 55.3817 2.75434 56.5529 2.61172C57.2061 2.53189 58.0608 3.25177 58.5163 2.40266C59.0004 2.56028 59.471 2.7381 59.9256 2.93512C61.5639 3.73464 63.2537 4.21882 65.2139 3.58056C65.3618 3.53289 65.6147 3.63554 65.8187 3.67239C68.7964 4.18937 68.876 4.30357 71.1684 3.5491C72.1338 3.23128 71.8783 3.52092 72.062 3.86051C72.1169 3.96203 72.7323 4.05025 72.7657 4.00948C73.4369 3.20649 74.181 3.77259 74.8767 3.97323C75.6983 4.20907 76.3464 4.53971 77.3449 4.02515C78.3093 3.52908 79.3499 3.84505 79.8872 4.72147C80.0309 4.9547 80.3636 5.10234 80.6834 4.7652C81.0446 4.38486 81.3727 4.12213 82.1373 4.54672C82.3922 4.63042 82.6726 4.66693 82.9513 4.65267C83.23 4.63842 83.4973 4.57388 83.7273 4.46535C84.3753 3.9534 84.5933 4.41874 84.997 4.59331C85.2936 4.72136 85.8221 4.93176 85.9422 4.85912C87.3309 4.02553 89.0125 4.53207 90.5344 4.38918C92.0278 4.24949 93.7159 3.98135 95.0378 4.32286C97.1329 4.86432 99.2684 4.09487 101.252 4.78862C101.337 4.81892 101.55 4.75483 101.634 4.69015C102.979 3.64646 104.664 4.64022 106.15 4.3927C106.4 4.35114 106.753 4.63234 107.074 4.74199C107.441 4.91523 107.854 5.0331 108.288 5.08797C108.926 5.08802 109.678 4.74693 110.17 4.89784C110.488 5.03351 110.862 5.086 111.226 5.04578C111.59 5.00556 111.919 4.87529 112.153 4.67861C112.281 4.59183 112.781 4.81831 113.109 4.82059C114.183 4.91366 115.269 4.88137 116.323 4.72503C116.937 4.65802 117.544 4.56255 118.138 4.43929C118.918 4.13899 120.261 5.6959 120.555 4.09067C120.692 4.12284 120.886 4.12516 120.956 4.19137C121.464 4.67518 121.896 4.57625 122.688 4.40308C123.892 4.23898 125.125 4.19083 126.354 4.25998C126.621 4.23823 126.892 4.27687 127.127 4.3702C127.427 4.54338 127.12 5.06571 127.885 5.01182C129.183 4.98316 130.475 4.89124 131.751 4.73673C133.444 4.39838 135.236 4.34943 136.976 4.59404C137.136 4.61838 137.465 4.55557 137.481 4.49795C137.563 4.20754 137.429 3.69982 138.14 4.2281C138.637 4.59767 138.939 4.57731 139.636 4.36925C140.469 4.14315 141.377 4.07815 142.266 4.18105C143.336 4.20143 144.384 4.00007 145.279 3.60237C145.878 3.37525 146.221 3.25605 146.679 3.63595C146.885 3.81399 147.155 3.95114 147.46 4.0332C147.766 4.11525 148.095 4.13924 148.415 4.10268C149.251 4.0499 150.321 3.86188 150.887 4.13876C151.87 4.62057 152.276 3.48458 153.055 3.97121C154 3.51224 154.911 4.43512 156.043 3.95511C156.877 3.60154 158.128 3.89795 159.216 4.173C159.963 4.36203 160.922 4.07244 161.745 4.17751C162.441 4.31925 163.181 4.2968 163.849 4.11373C164.566 3.88671 165.303 4.42943 165.897 4.39177C167.517 4.29021 169.257 4.76219 170.787 3.95486C171.073 3.83761 171.397 3.77177 171.73 3.76321C172.063 3.75464 172.396 3.80361 172.699 3.90576C174.149 4.70289 175.311 3.90246 176.472 3.6708C177.228 3.52024 177.689 2.99123 177.889 3.95106C178.088 3.93106 178.292 3.92039 178.487 3.88695C179.792 3.60549 181.191 3.5905 182.521 3.84369C183.383 4.04739 184.318 4.01939 185.14 3.76526C186.222 3.32792 186.816 3.59753 187.564 4.06801C187.771 4.19864 188.199 4.15662 188.525 4.19351C188.515 3.96739 188.479 3.74188 188.418 3.519C188.377 3.40914 188.134 3.33687 188.077 3.22482C188.048 3.09872 188.051 2.97038 188.087 2.84593C188.292 2.8668 188.496 2.89589 188.697 2.93303C190.122 3.2519 191.418 3.78363 193.087 3.40193C194.38 3.19798 195.718 3.15521 197.04 3.27558C197.83 3.33447 198.604 3.47833 199.336 3.70202C200.803 4.09147 201.537 4.17037 202.691 3.90126C203.189 3.78589 203.855 3.39635 204.099 3.50729C205.775 4.27538 207.798 3.30757 209.394 4.14266C209.887 4.40027 210.105 4.41825 210.674 4.14039C211.505 3.75945 212.492 3.5732 213.494 3.60804C214.944 3.62823 216.424 3.70386 217.784 3.13967C219.335 2.49575 221.085 2.94479 222.619 3.18704C223.518 3.28836 224.425 3.33129 225.333 3.3153C226.022 3.33776 226.767 3.86688 227.419 3.27868C229.238 3.41922 231.011 2.98498 232.93 3.4659C234.26 3.80029 235.924 3.46318 237.438 3.41947C237.614 3.41492 237.901 3.41173 237.948 3.3427C239.088 1.68284 240.966 3.28175 242.38 2.89884C243.325 3.65249 244.17 3.1288 245.036 2.83125C245.62 2.63006 246.145 2.04182 246.875 2.7253C246.95 2.76119 247.039 2.7834 247.131 2.78994C247.22 2.79649 247.311 2.78716 247.395 2.76279C248.872 2.18816 250.084 2.59282 251.605 2.95892C253.144 3.33128 255.081 2.87912 256.841 2.75928C257.272 2.73013 257.81 2.42267 258.084 2.52631C259.534 3.07599 260.813 2.36125 262.178 2.38455C263.19 2.4017 264.18 2.42495 264.921 1.70047C265.234 1.39211 266.282 1.0659 266.52 2.00133C266.533 2.05983 266.595 2.15311 266.646 2.15733C268.061 2.28573 269.478 2.40474 270.892 2.52494C271.37 1.80989 272.202 2.95862 272.929 2.33045C273.305 2.00569 274.48 2.11458 275.3 2.06782C276.145 1.99267 276.999 1.97507 277.853 2.01521C278.814 2.12442 279.764 2.27535 280.7 2.46712C281.034 2.52272 281.574 2.72303 281.657 2.65192C282.922 1.53917 284.641 2.45229 286.08 2.1882C286.81 2.0549 287.065 2.32696 287.157 2.79344C287.17 2.86076 287.644 2.87877 287.893 2.93806C288.629 3.1143 287.617 1.72736 288.862 2.40789C289.707 2.86929 289.865 2.01174 290.535 2.05722C291.823 2.144 293.119 2.14744 294.411 2.1597C294.674 2.16197 294.941 1.99769 295.201 2.00528C295.721 2.02106 296.444 1.97284 296.718 2.18201C297.436 2.73838 297.843 2.64553 298.392 2.1122C298.544 1.96305 299.16 1.84428 299.298 1.92803C299.442 2.03859 299.618 2.12584 299.814 2.18338C300.009 2.24091 300.221 2.26728 300.432 2.26052C300.641 2.25376 300.848 2.21404 301.03 2.14431C301.215 2.07458 301.375 1.9766 301.495 1.85756C301.726 1.7071 302.736 1.81866 302.747 1.87251C302.956 2.79999 304.07 2.31199 304.64 2.55189C305.047 2.73123 305.529 2.81135 306.005 2.77962C306.481 2.74788 306.924 2.60609 307.268 2.37663C307.907 2.0354 308.298 1.87758 308.872 2.34789C309.399 1.90975 310.144 1.97684 310.849 1.95692C311.508 1.90681 312.17 1.89762 312.833 1.92945C313.144 1.96003 313.396 2.26326 313.707 2.40641C313.901 2.46377 314.105 2.49818 314.312 2.50819C314.174 1.79994 314.879 1.78764 315.537 1.85199C316.142 1.93408 316.741 2.04824 317.323 2.19341C317.746 2.28102 317.964 2.44556 318.618 2.25782C320.237 1.79272 322.034 2.20787 323.749 2.42737C324.256 3.57319 325.039 2.84131 325.739 2.58921C326.128 2.45023 326.493 2.28097 326.88 2.14257C327.772 1.90417 328.733 1.81117 329.689 1.87064C330.541 1.88692 331.755 2.07171 332.169 1.76303C332.974 1.16228 333.425 1.91455 334.059 1.8044C334.504 1.72528 335.078 2.0443 335.581 2.04147C336.477 2.07237 337.371 1.99782 338.227 1.82092C339.097 1.59662 339.744 1.10986 340.68 1.85303C340.976 2.08782 341.932 2.00874 342.551 1.93625C343.805 1.79986 345.075 1.75504 346.347 1.80252C348.976 1.82998 351.6 2.038 354.182 2.42356C355.205 2.61129 356.282 2.57876 357.267 2.33031C357.981 2.07076 358.773 1.92698 359.585 1.90944C360.396 1.89189 361.206 2.00105 361.953 2.22893C362.264 2.32058 362.598 2.36287 362.932 2.35272C363.265 2.34258 363.588 2.28025 363.881 2.1703C364.767 1.62861 365.492 1.99024 366.297 2.14826C367.553 2.28117 368.834 2.19064 370.017 1.88506C370.36 1.73949 370.749 1.65217 371.152 1.62997C371.554 1.60778 371.961 1.65132 372.339 1.75713C372.942 1.89754 373.574 1.95509 374.203 1.92659C375.077 1.85411 375.96 1.44674 376.772 1.53374C377.728 1.71736 378.713 1.81265 379.703 1.81718C380.646 1.75844 381.594 1.73336 382.541 1.74204C383.257 1.74138 383.96 1.58426 384.661 2.03408C384.959 2.22661 385.779 2.12414 386.304 2.01907C387.031 1.87524 387.14 0.681561 388.479 1.48497C389.089 1.84883 390.109 1.27425 390.837 1.84109C391.021 1.98483 391.693 1.84734 392.131 1.79879C392.338 1.77519 392.574 1.56021 392.709 1.59943C393.368 1.77754 394.019 2.20141 394.629 2.17239C395.271 2.14133 395.832 1.68706 396.644 1.76585C397.153 1.82513 397.673 1.78522 398.147 1.65052C398.621 1.51583 399.03 1.29158 399.328 1.00251C399.441 0.896917 399.586 0.810053 399.753 0.747906C399.92 0.685758 400.104 0.649779 400.293 0.642477C400.482 0.635175 400.674 0.656717 400.852 0.705598C401.029 0.754479 401.192 0.829541 401.325 0.925641C401.859 1.27328 402.526 1.50242 403.242 1.58314C403.958 1.66384 404.688 1.59239 405.337 1.3781C405.524 1.3223 405.733 1.31294 405.931 1.35157C406.974 1.50473 408.053 1.44146 409.034 1.16962C410.742 0.780959 412.577 0.72369 414.345 1.00387C416.064 1.2544 417.825 1.30885 419.56 1.16505C421.849 1.0744 424.237 1.43492 426.406 0.633502C426.624 0.552941 427.093 0.5375 427.22 0.634282C428.438 1.58187 429.886 0.289186 431.118 0.901268C432.17 0.053155 433.14 0.753254 433.876 1.14352C434.254 1.37533 434.724 1.52251 435.22 1.56563C435.716 1.60875 436.216 1.54574 436.654 1.38494C437.708 1.07563 438.809 0.8472 439.937 0.703556C440.599 0.623043 441.389 1.51122 442.016 0.625935C442.812 0.663173 443.6 0.785546 444.347 0.988751C446.22 1.74451 447.97 1.08468 449.473 0.668122C450.652 0.342492 451.084 0.591904 451.386 1.0893C451.697 1.59661 451.875 1.70346 452.536 1.41775C452.898 1.2614 453.506 1.04652 453.755 1.15155C455.187 1.75769 456.668 1.36304 458.118 1.40024C458.939 1.43716 459.755 1.30319 460.458 1.01531C460.972 0.807739 462.155 1.43084 462.722 1.24096C463.83 0.959755 464.999 0.810355 466.183 0.79891C467.937 0.640417 467.991 0.568369 468.871 1.20886C469.668 1.78797 470.286 2.021 471.402 1.51182C472.19 1.15281 473.455 1.72763 474.32 1.13747C474.383 1.11725 474.449 1.10792 474.516 1.11027C474.585 1.11261 474.652 1.12656 474.71 1.15091C476.885 2.27272 479.14 1.84699 481.184 1.17395C482.265 0.817543 483.034 1.15704 483.779 1.34317C484.649 1.55923 485.523 1.69084 486.083 1.31631C487.424 0.41807 488.906 0.781575 490.3 1.03565C491.012 1.1652 491.55 1.62996 492.144 0.965484C492.193 0.906389 492.642 1.01253 492.893 1.06712C494.346 1.38223 495.762 1.5892 496.93 0.651502C497.021 0.577957 497.317 0.613348 497.515 0.62386C498.24 0.661805 498.969 0.683298 499.688 0.764122C500.384 0.842786 501.236 1.2232 501.727 1.05807C503.282 0.533731 504.552 0.923795 505.926 1.36861C506.244 1.47126 506.776 1.25416 507.203 1.17052C507.343 1.14343 507.476 1.01967 507.594 1.03385C508.115 1.09536 508.121 1.88514 509.062 1.48017C509.656 1.31897 510.292 1.24802 510.932 1.27194C511.593 1.23192 512.258 1.23345 512.921 1.21626C513.583 1.19907 514.246 1.16433 514.909 1.17118C515.229 1.21432 515.561 1.19543 515.863 1.11659C516.166 1.03774 516.432 0.901936 516.63 0.723888C517.707 1.25469 518.948 0.937297 520.087 1.09521C522.571 1.44136 522.517 1.22195 525.082 1.01738C527.84 0.79696 530.76 0.199163 533.518 1.33971C533.751 1.4361 534.16 1.35848 534.472 1.314C534.99 1.2395 535.504 1.13633 536.008 1.02617C537.054 0.796734 537.959 1.33206 538.926 1.3244C539.714 1.31722 540.445 0.628004 541.313 1.2827C541.397 1.31294 541.493 1.32755 541.586 1.32514C541.682 1.32274 541.773 1.30339 541.855 1.26895C542.716 0.698764 543.615 1.15026 544.522 1.17659C545.418 1.20494 546.308 1.3165 547.169 1.50836C547.544 1.63243 547.951 1.69761 548.365 1.69922C548.777 1.70083 549.184 1.63884 549.555 1.51769C549.849 1.42391 550.171 1.37785 550.498 1.38288C550.825 1.38792 551.147 1.44392 551.441 1.54678C551.599 1.64053 551.784 1.71162 551.979 1.75589C552.177 1.80017 552.384 1.81674 552.589 1.80467C552.793 1.79259 552.991 1.75211 553.171 1.68557C553.354 1.61902 553.512 1.52773 553.641 1.41706C553.865 1.27369 554.535 1.38136 554.944 1.4867C555.522 1.63505 556.029 1.92655 556.603 2.08548C557.037 2.17076 557.479 2.22255 557.926 2.23993C557.548 2.36108 557.197 2.51795 556.883 2.70625C556.748 2.80891 556.888 3.08615 557.026 3.42322C556.839 3.39679 556.732 3.29576 556.639 3.3007C556.394 3.32401 556.149 3.36111 555.914 3.4117C555.951 3.49812 555.998 3.66012 556.029 3.65926C556.392 3.6525 556.739 3.56828 557.028 3.41795ZM152.839 6.60893C153.373 6.66885 153.911 6.70119 154.449 6.70567C154.55 6.70181 154.749 6.36691 154.685 6.23438C154.422 5.67856 153.754 6.0271 153.271 5.98927C153.186 5.98009 153.06 6.28266 152.839 6.60893ZM330.928 6.62596C330.654 6.61332 330.381 6.62269 330.112 6.65393C329.916 6.72148 329.731 6.80398 329.562 6.89994C329.754 7.03941 329.96 7.16868 330.178 7.28661C330.599 7.48214 331.17 6.77796 331.539 7.40436C331.646 7.31221 331.728 7.20725 331.782 7.09431C331.806 6.98385 331.762 6.78138 331.671 6.7564C331.43 6.69611 331.181 6.65316 330.928 6.62829V6.62596ZM150.359 6.37001C150.424 6.36474 150.536 6.37253 150.546 6.35368C150.77 5.91009 150.987 5.46481 151.188 5.01556C151.2 4.99083 151.042 4.88674 150.997 4.89594C150.861 4.93236 150.733 4.98207 150.617 5.04364C150.394 5.15081 150.228 5.30617 150.143 5.48657C150.058 5.66696 150.059 5.86274 150.146 6.04478C150.198 6.15936 150.27 6.26936 150.36 6.37238L150.359 6.37001ZM549.023 3.2447C549.088 3.30628 549.224 3.46685 549.248 3.45899C549.542 3.39191 549.811 3.28106 550.035 3.13402C550.104 3.07474 549.853 2.82784 549.746 2.66756L549.023 3.2447ZM118.902 8.44136C118.701 8.53761 118.476 8.60123 118.484 8.64807C118.533 8.82419 118.605 8.99704 118.7 9.16443C118.821 9.11114 119.043 9.05987 119.044 9.00476C119.023 8.81536 118.976 8.62745 118.904 8.44368L118.902 8.44136ZM553.427 3.52822C553.656 3.62463 553.821 3.74977 553.952 3.73626C554.194 3.69049 554.428 3.62211 554.644 3.53292C554.495 3.47095 554.341 3.35159 554.199 3.36107C553.934 3.39583 553.674 3.45271 553.427 3.53053V3.52822ZM271.98 7.48864C272.211 7.58563 272.373 7.71077 272.505 7.69726C272.749 7.65122 272.981 7.58286 273.198 7.49392C273.049 7.43195 272.894 7.31258 272.754 7.32207C272.487 7.35686 272.229 7.41354 271.982 7.49095L271.98 7.48864ZM299.849 5.90388C299.989 6.04625 300.085 6.2043 300.152 6.19959C300.403 6.16852 300.65 6.1211 300.888 6.058C300.81 5.97251 300.732 5.81609 300.652 5.81505C300.381 5.82734 300.112 5.85788 299.851 5.90623L299.849 5.90388ZM189.376 4.99495L189.021 4.65515C188.913 4.8141 188.835 4.98281 188.791 5.15682C188.785 5.24894 188.977 5.35157 189.08 5.44738C189.188 5.29217 189.291 5.13292 189.378 4.99725L189.376 4.99495ZM141.345 7.51538L141.154 7.66193C141.278 7.71035 141.409 7.74853 141.545 7.77564C141.592 7.78225 141.663 7.69248 141.722 7.64679L141.345 7.51538ZM148.663 9.06346C148.729 9.10625 148.813 9.19169 148.859 9.18307C148.99 9.14903 149.115 9.10398 149.231 9.04891C149.164 9.0067 149.081 8.92127 149.034 8.92991C148.904 8.96471 148.78 9.01034 148.665 9.0658L148.663 9.06346ZM475.592 5.48319L475.379 5.34674C475.312 5.43241 475.261 5.52342 475.223 5.61791C475.217 5.65081 475.346 5.70121 475.412 5.744L475.592 5.48319ZM322.67 3.25226C322.612 3.29795 322.49 3.35477 322.503 3.38749C322.554 3.47989 322.621 3.56785 322.701 3.64952C322.761 3.60382 322.883 3.54704 322.87 3.51432C322.819 3.42289 322.754 3.33572 322.674 3.25458L322.67 3.25226ZM318.173 5.01666L317.982 5.16263C318.106 5.21123 318.237 5.24941 318.373 5.27634C318.42 5.28237 318.489 5.1932 318.549 5.1475L318.173 5.01666ZM315.838 4.27919L315.646 4.42577C315.771 4.47427 315.902 4.51241 316.038 4.53945C316.085 4.54546 316.156 4.45629 316.216 4.4106L315.838 4.27919ZM294.122 5.76734C294.189 5.81012 294.271 5.89554 294.318 5.8869C294.449 5.8527 294.574 5.80789 294.689 5.75335C294.625 5.71057 294.54 5.62513 294.494 5.63318C294.365 5.66877 294.24 5.71497 294.127 5.7708L294.122 5.76734ZM292.363 6.15277L292.15 6.01636C292.083 6.10196 292.029 6.19298 291.994 6.28752C291.985 6.32043 292.114 6.37141 292.181 6.41362L292.363 6.15277ZM278.814 6.55434C278.881 6.59655 278.965 6.68196 279.01 6.67393C279.143 6.63965 279.268 6.5946 279.384 6.53975C279.317 6.49697 279.232 6.41156 279.186 6.42018C279.057 6.45542 278.934 6.50163 278.819 6.55782L278.814 6.55434ZM277.796 7.03274L278.009 7.16858C278.076 7.08306 278.129 6.99202 278.165 6.89742C278.171 6.86452 278.042 6.81412 277.976 6.77133L277.796 7.03274ZM271.875 5.13531C271.942 5.17752 272.024 5.26295 272.071 5.25432C272.202 5.22024 272.327 5.17542 272.442 5.12075C272.376 5.07797 272.291 4.99253 272.247 5.00115C272.115 5.03732 271.993 5.08453 271.88 5.14172L271.875 5.13531ZM260.304 3.77905L260.09 3.64263C260.023 3.72824 259.97 3.81923 259.934 3.91376C259.925 3.94667 260.054 3.99769 260.121 4.03988L260.304 3.77905ZM180.018 4.94368L179.663 5.09412C179.73 5.13632 179.814 5.22232 179.86 5.21369C179.991 5.17941 180.116 5.13441 180.231 5.07956L180.018 4.94368ZM558.024 3.05176C558.253 3.13027 558.496 3.1872 558.745 3.22108C558.878 3.22808 559.021 3.09484 559.156 3.025L558.5 2.8111L558.024 3.05176ZM128.799 9.7695C128.65 9.7983 128.508 9.84246 128.377 9.90058C128.344 9.92024 128.449 10.0559 128.49 10.1382L128.817 9.94642C128.809 9.88728 128.804 9.82868 128.799 9.7695Z" fill="#26AC47"/>
</g>
</g>
<defs>
<clipPath id="clip0_107_2743">
<rect width="240.66" height="10.33" fill="white" transform="translate(0.5 0.5)"/>
</clipPath>
<clipPath id="clip1_107_2743">
<rect width="240.407" height="10.33" fill="white" transform="translate(0.625977 0.5)"/>
</clipPath>
</defs>
</svg>
