<svg width="375" height="189" viewBox="0 0 375 189" fill="none" xmlns="http://www.w3.org/2000/svg">
<path d="M231.618 188.5C231.618 182.706 230.477 176.969 228.26 171.617C226.042 166.264 222.793 161.401 218.696 157.304C214.599 153.207 209.736 149.958 204.383 147.741C199.031 145.523 193.294 144.382 187.5 144.382C181.707 144.382 175.97 145.523 170.617 147.741C165.264 149.958 160.401 153.207 156.304 157.304C152.208 161.401 148.958 166.264 146.741 171.617C144.524 176.969 143.382 182.706 143.382 188.5M259.191 188.5C259.191 169.486 251.638 151.251 238.193 137.807C224.749 124.362 206.514 116.809 187.5 116.809C168.486 116.809 150.252 124.362 136.807 137.807C123.362 151.251 115.809 169.486 115.809 188.5M303.309 188.5C303.309 157.786 291.108 128.329 269.389 106.611C247.671 84.8924 218.215 72.6911 187.5 72.6911C156.786 72.6911 127.329 84.8924 105.611 106.611C83.8925 128.329 71.6913 157.786 71.6913 188.5M375 188.5C375 138.772 355.246 91.0806 320.083 55.9175C284.92 20.7544 237.228 1.00002 187.5 1C137.772 0.999981 90.0806 20.7544 54.9175 55.9174C19.7545 91.0805 1.33631e-05 138.772 -9.36141e-06 188.5" stroke="#207305"/>
</svg>
