<svg width="375" height="188" viewBox="0 0 375 188" fill="none" xmlns="http://www.w3.org/2000/svg">
<path d="M143.382 6.26375e-05C143.382 5.79368 144.523 11.5306 146.74 16.8832C148.958 22.2358 152.207 27.0993 156.304 31.196C160.401 35.2927 165.264 38.5423 170.617 40.7595C175.969 42.9766 181.706 44.1177 187.5 44.1177C193.293 44.1177 199.03 42.9766 204.383 40.7595C209.736 38.5424 214.599 35.2927 218.696 31.196C222.792 27.0993 226.042 22.2358 228.259 16.8832C230.476 11.5306 231.618 5.7937 231.618 8.95647e-05M115.809 6.26375e-05C115.809 19.0137 123.362 37.2487 136.807 50.6934C150.251 64.1381 168.486 71.6912 187.5 71.6912C206.514 71.6913 224.748 64.1381 238.193 50.6934C251.638 37.2487 259.191 19.0138 259.191 0.000116492M71.6911 8.78293e-06C71.6911 30.7144 83.8923 60.1708 105.611 81.8892C127.329 103.608 156.785 115.809 187.5 115.809C218.214 115.809 247.671 103.608 269.389 81.8893C291.107 60.1709 303.309 30.7145 303.309 8.95647e-05M0 -5.85352e-05C-1.52158e-05 49.728 19.7544 97.4194 54.9174 132.582C90.0805 167.746 137.772 187.5 187.5 187.5C237.228 187.5 284.919 167.746 320.082 132.583C355.246 97.4195 375 49.7282 375 7.61011e-05" stroke="#5C5C5C"/>
</svg>
