<svg width="100%" height="100%" viewBox="0 0 102 72" fill="none" xmlns="http://www.w3.org/2000/svg" preserveAspectRatio="xMidYMid meet">
<path d="M17.352 67.256L17.1074 67.6921L17.1096 67.6933L17.352 67.256ZM4.776 54.968L4.34312 55.2183L4.34679 55.2245L4.776 54.968ZM4.776 19.352L4.34678 19.0955L4.34449 19.0994L4.776 19.352ZM17.352 7.064L17.1096 6.62667L17.1074 6.62793L17.352 7.064ZM52.2 7.064L51.9554 7.50008L51.9576 7.50133L52.2 7.064ZM64.68 19.352L64.2462 19.6006L64.2485 19.6046L64.68 19.352ZM64.68 54.968L65.1115 55.2206L65.1128 55.2183L64.68 54.968ZM52.2 67.256L52.4446 67.6921L52.2 67.256ZM47.688 51.32L47.3183 50.9833L47.315 50.987L47.688 51.32ZM47.688 22.904L47.315 23.2371L47.3214 23.244L47.688 22.904ZM21.768 22.808L21.4014 22.468L21.398 22.4717L21.768 22.808ZM21.768 51.416L21.395 51.7491L21.4014 51.756L21.768 51.416ZM34.824 71.172C28.569 71.172 22.8289 69.7198 17.5944 66.8187L17.1096 67.6933C22.4991 70.6802 28.407 72.172 34.824 72.172V71.172ZM17.5966 66.8199C12.426 63.9194 8.29717 59.8858 5.20521 54.7115L4.34679 55.2245C7.52683 60.5462 11.782 64.7046 17.1074 67.6921L17.5966 66.8199ZM5.20883 54.7177C2.18409 49.4874 0.668 43.6229 0.668 37.112H-0.332C-0.332 43.7851 1.22391 49.8246 4.34317 55.2183L5.20883 54.7177ZM0.668 37.112C0.668 30.6011 2.1841 24.7696 5.20751 19.6046L4.34449 19.0994C1.2239 24.4304 -0.332 30.4389 -0.332 37.112H0.668ZM5.20521 19.6085C8.29717 14.4342 12.426 10.4006 17.5966 7.50007L17.1074 6.62793C11.782 9.61536 7.52683 13.7738 4.34679 19.0955L5.20521 19.6085ZM17.5944 7.50133C22.8289 4.60024 28.569 3.148 34.824 3.148V2.148C28.407 2.148 22.4991 3.63976 17.1096 6.62667L17.5944 7.50133ZM34.824 3.148C41.079 3.148 46.7861 4.60023 51.9554 7.50007L52.4446 6.62793C47.1179 3.63977 41.241 2.148 34.824 2.148V3.148ZM51.9576 7.50133C57.1901 10.4013 61.2838 14.4322 64.2462 19.6006L65.1138 19.1034C62.0602 13.7758 57.8339 9.61473 52.4424 6.62667L51.9576 7.50133ZM64.2485 19.6046C67.2719 24.7696 68.788 30.6011 68.788 37.112H69.788C69.788 30.4389 68.2321 24.4304 65.1115 19.0994L64.2485 19.6046ZM68.788 37.112C68.788 43.6229 67.2719 49.4874 64.2472 54.7177L65.1128 55.2183C68.2321 49.8246 69.788 43.7851 69.788 37.112H68.788ZM64.2485 54.7154C61.2209 59.8876 57.125 63.9199 51.9554 66.8199L52.4446 67.6921C57.771 64.7041 61.9951 60.5444 65.1115 55.2206L64.2485 54.7154ZM51.9554 66.8199C46.7861 69.7198 41.079 71.172 34.824 71.172V72.172C41.241 72.172 47.1179 70.6802 52.4446 67.6921L51.9554 66.8199ZM34.824 57.196C40.3236 57.196 44.7542 55.3566 48.061 51.653L47.315 50.987C44.2218 54.4514 40.0764 56.196 34.824 56.196V57.196ZM48.0577 51.6567C51.4227 47.9617 53.084 43.0964 53.084 37.112H52.084C52.084 42.9036 50.4813 47.5103 47.3183 50.9833L48.0577 51.6567ZM53.084 37.112C53.084 31.0656 51.4237 26.1973 48.0546 22.564L47.3214 23.244C50.4803 26.6507 52.084 31.2544 52.084 37.112H53.084ZM48.061 22.571C44.7542 18.8674 40.3236 17.028 34.824 17.028V18.028C40.0764 18.028 44.2218 19.7726 47.315 23.237L48.061 22.571ZM34.824 17.028C29.2653 17.028 24.773 18.8319 21.4014 22.468L22.1346 23.148C25.291 19.7441 29.5027 18.028 34.824 18.028V17.028ZM21.398 22.4717C18.0939 26.1062 16.468 31.0058 16.468 37.112H17.468C17.468 31.1862 19.0421 26.5498 22.138 23.1443L21.398 22.4717ZM16.468 37.112C16.468 43.1563 18.0949 48.0529 21.395 51.749L22.141 51.083C19.0411 47.6111 17.468 42.9717 17.468 37.112H16.468ZM21.4014 51.756C24.773 55.3921 29.2653 57.196 34.824 57.196V56.196C29.5027 56.196 25.291 54.4799 22.1346 51.076L21.4014 51.756ZM75.0608 16.184H74.5608V16.684H75.0608V16.184ZM75.0608 0.919998V0.419998H74.5608V0.919998H75.0608ZM101.653 0.919998H102.153V0.419998H101.653V0.919998ZM101.653 71V71.5H102.153V71H101.653ZM84.5648 71H84.0648V71.5H84.5648V71ZM84.5648 16.184H85.0648V15.684H84.5648V16.184ZM75.5608 16.184V0.919998H74.5608V16.184H75.5608ZM75.0608 1.42H101.653V0.419998H75.0608V1.42ZM101.153 0.919998V71H102.153V0.919998H101.153ZM101.653 70.5H84.5648V71.5H101.653V70.5ZM85.0648 71V16.184H84.0648V71H85.0648ZM84.5648 15.684H75.0608V16.684H84.5648V15.684Z" fill="url(#paint0_linear_107_7579)"/>
<defs>
<linearGradient id="paint0_linear_107_7579" x1="53" y1="-35" x2="53" y2="109" gradientUnits="userSpaceOnUse">
<stop stop-color="#D6D6D6"/>
<stop offset="1" stop-color="#C0C0C0"/>
</linearGradient>
</defs>
</svg>
