<svg width="100%" height="100%" viewBox="0 0 125 73" fill="none" xmlns="http://www.w3.org/2000/svg" preserveAspectRatio="xMidYMid meet">
<path d="M17.352 68.256L17.1074 68.6921L17.1096 68.6933L17.352 68.256ZM4.776 55.968L4.34312 56.2183L4.34679 56.2245L4.776 55.968ZM4.776 20.352L4.34678 20.0955L4.34449 20.0994L4.776 20.352ZM17.352 8.064L17.1096 7.62667L17.1074 7.62793L17.352 8.064ZM52.2 8.064L51.9554 8.50008L51.9576 8.50133L52.2 8.064ZM64.68 20.352L64.2462 20.6006L64.2485 20.6046L64.68 20.352ZM64.68 55.968L65.1115 56.2206L65.1128 56.2183L64.68 55.968ZM52.2 68.256L52.4446 68.6921L52.2 68.256ZM47.688 52.32L47.3183 51.9833L47.315 51.987L47.688 52.32ZM47.688 23.904L47.315 24.2371L47.3214 24.244L47.688 23.904ZM21.768 23.808L21.4014 23.468L21.398 23.4717L21.768 23.808ZM21.768 52.416L21.395 52.7491L21.4014 52.756L21.768 52.416ZM34.824 72.172C28.569 72.172 22.8289 70.7198 17.5944 67.8187L17.1096 68.6933C22.4991 71.6802 28.407 73.172 34.824 73.172V72.172ZM17.5966 67.8199C12.426 64.9194 8.29717 60.8858 5.20521 55.7115L4.34679 56.2245C7.52683 61.5462 11.782 65.7046 17.1074 68.6921L17.5966 67.8199ZM5.20883 55.7177C2.18409 50.4874 0.668 44.6229 0.668 38.112H-0.332C-0.332 44.7851 1.22391 50.8246 4.34317 56.2183L5.20883 55.7177ZM0.668 38.112C0.668 31.6011 2.1841 25.7696 5.20751 20.6046L4.34449 20.0994C1.2239 25.4304 -0.332 31.4389 -0.332 38.112H0.668ZM5.20521 20.6085C8.29717 15.4342 12.426 11.4006 17.5966 8.50007L17.1074 7.62793C11.782 10.6154 7.52683 14.7738 4.34679 20.0955L5.20521 20.6085ZM17.5944 8.50133C22.8289 5.60024 28.569 4.148 34.824 4.148V3.148C28.407 3.148 22.4991 4.63976 17.1096 7.62667L17.5944 8.50133ZM34.824 4.148C41.079 4.148 46.7861 5.60023 51.9554 8.50007L52.4446 7.62793C47.1179 4.63977 41.241 3.148 34.824 3.148V4.148ZM51.9576 8.50133C57.1901 11.4013 61.2838 15.4322 64.2462 20.6006L65.1138 20.1034C62.0602 14.7758 57.8339 10.6147 52.4424 7.62667L51.9576 8.50133ZM64.2485 20.6046C67.2719 25.7696 68.788 31.6011 68.788 38.112H69.788C69.788 31.4389 68.2321 25.4304 65.1115 20.0994L64.2485 20.6046ZM68.788 38.112C68.788 44.6229 67.2719 50.4874 64.2472 55.7177L65.1128 56.2183C68.2321 50.8246 69.788 44.7851 69.788 38.112H68.788ZM64.2485 55.7154C61.2209 60.8876 57.125 64.9199 51.9554 67.8199L52.4446 68.6921C57.771 65.7041 61.9951 61.5444 65.1115 56.2206L64.2485 55.7154ZM51.9554 67.8199C46.7861 70.7198 41.079 72.172 34.824 72.172V73.172C41.241 73.172 47.1179 71.6802 52.4446 68.6921L51.9554 67.8199ZM34.824 58.196C40.3236 58.196 44.7542 56.3566 48.061 52.653L47.315 51.987C44.2218 55.4514 40.0764 57.196 34.824 57.196V58.196ZM48.0577 52.6567C51.4227 48.9617 53.084 44.0964 53.084 38.112H52.084C52.084 43.9036 50.4813 48.5103 47.3183 51.9833L48.0577 52.6567ZM53.084 38.112C53.084 32.0656 51.4237 27.1973 48.0546 23.564L47.3214 24.244C50.4803 27.6507 52.084 32.2544 52.084 38.112H53.084ZM48.061 23.571C44.7542 19.8674 40.3236 18.028 34.824 18.028V19.028C40.0764 19.028 44.2218 20.7726 47.315 24.237L48.061 23.571ZM34.824 18.028C29.2653 18.028 24.773 19.8319 21.4014 23.468L22.1346 24.148C25.291 20.7441 29.5027 19.028 34.824 19.028V18.028ZM21.398 23.4717C18.0939 27.1062 16.468 32.0058 16.468 38.112H17.468C17.468 32.1862 19.0421 27.5498 22.138 24.1443L21.398 23.4717ZM16.468 38.112C16.468 44.1563 18.0949 49.0529 21.395 52.749L22.141 52.083C19.0411 48.6111 17.468 43.9717 17.468 38.112H16.468ZM21.4014 52.756C24.773 56.3921 29.2653 58.196 34.824 58.196V57.196C29.5027 57.196 25.291 55.4799 22.1346 52.076L21.4014 52.756ZM76.2128 58.848L75.9018 58.4564L75.7128 58.6066V58.848H76.2128ZM79.1888 56.448L78.8702 56.0626L79.4661 56.864L79.1888 56.448ZM93.9727 43.68L93.6358 43.3106L93.6325 43.3136L93.9727 43.68ZM105.109 16.416L104.723 16.7344L105.109 16.416ZM93.8767 16.992L93.4784 16.6898L93.4768 16.692L93.8767 16.992ZM91.8607 24.672V25.172H92.3607V24.672H91.8607ZM76.0208 24.672L75.5209 24.6602L75.5089 25.172H76.0208V24.672ZM79.4768 11.04L79.0506 10.7783L79.0473 10.7839L79.4768 11.04ZM88.2128 2.976L87.9987 2.52412L87.9956 2.52561L88.2128 2.976ZM117.493 6.23999L117.136 6.59063L117.139 6.59355L117.493 6.23999ZM116.341 40.608L116.731 40.9209L116.732 40.9188L116.341 40.608ZM98.4848 57.696L98.1797 57.2998L97.0157 58.196H98.4848V57.696ZM124.405 57.696H124.905V57.196H124.405V57.696ZM124.405 71.04V71.54H124.905V71.04H124.405ZM76.2128 71.04H75.7128V71.54H76.2128V71.04ZM76.5237 59.2396C77.6118 58.3755 78.4051 57.7425 78.9026 57.3412C79.1506 57.1412 79.3281 56.9964 79.4323 56.9089C79.4775 56.8709 79.5273 56.8285 79.5588 56.7971C79.5589 56.7969 79.5971 56.7606 79.6303 56.7096C79.64 56.6948 79.663 56.6583 79.6817 56.607C79.693 56.5761 79.7482 56.4238 79.6744 56.2446C79.5772 56.0085 79.3623 55.9471 79.2605 55.9371C79.1698 55.9283 79.0999 55.9469 79.0793 55.9525C79.0279 55.9665 78.9901 55.986 78.9821 55.99C78.9673 55.9975 78.9553 56.0045 78.9482 56.0087C78.9336 56.0173 78.9205 56.0259 78.9114 56.032L79.4661 56.864C79.469 56.8621 79.4656 56.8645 79.4584 56.8687C79.4549 56.8708 79.4461 56.876 79.4338 56.8822C79.4283 56.885 79.3924 56.9036 79.3424 56.9173C79.3225 56.9227 79.2532 56.9412 79.1629 56.9324C79.0615 56.9224 78.8468 56.8612 78.7497 56.6254C78.676 56.4464 78.7312 56.2945 78.7423 56.2641C78.7609 56.2133 78.7836 56.1774 78.7927 56.1633C78.813 56.1323 78.832 56.1111 78.8364 56.1062C78.8437 56.098 78.8494 56.0922 78.8517 56.0899C78.8572 56.0845 78.844 56.0971 78.7892 56.1432C78.6934 56.2236 78.5229 56.3628 78.2749 56.5628C77.7804 56.9615 76.9897 57.5925 75.9018 58.4564L76.5237 59.2396ZM79.5073 56.8334C85.7825 51.6467 90.7189 47.3838 94.313 44.0464L93.6325 43.3136C90.0586 46.6322 85.139 50.8813 78.8702 56.0626L79.5073 56.8334ZM94.3097 44.0494C97.983 40.6984 101.081 37.1816 103.601 33.4983L102.776 32.9337C100.304 36.5464 97.2585 40.0056 93.6358 43.3106L94.3097 44.0494ZM103.601 33.4983C106.138 29.7903 107.433 26.1416 107.433 22.56H106.433C106.433 25.8904 105.231 29.3457 102.776 32.9337L103.601 33.4983ZM107.433 22.56C107.433 19.863 106.808 17.6876 105.494 16.0976L104.723 16.7344C105.842 18.0883 106.433 20.009 106.433 22.56H107.433ZM105.494 16.0976C104.158 14.4803 102.174 13.708 99.6367 13.708V14.708C101.964 14.708 103.627 15.4076 104.723 16.7344L105.494 16.0976ZM99.6367 13.708C97.0564 13.708 94.9857 14.7029 93.4784 16.6898L94.2751 17.2942C95.5838 15.5691 97.3531 14.708 99.6367 14.708V13.708ZM93.4768 16.692C92.0431 18.6035 91.3607 21.2859 91.3607 24.672H92.3607C92.3607 21.4021 93.0224 18.9645 94.2767 17.292L93.4768 16.692ZM91.8607 24.172H76.0208V25.172H91.8607V24.172ZM76.5206 24.6838C76.6471 19.3062 77.785 14.8521 79.9062 11.2961L79.0473 10.7839C76.8165 14.5239 75.6504 19.1578 75.5209 24.6602L76.5206 24.6838ZM79.9028 11.3016C82.0967 7.72879 84.9388 5.1096 88.4299 3.42638L87.9956 2.52561C84.3187 4.29839 81.3368 7.0552 79.0507 10.7784L79.9028 11.3016ZM88.4268 3.42786C92.0018 1.73444 95.9597 0.883995 100.309 0.883995V-0.116005C95.8258 -0.116005 91.7197 0.761547 87.9987 2.52413L88.4268 3.42786ZM100.309 0.883995C107.844 0.883995 113.422 2.81452 117.136 6.59061L117.849 5.88937C113.883 1.85747 108.005 -0.116005 100.309 -0.116005V0.883995ZM117.139 6.59355C120.936 10.3908 122.849 15.345 122.849 21.504H123.849C123.849 15.119 121.857 9.89724 117.846 5.88644L117.139 6.59355ZM122.849 21.504C122.849 28.228 120.558 34.4884 115.949 40.2972L116.732 40.9188C121.467 34.9516 123.849 28.476 123.849 21.504H122.849ZM115.951 40.2951C111.308 46.0821 105.387 51.7509 98.1797 57.2998L98.7898 58.0922C106.047 52.5051 112.029 46.7819 116.731 40.9209L115.951 40.2951ZM98.4848 58.196H124.405V57.196H98.4848V58.196ZM123.905 57.696V71.04H124.905V57.696H123.905ZM124.405 70.54H76.2128V71.54H124.405V70.54ZM76.7128 71.04V58.848H75.7128V71.04H76.7128Z" fill="url(#paint0_linear_107_7585)"/>
<defs>
<linearGradient id="paint0_linear_107_7585" x1="62.5" y1="-34" x2="62.5" y2="110" gradientUnits="userSpaceOnUse">
<stop stop-color="#D6D6D6"/>
<stop offset="1" stop-color="#C0C0C0"/>
</linearGradient>
</defs>
</svg>
