<svg width="100%" height="100%" viewBox="0 0 126 73" fill="none" xmlns="http://www.w3.org/2000/svg" preserveAspectRatio="xMidYMid meet">
<path d="M17.352 68.256L17.1074 68.6921L17.1096 68.6933L17.352 68.256ZM4.776 55.968L4.34312 56.2183L4.34679 56.2245L4.776 55.968ZM4.776 20.352L4.34678 20.0955L4.34449 20.0994L4.776 20.352ZM17.352 8.064L17.1096 7.62667L17.1074 7.62793L17.352 8.064ZM52.2 8.064L51.9554 8.50008L51.9576 8.50133L52.2 8.064ZM64.68 20.352L64.2462 20.6006L64.2485 20.6046L64.68 20.352ZM64.68 55.968L65.1115 56.2206L65.1128 56.2183L64.68 55.968ZM52.2 68.256L52.4446 68.6921L52.2 68.256ZM47.688 52.32L47.3183 51.9833L47.315 51.987L47.688 52.32ZM47.688 23.904L47.315 24.2371L47.3214 24.244L47.688 23.904ZM21.768 23.808L21.4014 23.468L21.398 23.4717L21.768 23.808ZM21.768 52.416L21.395 52.7491L21.4014 52.756L21.768 52.416ZM34.824 72.172C28.569 72.172 22.8289 70.7198 17.5944 67.8187L17.1096 68.6933C22.4991 71.6802 28.407 73.172 34.824 73.172V72.172ZM17.5966 67.8199C12.426 64.9194 8.29717 60.8858 5.20521 55.7115L4.34679 56.2245C7.52683 61.5462 11.782 65.7046 17.1074 68.6921L17.5966 67.8199ZM5.20883 55.7177C2.18409 50.4874 0.668 44.6229 0.668 38.112H-0.332C-0.332 44.7851 1.22391 50.8246 4.34317 56.2183L5.20883 55.7177ZM0.668 38.112C0.668 31.6011 2.1841 25.7696 5.20751 20.6046L4.34449 20.0994C1.2239 25.4304 -0.332 31.4389 -0.332 38.112H0.668ZM5.20521 20.6085C8.29717 15.4342 12.426 11.4006 17.5966 8.50007L17.1074 7.62793C11.782 10.6154 7.52683 14.7738 4.34679 20.0955L5.20521 20.6085ZM17.5944 8.50133C22.8289 5.60024 28.569 4.148 34.824 4.148V3.148C28.407 3.148 22.4991 4.63976 17.1096 7.62667L17.5944 8.50133ZM34.824 4.148C41.079 4.148 46.7861 5.60023 51.9554 8.50007L52.4446 7.62793C47.1179 4.63977 41.241 3.148 34.824 3.148V4.148ZM51.9576 8.50133C57.1901 11.4013 61.2838 15.4322 64.2462 20.6006L65.1138 20.1034C62.0602 14.7758 57.8339 10.6147 52.4424 7.62667L51.9576 8.50133ZM64.2485 20.6046C67.2719 25.7696 68.788 31.6011 68.788 38.112H69.788C69.788 31.4389 68.2321 25.4304 65.1115 20.0994L64.2485 20.6046ZM68.788 38.112C68.788 44.6229 67.2719 50.4874 64.2472 55.7177L65.1128 56.2183C68.2321 50.8246 69.788 44.7851 69.788 38.112H68.788ZM64.2485 55.7154C61.2209 60.8876 57.125 64.9199 51.9554 67.8199L52.4446 68.6921C57.771 65.7041 61.9951 61.5444 65.1115 56.2206L64.2485 55.7154ZM51.9554 67.8199C46.7861 70.7198 41.079 72.172 34.824 72.172V73.172C41.241 73.172 47.1179 71.6802 52.4446 68.6921L51.9554 67.8199ZM34.824 58.196C40.3236 58.196 44.7542 56.3566 48.061 52.653L47.315 51.987C44.2218 55.4514 40.0764 57.196 34.824 57.196V58.196ZM48.0577 52.6567C51.4227 48.9617 53.084 44.0964 53.084 38.112H52.084C52.084 43.9036 50.4813 48.5103 47.3183 51.9833L48.0577 52.6567ZM53.084 38.112C53.084 32.0656 51.4237 27.1973 48.0546 23.564L47.3214 24.244C50.4803 27.6507 52.084 32.2544 52.084 38.112H53.084ZM48.061 23.571C44.7542 19.8674 40.3236 18.028 34.824 18.028V19.028C40.0764 19.028 44.2218 20.7726 47.315 24.237L48.061 23.571ZM34.824 18.028C29.2653 18.028 24.773 19.8319 21.4014 23.468L22.1346 24.148C25.291 20.7441 29.5027 19.028 34.824 19.028V18.028ZM21.398 23.4717C18.0939 27.1062 16.468 32.0058 16.468 38.112H17.468C17.468 32.1862 19.0421 27.5498 22.138 24.1443L21.398 23.4717ZM16.468 38.112C16.468 44.1563 18.0949 49.0529 21.395 52.749L22.141 52.083C19.0411 48.6111 17.468 43.9717 17.468 38.112H16.468ZM21.4014 52.756C24.773 56.3921 29.2653 58.196 34.824 58.196V57.196C29.5027 57.196 25.291 55.4799 22.1346 52.076L21.4014 52.756ZM77.3648 21.696L76.8651 21.6773L76.8457 22.196H77.3648V21.696ZM84.0847 5.856L84.4148 6.23158L84.0847 5.856ZM113.557 2.784L113.337 3.23291L113.34 3.2345L113.557 2.784ZM121.333 9.6L120.904 9.85728L120.908 9.86415L121.333 9.6ZM120.853 29.664L121.242 29.9775L121.246 29.9729L120.853 29.664ZM113.461 35.04L113.299 34.5667L112.961 34.6822V35.04H113.461ZM113.461 35.424H112.961V35.7844L113.303 35.8983L113.461 35.424ZM122.485 62.88L122.057 62.6214L122.055 62.6241L122.485 62.88ZM114.517 69.984L114.296 69.5352L114.293 69.5368L114.517 69.984ZM83.7008 66.912L83.3812 67.2966L83.3838 67.2987L83.7008 66.912ZM76.5007 49.824V49.324H75.9837L76.001 49.8408L76.5007 49.824ZM92.4368 49.824L92.9366 49.8126L92.9255 49.324H92.4368V49.824ZM94.8368 56.544L94.4693 56.8832L94.4761 56.8903L94.8368 56.544ZM107.317 56.832L106.955 56.4864L106.955 56.4868L107.317 56.832ZM106.453 44.448L106.157 44.8512L106.165 44.8567L106.172 44.862L106.453 44.448ZM94.0687 42.336H93.5687V42.836H94.0687V42.336ZM94.0687 28.992V28.492H93.5687V28.992H94.0687ZM105.013 27.36L105.253 27.7984L105.258 27.7958L105.013 27.36ZM106.165 15.936L106.518 15.5824L106.165 15.936ZM95.4128 16.224L95.0271 15.9054L95.019 15.9158L95.4128 16.224ZM93.3968 21.696V22.196H93.8546L93.8948 21.7399L93.3968 21.696ZM77.8644 21.7147C78.1165 14.9717 80.3159 9.83365 84.4148 6.23158L83.7547 5.48042C79.4056 9.30234 77.125 14.7243 76.8651 21.6773L77.8644 21.7147ZM84.4148 6.23158C88.5239 2.62054 94.1226 0.787994 101.269 0.787994V-0.212006C93.9509 -0.212006 88.0936 1.66745 83.7547 5.48042L84.4148 6.23158ZM101.269 0.787994C106.012 0.787994 110.029 1.61035 113.337 3.23289L113.777 2.3351C110.3 0.629646 106.125 -0.212006 101.269 -0.212006V0.787994ZM113.34 3.2345C116.721 4.86233 119.233 7.07241 120.904 9.85724L121.761 9.34275C119.976 6.36758 117.305 4.03366 113.774 2.3335L113.34 3.2345ZM120.908 9.86415C122.648 12.6603 123.521 15.7998 123.521 19.296H124.521C124.521 15.6242 123.601 12.2997 121.757 9.33585L120.908 9.86415ZM123.521 19.296C123.521 23.435 122.487 26.7743 120.46 29.3551L121.246 29.9729C123.442 27.1777 124.521 23.605 124.521 19.296H123.521ZM120.463 29.3505C118.403 31.9107 116.014 33.6412 113.299 34.5667L113.622 35.5133C116.539 34.5188 119.079 32.6653 121.242 29.9775L120.463 29.3505ZM112.961 35.04V35.424H113.961V35.04H112.961ZM113.303 35.8983C116.863 37.0853 119.655 39.0449 121.701 41.772L122.501 41.172C120.322 38.2671 117.354 36.1947 113.619 34.9497L113.303 35.8983ZM121.701 41.772C123.733 44.4815 124.769 47.9843 124.769 52.32H125.769C125.769 47.8237 124.693 44.0945 122.501 41.172L121.701 41.772ZM124.769 52.32C124.769 56.2068 123.861 59.6355 122.057 62.6214L122.913 63.1386C124.821 59.9805 125.769 56.3692 125.769 52.32H124.769ZM122.055 62.6241C120.319 65.5391 117.74 67.8446 114.296 69.5352L114.737 70.4328C118.333 68.6674 121.067 66.2369 122.914 63.1359L122.055 62.6241ZM114.293 69.5368C110.921 71.2227 106.874 72.076 102.133 72.076V73.076C106.992 73.076 111.2 72.2013 114.74 70.4312L114.293 69.5368ZM102.133 72.076C94.5344 72.076 88.5132 70.2091 84.0177 66.5253L83.3838 67.2987C88.1043 71.1669 94.3711 73.076 102.133 73.076V72.076ZM84.0203 66.5274C79.616 62.8675 77.2532 57.3246 77.0005 49.8072L76.001 49.8408C76.2603 57.5554 78.6975 63.4045 83.3812 67.2966L84.0203 66.5274ZM76.5007 50.324H92.4368V49.324H76.5007V50.324ZM91.9369 49.8354C92.0029 52.7423 92.832 55.1093 94.4694 56.8831L95.2042 56.2049C93.7695 54.6507 92.9986 52.5377 92.9366 49.8126L91.9369 49.8354ZM94.4761 56.8903C96.1343 58.6176 98.523 59.444 101.557 59.444V58.444C98.7025 58.444 96.6112 57.6704 95.1974 56.1977L94.4761 56.8903ZM101.557 59.444C104.149 59.444 106.215 58.7101 107.678 57.1772L106.955 56.4868C105.73 57.7699 103.957 58.444 101.557 58.444V59.444ZM107.678 57.1776C109.189 55.5975 109.929 53.5463 109.929 51.072H108.929C108.929 53.3337 108.26 55.1225 106.955 56.4864L107.678 57.1776ZM109.929 51.072C109.929 47.8865 108.893 45.497 106.733 44.034L106.172 44.862C107.981 46.087 108.929 48.1135 108.929 51.072H109.929ZM106.748 44.0448C104.697 42.5408 101.46 41.836 97.1407 41.836V42.836C101.397 42.836 104.368 43.5392 106.157 44.8512L106.748 44.0448ZM97.1407 41.836H94.0687V42.836H97.1407V41.836ZM94.5687 42.336V28.992H93.5687V42.336H94.5687ZM94.0687 29.492H97.1407V28.492H94.0687V29.492ZM97.1407 29.492C100.454 29.492 103.17 28.9408 105.253 27.7984L104.772 26.9216C102.887 27.9552 100.356 28.492 97.1407 28.492V29.492ZM105.258 27.7958C107.501 26.534 108.585 24.3246 108.585 21.312H107.585C107.585 24.0594 106.62 25.882 104.768 26.9242L105.258 27.7958ZM108.585 21.312C108.585 18.9134 107.916 16.98 106.518 15.5824L105.811 16.2895C106.974 17.452 107.585 19.1026 107.585 21.312H108.585ZM106.518 15.5824C105.123 14.1875 103.224 13.516 100.885 13.516V14.516C103.026 14.516 104.646 15.1245 105.811 16.2895L106.518 15.5824ZM100.885 13.516C98.3478 13.516 96.3632 14.2883 95.0273 15.9056L95.7982 16.5424C96.8943 15.2157 98.5577 14.516 100.885 14.516V13.516ZM95.019 15.9158C93.7979 17.4761 93.0977 19.3963 92.8987 21.6521L93.8948 21.7399C94.0798 19.6437 94.7236 17.9159 95.8065 16.5322L95.019 15.9158ZM93.3968 21.196H77.3648V22.196H93.3968V21.196Z" fill="url(#paint0_linear_107_7591)"/>
<defs>
<linearGradient id="paint0_linear_107_7591" x1="64" y1="-34" x2="64" y2="110" gradientUnits="userSpaceOnUse">
<stop stop-color="#D6D6D6"/>
<stop offset="1" stop-color="#C0C0C0"/>
</linearGradient>
</defs>
</svg>
