<svg width="100%" height="100%" preserveAspectRatio="xMidYMid meet" viewBox="0 0 40 43" fill="none" xmlns="http://www.w3.org/2000/svg">
<mask id="path-1-outside-1_978_7055" maskUnits="userSpaceOnUse" x="-1" y="-1" width="42" height="45" fill="black">
<rect fill="white" x="-1" y="-1" width="42" height="45"/>
<path d="M14.3968 8.24242C14.3968 9.87879 14.1013 11.2929 13.5104 12.4848C12.9195 13.6768 12.1089 14.596 11.0786 15.2424C10.0483 15.8889 8.87153 16.2121 7.54829 16.2121C6.22506 16.2121 5.04829 15.8889 4.01799 15.2424C2.98769 14.596 2.17708 13.6768 1.58617 12.4848C0.995264 11.2929 0.699809 9.87879 0.699809 8.24242C0.699809 6.60606 0.995264 5.19192 1.58617 4C2.17708 2.80808 2.98769 1.88889 4.01799 1.24242C5.04829 0.595959 6.22506 0.272726 7.54829 0.272726C8.87153 0.272726 10.0483 0.595959 11.0786 1.24242C12.1089 1.88889 12.9195 2.80808 13.5104 4C14.1013 5.19192 14.3968 6.60606 14.3968 8.24242ZM12.5786 8.24242C12.5786 6.89899 12.3539 5.76515 11.9044 4.84091C11.4599 3.91667 10.8564 3.21717 10.0937 2.74242C9.33617 2.26768 8.48769 2.0303 7.54829 2.0303C6.6089 2.0303 5.75789 2.26768 4.99526 2.74242C4.23769 3.21717 3.63415 3.91667 3.18466 4.84091C2.74021 5.76515 2.51799 6.89899 2.51799 8.24242C2.51799 9.58586 2.74021 10.7197 3.18466 11.6439C3.63415 12.5682 4.23769 13.2677 4.99526 13.7424C5.75789 14.2172 6.6089 14.4545 7.54829 14.4545C8.48769 14.4545 9.33617 14.2172 10.0937 13.7424C10.8564 13.2677 11.4599 12.5682 11.9044 11.6439C12.3539 10.7197 12.5786 9.58586 12.5786 8.24242ZM19.1013 9V16H17.3134V4.36364H19.0407V6.18182H19.1922C19.465 5.59091 19.8791 5.11616 20.4347 4.75758C20.9902 4.39394 21.7074 4.21212 22.5862 4.21212C23.3741 4.21212 24.0634 4.37374 24.6544 4.69697C25.2453 5.01515 25.7049 5.5 26.0331 6.15151C26.3614 6.79798 26.5256 7.61616 26.5256 8.60606V16H24.7377V8.72727C24.7377 7.81313 24.5003 7.10101 24.0256 6.59091C23.5508 6.07576 22.8993 5.81818 22.071 5.81818C21.5003 5.81818 20.9902 5.94192 20.5407 6.18939C20.0963 6.43687 19.7453 6.79798 19.4877 7.27273C19.2301 7.74747 19.1013 8.32323 19.1013 9ZM34.6714 16.2424C33.5502 16.2424 32.583 15.9949 31.7699 15.5C30.9618 15 30.3381 14.303 29.8987 13.4091C29.4643 12.5101 29.2472 11.4646 29.2472 10.2727C29.2472 9.08081 29.4643 8.0303 29.8987 7.12121C30.3381 6.20707 30.9492 5.49495 31.732 4.98485C32.5199 4.4697 33.4391 4.21212 34.4896 4.21212C35.0956 4.21212 35.6941 4.31313 36.285 4.51515C36.8759 4.71717 37.4138 5.04545 37.8987 5.5C38.3835 5.94949 38.7699 6.54545 39.0578 7.28788C39.3456 8.0303 39.4896 8.94444 39.4896 10.0303V10.7879H30.5199V9.24242H37.6714C37.6714 8.58586 37.5401 8 37.2775 7.48485C37.0199 6.9697 36.6512 6.56313 36.1714 6.26515C35.6967 5.96717 35.136 5.81818 34.4896 5.81818C33.7775 5.81818 33.1613 5.99495 32.6411 6.34848C32.1259 6.69697 31.7295 7.15151 31.4517 7.71212C31.1739 8.27273 31.035 8.87374 31.035 9.51515V10.5455C31.035 11.4242 31.1866 12.1692 31.4896 12.7803C31.7977 13.3864 32.2244 13.8485 32.7699 14.1667C33.3153 14.4798 33.9492 14.6364 34.6714 14.6364C35.1411 14.6364 35.5653 14.5707 35.9441 14.4394C36.328 14.303 36.6588 14.101 36.9366 13.8333C37.2143 13.5606 37.429 13.2222 37.5805 12.8182L39.3078 13.303C39.1259 13.8889 38.8204 14.404 38.3911 14.8485C37.9618 15.2879 37.4315 15.6313 36.8002 15.8788C36.1689 16.1212 35.4593 16.2424 34.6714 16.2424ZM19.9366 30.3636C19.8456 29.596 19.477 29 18.8305 28.5758C18.184 28.1515 17.3911 27.9394 16.4517 27.9394C15.7648 27.9394 15.1638 28.0505 14.6487 28.2727C14.1386 28.4949 13.7396 28.8005 13.4517 29.1894C13.1689 29.5783 13.0275 30.0202 13.0275 30.5152C13.0275 30.9293 13.1259 31.2854 13.3229 31.5833C13.5249 31.8763 13.7825 32.1212 14.0956 32.3182C14.4088 32.5101 14.7371 32.6692 15.0805 32.7955C15.4239 32.9167 15.7396 33.0152 16.0275 33.0909L17.6032 33.5152C18.0073 33.6212 18.4568 33.7677 18.9517 33.9545C19.4517 34.1414 19.929 34.3965 20.3835 34.7197C20.8431 35.0379 21.2219 35.447 21.5199 35.947C21.8179 36.447 21.9669 37.0606 21.9669 37.7879C21.9669 38.6263 21.7472 39.3838 21.3078 40.0606C20.8734 40.7374 20.2371 41.2753 19.3987 41.6742C18.5653 42.0732 17.5527 42.2727 16.3608 42.2727C15.2497 42.2727 14.2876 42.0934 13.4744 41.7348C12.6664 41.3763 12.03 40.8763 11.5653 40.2348C11.1057 39.5934 10.8456 38.8485 10.785 38H12.7244C12.7749 38.5859 12.9719 39.0707 13.3153 39.4545C13.6638 39.8333 14.1032 40.1162 14.6335 40.303C15.1689 40.4848 15.7446 40.5758 16.3608 40.5758C17.078 40.5758 17.7219 40.4596 18.2926 40.2273C18.8633 39.9899 19.3153 39.6616 19.6487 39.2424C19.982 38.8182 20.1487 38.3232 20.1487 37.7576C20.1487 37.2424 20.0047 36.8232 19.7169 36.5C19.429 36.1768 19.0502 35.9141 18.5805 35.7121C18.1108 35.5101 17.6032 35.3333 17.0578 35.1818L15.1487 34.6364C13.9366 34.2879 12.977 33.7904 12.2699 33.1439C11.5628 32.4975 11.2093 31.6515 11.2093 30.6061C11.2093 29.7374 11.4441 28.9798 11.9138 28.3333C12.3886 27.6818 13.0249 27.1768 13.8229 26.8182C14.6259 26.4545 15.5224 26.2727 16.5123 26.2727C17.5123 26.2727 18.4012 26.452 19.179 26.8106C19.9568 27.1641 20.5729 27.649 21.0275 28.2652C21.4871 28.8813 21.7295 29.5808 21.7547 30.3636H19.9366ZM25.0559 42V26.4848H26.8437V32.2121H26.9953C27.1266 32.0101 27.3084 31.7525 27.5407 31.4394C27.7781 31.1212 28.1165 30.8384 28.5559 30.5909C29.0003 30.3384 29.6013 30.2121 30.3589 30.2121C31.3387 30.2121 32.2023 30.4571 32.9498 30.947C33.6973 31.4369 34.2806 32.1313 34.6998 33.0303C35.119 33.9293 35.3286 34.9899 35.3286 36.2121C35.3286 37.4444 35.119 38.5126 34.6998 39.4167C34.2806 40.3157 33.6998 41.0126 32.9574 41.5076C32.215 41.9975 31.3589 42.2424 30.3892 42.2424C29.6417 42.2424 29.0432 42.1187 28.5937 41.8712C28.1443 41.6187 27.7983 41.3333 27.5559 41.0152C27.3134 40.6919 27.1266 40.4242 26.9953 40.2121H26.7831V42H25.0559ZM26.8134 36.1818C26.8134 37.0606 26.9422 37.8359 27.1998 38.5076C27.4574 39.1742 27.8336 39.697 28.3286 40.0758C28.8235 40.4495 29.4296 40.6364 30.1468 40.6364C30.8943 40.6364 31.518 40.4394 32.018 40.0455C32.523 39.6465 32.9018 39.1111 33.1544 38.4394C33.4119 37.7626 33.5407 37.0101 33.5407 36.1818C33.5407 35.3636 33.4145 34.6263 33.1619 33.9697C32.9145 33.3081 32.5382 32.7854 32.0331 32.4015C31.5331 32.0126 30.9044 31.8182 30.1468 31.8182C29.4195 31.8182 28.8084 32.0025 28.3134 32.3712C27.8185 32.7348 27.4448 33.2449 27.1922 33.9015C26.9397 34.553 26.8134 35.3131 26.8134 36.1818Z"/>
</mask>
<path d="M13.5104 12.4848L12.714 12.09H12.714L13.5104 12.4848ZM11.0786 15.2424L11.551 15.9954V15.9954L11.0786 15.2424ZM4.01799 15.2424L3.54556 15.9954V15.9954L4.01799 15.2424ZM1.58617 12.4848L2.38256 12.09L1.58617 12.4848ZM1.58617 4L0.789781 3.60518L1.58617 4ZM11.0786 1.24242L11.551 0.489478V0.489478L11.0786 1.24242ZM13.5104 4L12.714 4.39482L12.714 4.39482L13.5104 4ZM11.9044 4.84091L11.1033 5.22613L11.105 5.22967L11.9044 4.84091ZM10.0937 2.74242L9.62173 3.49564L9.62399 3.49704L10.0937 2.74242ZM4.99526 2.74242L4.5255 1.9878L4.52325 1.98921L4.99526 2.74242ZM3.18466 4.84091L2.38528 4.45214L2.38358 4.45569L3.18466 4.84091ZM3.18466 11.6439L2.38357 12.0292L2.38529 12.0327L3.18466 11.6439ZM4.99526 13.7424L4.52325 14.4956L4.5255 14.497L4.99526 13.7424ZM10.0937 13.7424L9.62399 12.9878L9.62174 12.9892L10.0937 13.7424ZM11.9044 11.6439L11.105 11.2552L11.1033 11.2587L11.9044 11.6439ZM13.5079 8.24242C13.5079 9.77273 13.2317 11.0458 12.714 12.09L14.3068 12.8797C14.9709 11.54 15.2857 9.98484 15.2857 8.24242H13.5079ZM12.714 12.09C12.1889 13.1492 11.4846 13.9383 10.6062 14.4895L11.551 15.9954C12.7332 15.2536 13.6501 14.2043 14.3068 12.8797L12.714 12.09ZM10.6062 14.4895C9.72981 15.0393 8.71965 15.3232 7.5483 15.3232V17.101C9.0234 17.101 10.3668 16.7384 11.551 15.9954L10.6062 14.4895ZM7.5483 15.3232C6.37694 15.3232 5.36678 15.0393 4.49043 14.4895L3.54556 15.9954C4.72981 16.7384 6.07319 17.101 7.5483 17.101V15.3232ZM4.49043 14.4895C3.61198 13.9383 2.90767 13.1492 2.38256 12.09L0.789781 12.8797C1.44649 14.2043 2.3634 15.2536 3.54556 15.9954L4.49043 14.4895ZM2.38256 12.09C1.86489 11.0458 1.5887 9.77273 1.5887 8.24242H-0.189079C-0.189079 9.98484 0.125643 11.54 0.789781 12.8797L2.38256 12.09ZM1.5887 8.24242C1.5887 6.71211 1.86489 5.43903 2.38256 4.39482L0.789781 3.60518C0.125643 4.94481 -0.189079 6.50001 -0.189079 8.24242H1.5887ZM2.38256 4.39482C2.90767 3.33563 3.61198 2.54656 4.49043 1.99537L3.54556 0.489478C2.3634 1.23122 1.44649 2.28053 0.789781 3.60518L2.38256 4.39482ZM4.49043 1.99537C5.36678 1.4455 6.37694 1.16161 7.5483 1.16161V-0.616163C6.07319 -0.616163 4.72981 -0.253586 3.54556 0.489478L4.49043 1.99537ZM7.5483 1.16161C8.71965 1.16161 9.72981 1.4455 10.6062 1.99537L11.551 0.489478C10.3668 -0.253586 9.0234 -0.616163 7.5483 -0.616163V1.16161ZM10.6062 1.99537C11.4846 2.54656 12.1889 3.33563 12.714 4.39482L14.3068 3.60518C13.6501 2.28053 12.7332 1.23122 11.551 0.489478L10.6062 1.99537ZM12.714 4.39482C13.2317 5.43903 13.5079 6.71211 13.5079 8.24242H15.2857C15.2857 6.50001 14.9709 4.94481 14.3068 3.60518L12.714 4.39482ZM13.4675 8.24242C13.4675 6.80404 13.2273 5.5288 12.7037 4.45215L11.105 5.22967C11.4804 6.0015 11.6897 6.99394 11.6897 8.24242H13.4675ZM12.7054 4.45569C12.1985 3.40144 11.4889 2.56386 10.5635 1.98781L9.62399 3.49704C10.2239 3.87048 10.7213 4.43189 11.1033 5.22613L12.7054 4.45569ZM10.5658 1.98921C9.65937 1.42121 8.64577 1.14141 7.5483 1.14141V2.91919C8.32961 2.91919 9.01297 3.11414 9.62174 3.49564L10.5658 1.98921ZM7.5483 1.14141C6.45081 1.14141 5.43571 1.42119 4.5255 1.98781L5.46503 3.49704C6.08007 3.11417 6.76699 2.91919 7.5483 2.91919V1.14141ZM4.52325 1.98921C3.60447 2.56498 2.89649 3.40103 2.38529 4.45215L3.98402 5.22967C4.37182 4.4323 4.87091 3.86936 5.46728 3.49564L4.52325 1.98921ZM2.38358 4.45569C1.86631 5.53137 1.6291 6.80528 1.6291 8.24242H3.40688C3.40688 6.9927 3.61412 5.99893 3.98574 5.22613L2.38358 4.45569ZM1.6291 8.24242C1.6291 9.67957 1.86631 10.9535 2.38358 12.0292L3.98574 11.2587C3.61412 10.4859 3.40688 9.49215 3.40688 8.24242H1.6291ZM2.38529 12.0327C2.89649 13.0838 3.60447 13.9199 4.52325 14.4956L5.46728 12.9892C4.87091 12.6155 4.37182 12.0525 3.98402 11.2552L2.38529 12.0327ZM4.5255 14.497C5.43571 15.0637 6.45081 15.3434 7.5483 15.3434V13.5657C6.76699 13.5657 6.08007 13.3707 5.46503 12.9878L4.5255 14.497ZM7.5483 15.3434C8.64577 15.3434 9.65937 15.0636 10.5658 14.4956L9.62174 12.9892C9.01297 13.3707 8.32961 13.5657 7.5483 13.5657V15.3434ZM10.5635 14.497C11.4889 13.921 12.1985 13.0834 12.7054 12.0292L11.1033 11.2587C10.7213 12.053 10.2239 12.6144 9.62399 12.9878L10.5635 14.497ZM12.7037 12.0327C13.2273 10.956 13.4675 9.68081 13.4675 8.24242H11.6897C11.6897 9.49091 11.4804 10.4833 11.105 11.2552L12.7037 12.0327ZM19.1013 16V16.8889H19.9902V16H19.1013ZM17.3134 16H16.4246V16.8889H17.3134V16ZM17.3134 4.36364V3.47475H16.4246V4.36364H17.3134ZM19.0407 4.36364H19.9296V3.47475H19.0407V4.36364ZM19.0407 6.18182H18.1518V7.07071H19.0407V6.18182ZM19.1922 6.18182V7.07071H19.761L19.9993 6.55431L19.1922 6.18182ZM20.4347 4.75758L20.9167 5.50442L20.9215 5.50131L20.4347 4.75758ZM24.6544 4.69697L24.2278 5.47683L24.2329 5.47961L24.6544 4.69697ZM26.0331 6.15151L25.2393 6.5515L25.2406 6.55398L26.0331 6.15151ZM26.5256 16V16.8889H27.4145V16H26.5256ZM24.7377 16H23.8488V16.8889H24.7377V16ZM24.0256 6.59091L23.3719 7.1933L23.3749 7.1965L24.0256 6.59091ZM20.5407 6.18939L20.112 5.41071L20.1083 5.41278L20.5407 6.18939ZM19.4877 7.27273L18.7064 6.84883L19.4877 7.27273ZM18.2124 9V16H19.9902V9H18.2124ZM19.1013 15.1111H17.3134V16.8889H19.1013V15.1111ZM18.2023 16V4.36364H16.4246V16H18.2023ZM17.3134 5.25252H19.0407V3.47475H17.3134V5.25252ZM18.1518 4.36364V6.18182H19.9296V4.36364H18.1518ZM19.0407 7.07071H19.1922V5.29293H19.0407V7.07071ZM19.9993 6.55431C20.2002 6.11906 20.5004 5.77311 20.9167 5.50441L19.9526 4.01075C19.2578 4.45921 18.7297 5.06276 18.3852 5.80932L19.9993 6.55431ZM20.9215 5.50131C21.2924 5.25852 21.8254 5.10101 22.5862 5.10101V3.32323C21.5893 3.32323 20.688 3.52936 19.9478 4.01384L20.9215 5.50131ZM22.5862 5.10101C23.2504 5.10101 23.7883 5.23641 24.2278 5.47681L25.0809 3.91713C24.3386 3.51107 23.4977 3.32323 22.5862 3.32323V5.10101ZM24.2329 5.47961C24.6494 5.70384 24.9855 6.04781 25.2393 6.5515L26.827 5.75153C26.4242 4.95219 25.8412 4.32646 25.0758 3.91433L24.2329 5.47961ZM25.2406 6.55398C25.4867 7.0387 25.6367 7.70753 25.6367 8.60606H27.4145C27.4145 7.52479 27.2361 6.55726 26.8257 5.74905L25.2406 6.55398ZM25.6367 8.60606V16H27.4145V8.60606H25.6367ZM26.5256 15.1111H24.7377V16.8889H26.5256V15.1111ZM25.6266 16V8.72727H23.8488V16H25.6266ZM25.6266 8.72727C25.6266 7.66044 25.347 6.70599 24.6763 5.98532L23.3749 7.1965C23.6537 7.49603 23.8488 7.96582 23.8488 8.72727H25.6266ZM24.6792 5.98853C24.0054 5.25739 23.0983 4.92929 22.071 4.92929V6.70707C22.7003 6.70707 23.0962 6.89413 23.3719 7.19329L24.6792 5.98853ZM22.071 4.92929C21.3676 4.92929 20.7071 5.0831 20.112 5.41072L20.9694 6.96807C21.2733 6.80074 21.6331 6.70707 22.071 6.70707V4.92929ZM20.1083 5.41278C19.5072 5.74748 19.0392 6.23537 18.7064 6.84883L20.269 7.69662C20.4513 7.36059 20.6854 7.12625 20.9732 6.96601L20.1083 5.41278ZM18.7064 6.84883C18.3625 7.48261 18.2124 8.21197 18.2124 9H19.9902C19.9902 8.4345 20.0977 8.01234 20.269 7.69662L18.7064 6.84883ZM31.7699 15.5L31.3022 16.2559L31.3077 16.2593L31.7699 15.5ZM29.8987 13.4091L29.0983 13.7958L29.1009 13.8012L29.8987 13.4091ZM29.8987 7.12121L29.0975 6.73613L29.0966 6.73801L29.8987 7.12121ZM31.732 4.98485L32.2173 5.72958L32.2185 5.72882L31.732 4.98485ZM36.285 4.51515L36.5726 3.67406L36.285 4.51515ZM37.8987 5.5L37.2907 6.14849L37.2943 6.15186L37.8987 5.5ZM39.0578 7.28788L39.8865 6.96652L39.0578 7.28788ZM39.4896 10.7879V11.6768H40.3785V10.7879H39.4896ZM30.5199 10.7879H29.631V11.6768H30.5199V10.7879ZM30.5199 9.24242V8.35353H29.631V9.24242H30.5199ZM37.6714 9.24242V10.1313H38.5603V9.24242H37.6714ZM37.2775 7.48485L36.4824 7.88238L36.4855 7.88857L37.2775 7.48485ZM36.1714 6.26515L35.6988 7.01803L35.7024 7.02026L36.1714 6.26515ZM32.6411 6.34848L33.1392 7.08474L33.1407 7.08366L32.6411 6.34848ZM31.4517 7.71212L30.6552 7.31747V7.31747L31.4517 7.71212ZM31.4896 12.7803L30.6932 13.1752L30.6972 13.1831L31.4896 12.7803ZM32.7699 14.1667L32.322 14.9345L32.3273 14.9376L32.7699 14.1667ZM35.9441 14.4394L36.2353 15.2793L36.2417 15.277L35.9441 14.4394ZM36.9366 13.8333L37.5534 14.4734L37.5593 14.4676L36.9366 13.8333ZM37.5805 12.8182L37.8207 11.9624L37.0348 11.7418L36.7482 12.5061L37.5805 12.8182ZM39.3078 13.303L40.1567 13.5665L40.4275 12.6941L39.548 12.4472L39.3078 13.303ZM38.3911 14.8485L39.0269 15.4697L39.0304 15.466L38.3911 14.8485ZM36.8002 15.8788L37.1188 16.7086L37.1246 16.7064L36.8002 15.8788ZM34.6714 15.3535C33.6839 15.3535 32.8828 15.1368 32.2321 14.7407L31.3077 16.2593C32.2832 16.8531 33.4165 17.1313 34.6714 17.1313V15.3535ZM32.2376 14.7441C31.5785 14.3363 31.0659 13.7687 30.6964 13.017L29.1009 13.8012C29.6103 14.8374 30.3451 15.6637 31.3022 16.2559L32.2376 14.7441ZM30.699 13.0224C30.3332 12.2651 30.136 11.3564 30.136 10.2727H28.3583C28.3583 11.5729 28.5955 12.7551 29.0983 13.7958L30.699 13.0224ZM30.136 10.2727C30.136 9.18937 30.3331 8.27389 30.7007 7.50441L29.0966 6.73801C28.5956 7.78671 28.3583 8.97225 28.3583 10.2727H30.136ZM30.6998 7.50629C31.075 6.72569 31.5822 6.14339 32.2173 5.72958L31.2467 4.24011C30.3161 4.84651 29.6011 5.68845 29.0975 6.73613L30.6998 7.50629ZM32.2185 5.72882C32.8453 5.31897 33.5911 5.10101 34.4896 5.10101V3.32323C33.287 3.32323 32.1945 3.62042 31.2456 4.24087L32.2185 5.72882ZM34.4896 5.10101C34.9949 5.10101 35.4963 5.1849 35.9975 5.35624L36.5726 3.67406C35.892 3.44137 35.1964 3.32323 34.4896 3.32323V5.10101ZM35.9975 5.35624C36.4616 5.51491 36.8918 5.77449 37.2907 6.14848L38.5066 4.85152C37.9358 4.31642 37.2903 3.91943 36.5726 3.67406L35.9975 5.35624ZM37.2943 6.15186C37.6621 6.49278 37.9801 6.96721 38.229 7.60924L39.8865 6.96652C39.5597 6.12369 39.105 5.40621 38.503 4.84814L37.2943 6.15186ZM38.229 7.60924C38.4656 8.21932 38.6007 9.017 38.6007 10.0303H40.3785C40.3785 8.87189 40.2257 7.84128 39.8865 6.96652L38.229 7.60924ZM38.6007 10.0303V10.7879H40.3785V10.0303H38.6007ZM39.4896 9.89899H30.5199V11.6768H39.4896V9.89899ZM31.4088 10.7879V9.24242H29.631V10.7879H31.4088ZM30.5199 10.1313H37.6714V8.35353H30.5199V10.1313ZM38.5603 9.24242C38.5603 8.46467 38.4039 7.73733 38.0694 7.08113L36.4855 7.88857C36.6763 8.26267 36.7825 8.70704 36.7825 9.24242H38.5603ZM38.0725 7.08732C37.7429 6.42818 37.2627 5.89655 36.6404 5.51004L35.7024 7.02026C36.0397 7.22971 36.2968 7.51122 36.4824 7.88237L38.0725 7.08732ZM36.644 5.51228C36.007 5.11247 35.2771 4.92929 34.4896 4.92929V6.70707C34.995 6.70707 35.3863 6.82188 35.6989 7.01803L36.644 5.51228ZM34.4896 4.92929C33.6237 4.92929 32.828 5.14673 32.1415 5.61331L33.1407 7.08366C33.4946 6.84317 33.9313 6.70707 34.4896 6.70707V4.92929ZM32.143 5.61223C31.4998 6.0474 31.0008 6.61997 30.6552 7.31747L32.2482 8.10677C32.4581 7.68306 32.7521 7.34654 33.1392 7.08474L32.143 5.61223ZM30.6552 7.31747C30.3151 8.00391 30.1461 8.74039 30.1461 9.51515H31.9239C31.9239 9.00708 32.0328 8.54154 32.2482 8.10677L30.6552 7.31747ZM30.1461 9.51515V10.5455H31.9239V9.51515H30.1461ZM30.1461 10.5455C30.1461 11.5231 30.3144 12.4112 30.6932 13.1752L32.2859 12.3854C32.0587 11.9272 31.9239 11.3254 31.9239 10.5455H30.1461ZM30.6972 13.1831C31.0765 13.9292 31.6177 14.5236 32.322 14.9345L33.2178 13.3989C32.8312 13.1734 32.5189 12.8435 32.282 12.3775L30.6972 13.1831ZM32.3273 14.9376C33.0264 15.3389 33.8172 15.5253 34.6714 15.5253V13.7475C34.0811 13.7475 33.6043 13.6207 33.2124 13.3958L32.3273 14.9376ZM34.6714 15.5253C35.2236 15.5253 35.7483 15.4481 36.2353 15.2792L35.653 13.5995C35.3823 13.6934 35.0586 13.7475 34.6714 13.7475V15.5253ZM36.2417 15.277C36.738 15.1007 37.1794 14.8338 37.5533 14.4734L36.3198 13.1933C36.1382 13.3682 35.9179 13.5054 35.6466 13.6018L36.2417 15.277ZM37.5593 14.4676C37.9392 14.0946 38.2207 13.6424 38.4128 13.1303L36.7482 12.5061C36.6372 12.802 36.4895 13.0266 36.3138 13.1991L37.5593 14.4676ZM37.3403 13.674L39.0675 14.1588L39.548 12.4472L37.8207 11.9624L37.3403 13.674ZM38.4588 13.0396C38.3185 13.4916 38.0852 13.8857 37.7518 14.2309L39.0304 15.466C39.5556 14.9223 39.9334 14.2862 40.1567 13.5665L38.4588 13.0396ZM37.7553 14.2273C37.4228 14.5676 37.0021 14.8449 36.4758 15.0512L37.1246 16.7064C37.8609 16.4177 38.5008 16.0081 39.0269 15.4697L37.7553 14.2273ZM36.4815 15.049C35.9672 15.2465 35.368 15.3535 34.6714 15.3535V17.1313C35.5505 17.1313 36.3705 16.996 37.1188 16.7086L36.4815 15.049ZM19.9366 30.3636L19.0538 30.4682L19.1467 31.2525H19.9366V30.3636ZM18.8305 28.5758L18.3428 29.3189V29.3189L18.8305 28.5758ZM14.6487 28.2727L14.2966 27.4565L14.2937 27.4578L14.6487 28.2727ZM13.4517 29.1894L12.7372 28.6605L12.7328 28.6666L13.4517 29.1894ZM13.3229 31.5833L12.5814 32.0735L12.5862 32.0808L12.5912 32.088L13.3229 31.5833ZM14.0956 32.3182L13.6223 33.0706L13.6311 33.076L14.0956 32.3182ZM15.0805 32.7955L14.7737 33.6298L14.7847 33.6337L15.0805 32.7955ZM16.0275 33.0909L16.2586 32.2326L16.2537 32.2313L16.0275 33.0909ZM17.6032 33.5152L17.3721 34.3735L17.3775 34.3749L17.6032 33.5152ZM18.9517 33.9545L18.6377 34.7861L18.6405 34.7872L18.9517 33.9545ZM20.3835 34.7197L19.8683 35.4442L19.8776 35.4505L20.3835 34.7197ZM21.5199 35.947L22.2835 35.4919L21.5199 35.947ZM21.3078 40.0606L20.5622 39.5766L20.5597 39.5805L21.3078 40.0606ZM19.3987 41.6742L19.0167 40.8716L19.0148 40.8725L19.3987 41.6742ZM13.4744 41.7348L13.1139 42.5473L13.1158 42.5482L13.4744 41.7348ZM11.5653 40.2348L10.8428 40.7526L10.8455 40.7563L11.5653 40.2348ZM10.785 38V37.1111H9.83039L9.89841 38.0633L10.785 38ZM12.7244 38L13.61 37.9237L13.54 37.1111H12.7244V38ZM13.3153 39.4545L12.6528 40.0473L12.6612 40.0564L13.3153 39.4545ZM14.6335 40.303L14.3381 41.1414L14.3477 41.1447L14.6335 40.303ZM18.2926 40.2273L18.6278 41.0506L18.634 41.048L18.2926 40.2273ZM19.6487 39.2424L20.3444 39.7957L20.3476 39.7916L19.6487 39.2424ZM19.7169 36.5L20.3806 35.9088L19.7169 36.5ZM18.5805 35.7121L18.2293 36.5287L18.5805 35.7121ZM17.0578 35.1818L16.8136 36.0365L16.8199 36.0383L17.0578 35.1818ZM15.1487 34.6364L14.9031 35.4906L14.9045 35.4911L15.1487 34.6364ZM12.2699 33.1439L11.6701 33.8L12.2699 33.1439ZM11.9138 28.3333L11.1954 27.8099L11.1947 27.8108L11.9138 28.3333ZM13.8229 26.8182L14.1873 27.629L14.1896 27.6279L13.8229 26.8182ZM19.179 26.8106L18.8068 27.6178L18.8112 27.6198L19.179 26.8106ZM21.0275 28.2652L20.3121 28.7928L20.315 28.7966L21.0275 28.2652ZM21.7547 30.3636V31.2525H22.6728L22.6432 30.335L21.7547 30.3636ZM20.8193 30.2591C20.6975 29.2306 20.1841 28.4009 19.3182 27.8326L18.3428 29.3189C18.7698 29.5991 18.9938 29.9613 19.0538 30.4682L20.8193 30.2591ZM19.3182 27.8326C18.4983 27.2946 17.5268 27.0505 16.4517 27.0505V28.8283C17.2554 28.8283 17.8697 29.0085 18.3428 29.3189L19.3182 27.8326ZM16.4517 27.0505C15.6702 27.0505 14.9449 27.1769 14.2966 27.4565L15.0008 29.0889C15.3828 28.9241 15.8595 28.8283 16.4517 28.8283V27.0505ZM14.2937 27.4578C13.6625 27.7328 13.131 28.1287 12.7373 28.6605L14.1661 29.7183C14.3482 29.4723 14.6147 29.2571 15.0037 29.0876L14.2937 27.4578ZM12.7328 28.6666C12.3361 29.2121 12.1386 29.8382 12.1386 30.5152H13.9164C13.9164 30.2022 14.0017 29.9445 14.1706 29.7122L12.7328 28.6666ZM12.1386 30.5152C12.1386 31.0751 12.2737 31.608 12.5814 32.0735L14.0644 31.0932C13.9782 30.9627 13.9164 30.7835 13.9164 30.5152H12.1386ZM12.5912 32.088C12.8644 32.4841 13.2113 32.812 13.6224 33.0706L14.5689 31.5658C14.3537 31.4304 14.1855 31.2684 14.0547 31.0787L12.5912 32.088ZM13.6311 33.076C13.994 33.2985 14.3751 33.4832 14.7738 33.6297L15.3872 31.9612C15.099 31.8552 14.8235 31.7217 14.5601 31.5603L13.6311 33.076ZM14.7847 33.6337C15.1462 33.7613 15.4854 33.8674 15.8012 33.9505L16.2537 32.2313C15.9938 32.1629 15.7017 32.0721 15.3763 31.9572L14.7847 33.6337ZM15.7964 33.9492L17.3721 34.3735L17.8343 32.6568L16.2585 32.2326L15.7964 33.9492ZM17.3775 34.3749C17.745 34.4714 18.1645 34.6075 18.6377 34.7861L19.2657 33.123C18.749 32.9279 18.2695 32.771 17.8289 32.6554L17.3775 34.3749ZM18.6405 34.7872C19.0649 34.9458 19.474 35.1636 19.8684 35.4441L20.8987 33.9953C20.384 33.6293 19.8385 33.337 19.2629 33.1219L18.6405 34.7872ZM19.8776 35.4505C20.2282 35.6933 20.5207 36.0067 20.7563 36.402L22.2835 35.4919C21.9231 34.8872 21.458 34.3825 20.8895 33.9889L19.8776 35.4505ZM20.7563 36.402C20.9541 36.734 21.078 37.1812 21.078 37.7879H22.8557C22.8557 36.94 22.6816 36.16 22.2835 35.4919L20.7563 36.402ZM21.078 37.7879C21.078 38.4615 20.9043 39.0497 20.5622 39.5766L22.0533 40.5446C22.59 39.718 22.8557 38.791 22.8557 37.7879H21.078ZM20.5597 39.5805C20.228 40.0972 19.729 40.5326 19.0167 40.8716L19.7806 42.4769C20.7452 42.0179 21.5188 41.3775 22.0558 40.5407L20.5597 39.5805ZM19.0148 40.8725C18.3308 41.2 17.457 41.3838 16.3608 41.3838V43.1616C17.6484 43.1616 18.7999 42.9465 19.7825 42.476L19.0148 40.8725ZM16.3608 41.3838C15.3432 41.3838 14.5087 41.2195 13.8331 40.9215L13.1158 42.5482C14.0664 42.9674 15.1561 43.1616 16.3608 43.1616V41.3838ZM13.835 40.9224C13.1532 40.6198 12.6475 40.2135 12.2852 39.7134L10.8455 40.7563C11.4125 41.539 12.1795 42.1327 13.1139 42.5473L13.835 40.9224ZM12.2879 39.7171C11.9314 39.2195 11.7215 38.6347 11.6717 37.9367L9.89841 38.0633C9.96976 39.0623 10.2801 39.9673 10.8428 40.7526L12.2879 39.7171ZM10.785 38.8889H12.7244V37.1111H10.785V38.8889ZM11.8388 38.0763C11.9034 38.8256 12.1634 39.5001 12.6529 40.0473L13.9778 38.8618C13.7804 38.6413 13.6465 38.3461 13.61 37.9237L11.8388 38.0763ZM12.6612 40.0564C13.117 40.5518 13.6836 40.9108 14.3381 41.1414L14.9289 39.4647C14.5228 39.3216 14.2107 39.1148 13.9695 38.8527L12.6612 40.0564ZM14.3477 41.1447C14.983 41.3605 15.6561 41.4646 16.3608 41.4646V39.6869C15.8331 39.6869 15.3548 39.6092 14.9194 39.4614L14.3477 41.1447ZM16.3608 41.4646C17.1743 41.4646 17.9347 41.3327 18.6278 41.0506L17.9575 39.404C17.5091 39.5865 16.9816 39.6869 16.3608 39.6869V41.4646ZM18.634 41.048C19.3219 40.7619 19.9039 40.3496 20.3444 39.7957L18.9529 38.6892C18.7267 38.9736 18.4047 39.2179 17.9512 39.4065L18.634 41.048ZM20.3476 39.7916C20.8103 39.2028 21.0376 38.512 21.0376 37.7576H19.2598C19.2598 38.1344 19.1537 38.4336 18.9497 38.6932L20.3476 39.7916ZM21.0376 37.7576C21.0376 37.0681 20.8402 36.4248 20.3806 35.9088L19.0531 37.0912C19.1693 37.2217 19.2598 37.4167 19.2598 37.7576H21.0376ZM20.3806 35.9088C19.992 35.4725 19.4994 35.1397 18.9317 34.8956L18.2293 36.5287C18.601 36.6886 18.8659 36.8811 19.0531 37.0912L20.3806 35.9088ZM18.9317 34.8956C18.4215 34.6761 17.8757 34.4865 17.2957 34.3254L16.8199 36.0383C17.3307 36.1802 17.8001 36.3441 18.2293 36.5287L18.9317 34.8956ZM17.302 34.3271L15.3929 33.7817L14.9045 35.4911L16.8136 36.0365L17.302 34.3271ZM15.3943 33.7821C14.2739 33.46 13.4488 33.0174 12.8697 32.4879L11.6701 33.8C12.5052 34.5635 13.5992 35.1158 14.9031 35.4906L15.3943 33.7821ZM12.8697 32.4879C12.3648 32.0263 12.0982 31.4274 12.0982 30.6061H10.3204C10.3204 31.8756 10.7609 32.9687 11.6701 33.8L12.8697 32.4879ZM12.0982 30.6061C12.0982 29.9078 12.2833 29.337 12.6329 28.8558L11.1947 27.8108C10.6049 28.6226 10.3204 29.5669 10.3204 30.6061H12.0982ZM12.6322 28.8568C13.0083 28.3408 13.5179 27.9298 14.1873 27.629L13.4586 26.0074C12.532 26.4238 11.7689 27.0229 11.1954 27.8099L12.6322 28.8568ZM14.1896 27.6279C14.864 27.3225 15.6333 27.1616 16.5123 27.1616V25.3838C15.4115 25.3838 14.3879 25.5866 13.4562 26.0084L14.1896 27.6279ZM16.5123 27.1616C17.4052 27.1616 18.1637 27.3213 18.8068 27.6178L19.5511 26.0034C18.6387 25.5827 17.6194 25.3838 16.5123 25.3838V27.1616ZM18.8112 27.6198C19.4673 27.9181 19.9576 28.3122 20.3122 28.7928L21.7428 27.7375C21.1882 26.9857 20.4462 26.4102 19.5468 26.0014L18.8112 27.6198ZM20.315 28.7966C20.6637 29.2642 20.8468 29.7874 20.8663 30.3923L22.6432 30.335C22.6122 29.3742 22.3104 28.4984 21.74 27.7337L20.315 28.7966ZM21.7547 29.4747H19.9366V31.2525H21.7547V29.4747ZM25.0559 42H24.167V42.8889H25.0559V42ZM25.0559 26.4848V25.596H24.167V26.4848H25.0559ZM26.8437 26.4848H27.7326V25.596H26.8437V26.4848ZM26.8437 32.2121H25.9549V33.101H26.8437V32.2121ZM26.9953 32.2121V33.101H27.4777L27.7405 32.6966L26.9953 32.2121ZM27.5407 31.4394L26.8283 30.9079L26.8269 30.9098L27.5407 31.4394ZM28.5559 30.5909L28.9921 31.3654L28.995 31.3638L28.5559 30.5909ZM32.9498 30.947L33.4371 30.2035L32.9498 30.947ZM34.6998 39.4167L35.5054 39.7923L35.5062 39.7906L34.6998 39.4167ZM32.9574 41.5076L33.447 42.2495L33.4505 42.2472L32.9574 41.5076ZM28.5937 41.8712L28.1584 42.6462L28.165 42.6499L28.5937 41.8712ZM27.5559 41.0152L26.8447 41.5485L26.8488 41.5539L27.5559 41.0152ZM26.9953 40.2121L27.7511 39.7443L27.4904 39.3232H26.9953V40.2121ZM26.7831 40.2121V39.3232H25.8943V40.2121H26.7831ZM26.7831 42V42.8889H27.672V42H26.7831ZM27.1998 38.5076L26.3698 38.8258L26.3707 38.8279L27.1998 38.5076ZM28.3286 40.0758L27.7884 40.7817L27.7929 40.7851L28.3286 40.0758ZM32.018 40.0455L32.5681 40.7437L32.569 40.743L32.018 40.0455ZM33.1544 38.4394L32.3236 38.1232L32.3223 38.1266L33.1544 38.4394ZM33.1619 33.9697L32.3293 34.2811L32.3323 34.2888L33.1619 33.9697ZM32.0331 32.4015L31.4874 33.1032L31.4953 33.1092L32.0331 32.4015ZM28.3134 32.3712L28.8397 33.0876L28.8444 33.0841L28.3134 32.3712ZM27.1922 33.9015L28.021 34.2228L28.0219 34.2206L27.1922 33.9015ZM25.9448 42V26.4848H24.167V42H25.9448ZM25.0559 27.3737H26.8437V25.596H25.0559V27.3737ZM25.9549 26.4848V32.2121H27.7326V26.4848H25.9549ZM26.8437 33.101H26.9953V31.3232H26.8437V33.101ZM27.7405 32.6966C27.8577 32.5163 28.0274 32.2752 28.2546 31.969L26.8269 30.9098C26.5894 31.2298 26.3955 31.5039 26.25 31.7277L27.7405 32.6966ZM28.2532 31.9709C28.3993 31.7751 28.6325 31.5679 28.9921 31.3654L28.1197 29.8164C27.6004 30.1089 27.1569 30.4673 26.8283 30.9079L28.2532 31.9709ZM28.995 31.3638C29.2563 31.2153 29.6864 31.101 30.3589 31.101V29.3232C29.5163 29.3232 28.7444 29.4615 28.1168 29.8181L28.995 31.3638ZM30.3589 31.101C31.1829 31.101 31.8737 31.3045 32.4626 31.6904L33.4371 30.2035C32.5309 29.6096 31.4945 29.3232 30.3589 29.3232V31.101ZM32.4626 31.6904C33.0569 32.08 33.5369 32.6398 33.8942 33.406L35.5054 32.6547C35.0243 31.6228 34.3377 30.7938 33.4371 30.2035L32.4626 31.6904ZM33.8942 33.406C34.2473 34.1633 34.4397 35.0903 34.4397 36.2121H36.2175C36.2175 34.8895 35.9907 33.6953 35.5054 32.6547L33.8942 33.406ZM34.4397 36.2121C34.4397 37.3451 34.247 38.2802 33.8934 39.0427L35.5062 39.7906C35.991 38.7451 36.2175 37.5438 36.2175 36.2121H34.4397ZM33.8942 39.041C33.536 39.8093 33.0564 40.3733 32.4643 40.768L33.4505 42.2472C34.3432 41.652 35.0253 40.822 35.5054 39.7923L33.8942 39.041ZM32.4678 40.7657C31.8838 41.1511 31.2012 41.3535 30.3892 41.3535V43.1313C31.5166 43.1313 32.5462 42.8439 33.447 42.2495L32.4678 40.7657ZM30.3892 41.3535C29.7278 41.3535 29.2942 41.2422 29.0225 41.0925L28.165 42.6499C28.7923 42.9952 29.5557 43.1313 30.3892 43.1313V41.3535ZM29.0291 41.0962C28.6561 40.8867 28.4139 40.6746 28.2629 40.4764L26.8488 41.5539C27.1827 41.992 27.6324 42.3507 28.1584 42.6462L29.0291 41.0962ZM28.267 40.4818C28.032 40.1685 27.8626 39.9245 27.7511 39.7443L26.2395 40.68C26.3905 40.924 26.5949 41.2153 26.8448 41.5485L28.267 40.4818ZM26.9953 39.3232H26.7831V41.101H26.9953V39.3232ZM25.8943 40.2121V42H27.672V40.2121H25.8943ZM26.7831 41.1111H25.0559V42.8889H26.7831V41.1111ZM25.9246 36.1818C25.9246 37.146 26.0657 38.0328 26.3698 38.8258L28.0298 38.1893C27.8187 37.6389 27.7023 36.9752 27.7023 36.1818H25.9246ZM26.3707 38.8279C26.6784 39.6244 27.1453 40.2895 27.7884 40.7817L28.8688 39.3699C28.522 39.1044 28.2364 38.7241 28.029 38.1872L26.3707 38.8279ZM27.7929 40.7851C28.4655 41.293 29.2678 41.5253 30.1468 41.5253V39.7475C29.5915 39.7475 29.1816 39.606 28.8642 39.3664L27.7929 40.7851ZM30.1468 41.5253C31.0576 41.5253 31.8851 41.2818 32.5681 40.7437L31.4679 39.3472C31.1509 39.597 30.7309 39.7475 30.1468 39.7475V41.5253ZM32.569 40.743C33.2152 40.2325 33.6837 39.5574 33.9864 38.7522L32.3223 38.1266C32.12 38.6648 31.8309 39.0605 31.467 39.348L32.569 40.743ZM33.9851 38.7556C34.2862 37.9644 34.4296 37.1028 34.4296 36.1818H32.6518C32.6518 36.9174 32.5376 37.5609 32.3236 38.1232L33.9851 38.7556ZM34.4296 36.1818C34.4296 35.272 34.2891 34.4242 33.9916 33.6506L32.3323 34.2888C32.5398 34.8284 32.6518 35.4552 32.6518 36.1818H34.4296ZM33.9945 33.6583C33.6951 32.8578 33.2246 32.1905 32.571 31.6938L31.4953 33.1092C31.8518 33.3802 32.1338 33.7583 32.3294 34.2811L33.9945 33.6583ZM32.5789 31.6999C31.8939 31.1671 31.062 30.9293 30.1468 30.9293V32.7071C30.7467 32.7071 31.1724 32.8581 31.4874 33.1032L32.5789 31.6999ZM30.1468 30.9293C29.2634 30.9293 28.4569 31.156 27.7824 31.6584L28.8444 33.0841C29.1599 32.8491 29.5756 32.7071 30.1468 32.7071V30.9293ZM27.7872 31.6549C27.1361 32.1332 26.6671 32.7908 26.3626 33.5824L28.0219 34.2206C28.2225 33.6991 28.5009 33.3365 28.8397 33.0876L27.7872 31.6549ZM26.3634 33.5803C26.0628 34.3558 25.9246 35.229 25.9246 36.1818H27.7023C27.7023 35.3972 27.8166 34.7503 28.021 34.2228L26.3634 33.5803Z" fill="#333333" mask="url(#path-1-outside-1_978_7055)"/>
</svg>
