<svg width="358" height="550" viewBox="0 0 358 550" fill="none" xmlns="http://www.w3.org/2000/svg">
<path d="M337.238 197.08H242.021V169.225H337.238V197.08Z" fill="#5C5C5C"/>
<path d="M325.3 169.225H230.083V144.212H325.3V169.225Z" fill="white"/>
<path d="M331.269 144.213H253.248V127.87H331.269V144.213Z" fill="#195829"/>
<path d="M215.872 53.5432C218.572 61.2174 223.972 80.1186 230.368 81.6819C236.905 83.3873 258.506 77.8448 265.328 74.8604C269.449 75.1446 271.439 77.7027 272.86 77.5606C274.281 77.2763 277.692 71.7339 272.718 68.8916C267.744 66.0493 262.059 70.4549 257.511 71.5918C252.964 72.7287 238.184 71.0233 235.768 71.876C230.794 70.3127 230.51 58.9436 222.267 43.0268C221.13 40.7529 216.867 40.4687 216.156 41.0372C212.461 45.0164 214.593 50.4167 215.872 53.5432Z" fill="#E6B6AA"/>
<path d="M260.922 70.3121C259.785 70.7384 258.506 71.3069 257.511 71.5911C252.964 72.7281 238.184 71.0227 235.768 71.8753C230.794 70.3121 230.794 57.9481 222.551 42.0313C222.551 42.0313 217.861 38.3363 216.156 41.0365C213.456 45.7263 214.593 50.4161 215.872 53.5426C218.572 61.2168 222.551 80.6865 228.946 82.2497C234.631 83.6709 254.243 81.8234 263.196 78.6969C262.485 76.8494 260.922 72.3017 260.922 70.3121Z" fill="#75CBE4"/>
<path d="M185.886 190.258V204.043H191.428L192.707 190.258H185.886Z" fill="#E6B6AA"/>
<path d="M206.208 188.268L204.503 202.337H210.756L213.029 188.268H206.208Z" fill="#E6B6AA"/>
<path d="M185.601 90.4927C185.601 90.4927 182.475 114.368 183.612 136.68C184.891 159.134 184.464 190.257 184.464 190.257H194.697C194.697 190.257 202.513 131.99 201.376 125.453C204.787 131.99 207.203 144.638 207.203 144.638L204.787 190.683L213.882 191.394C213.882 191.394 220.988 151.176 221.272 144.354C221.556 137.39 218.572 97.7405 218.572 94.4719C218.572 91.3453 185.601 90.4927 185.601 90.4927Z" fill="#333333"/>
<path d="M180.627 212.142H195.976C195.976 212.142 194.981 202.052 188.302 202.336C181.622 202.763 180.627 208.874 180.627 212.142Z" fill="#D84456"/>
<path d="M180.912 209.443C180.769 210.438 180.627 211.432 180.627 212.143H195.976C195.976 212.143 195.976 211.006 195.407 209.443H180.912Z" fill="white"/>
<path d="M202.371 212.144H227.525C227.525 212.144 225.962 205.038 220.135 204.611C214.166 204.327 211.324 204.327 210.756 202.338C208.482 201.769 204.503 202.338 204.503 202.338C204.503 202.338 201.802 208.591 202.371 212.144Z" fill="#D84456"/>
<path d="M202.371 209.727C202.229 210.579 202.229 211.432 202.371 212.143H227.525C227.525 212.143 227.241 211.148 226.673 209.727H202.371Z" fill="white"/>
<path d="M209.334 22.9886C209.334 22.9886 208.624 34.7841 211.466 37.4843C204.929 42.3162 198.676 36.6316 198.676 36.6316C198.676 36.6316 201.518 31.2312 196.686 24.5518C198.25 22.5622 209.334 22.9886 209.334 22.9886Z" fill="#E6B6AA"/>
<path d="M194.981 36.9158C194.981 36.9158 197.823 37.3422 199.386 35.2104C201.376 35.4947 210.329 36.6316 210.329 36.6316C210.329 36.6316 212.177 38.337 214.024 38.0527C212.603 41.1793 211.182 56.954 206.634 55.1065C202.087 53.259 194.981 36.9158 194.981 36.9158Z" fill="#E6B6AA"/>
<path d="M215.019 9.62988C215.019 9.62988 217.293 17.1619 214.735 19.72C212.035 17.7304 211.324 10.1983 211.324 10.1983L215.019 9.62988Z" fill="#333333"/>
<path d="M213.456 11.3346C213.456 11.3346 216.44 21.4247 215.303 25.4039C214.166 29.241 211.75 31.7991 209.903 32.2254C208.198 32.7939 200.523 31.657 198.392 25.6882C195.265 25.4039 194.128 22.5616 194.412 20.8563C194.554 19.293 197.255 19.0088 198.107 20.0036C197.113 15.1717 197.539 10.624 197.539 10.624L213.456 11.3346Z" fill="#E6B6AA"/>
<path d="M199.386 13.0404C199.386 13.0404 199.955 16.0249 199.244 17.446C198.818 19.0093 199.386 21.4252 199.386 21.4252L197.965 21.7094C197.965 21.7094 195.549 19.2935 195.123 19.8619C194.555 20.4304 193.276 23.699 197.823 25.5465C198.392 25.6886 198.96 27.2519 198.818 29.3836C197.397 29.81 191.286 22.5621 190.718 17.8723C190.149 13.1825 189.439 6.92953 193.986 6.78741C194.27 3.51878 196.686 1.10282 202.513 0.534358C208.34 -0.0341007 211.751 3.80299 214.593 5.79259C217.435 7.7822 218.998 11.9035 210.756 12.6141C202.655 13.3247 199.386 13.0404 199.386 13.0404Z" fill="#333333"/>
<path d="M196.829 36.4888C196.829 36.4888 202.939 49.2791 208.198 48.9949C210.472 48.8528 213.314 42.0313 213.172 37.4836C218.714 39.0469 222.551 42.0313 222.551 42.0313C222.551 42.0313 225.678 51.553 222.267 64.9117C218.714 78.4126 225.394 107.12 225.394 107.12C225.394 107.12 200.381 115.647 181.054 107.12C182.759 95.6085 184.038 66.6171 183.328 58.2323C182.759 49.8476 179.633 41.8892 179.633 41.8892C179.633 41.8892 192.707 36.2046 196.829 36.4888Z" fill="#317159"/>
<path d="M283.518 30.9463L292.187 33.7886L294.319 122.894L277.407 130.711L283.518 30.9463Z" fill="#2BBC6C"/>
<path d="M283.518 30.9462L213.598 22.8457L182.191 112.236L277.407 130.711L283.518 30.9462Z" fill="#42CE84"/>
<path d="M228.804 96.8876C228.804 96.8876 229.941 81.9656 260.354 80.4023C255.522 96.8876 239.321 101.009 228.804 96.8876Z" fill="#1FA056"/>
<path d="M236.052 77.986C236.052 77.986 230.368 64.2009 256.659 48.9946C259.927 65.9063 247.137 76.8491 236.052 77.986Z" fill="#1FA056"/>
<path d="M232.073 88.9288C232.073 88.9288 239.321 75.8542 215.161 57.6636C209.761 74.0067 221.13 86.3707 232.073 88.9288Z" fill="#1FA056"/>
<path d="M236.336 58.8012C232.215 54.822 227.383 65.3384 222.977 67.0438C218.572 68.607 202.939 70.3124 200.666 71.3072C197.397 70.7388 194.27 64.4857 191.286 56.8115L179.633 57.0958C183.47 65.1963 190.291 80.971 196.402 81.8237C202.939 82.6764 223.83 74.8601 230.368 71.1651C234.489 71.023 236.336 69.1755 237.757 66.7595C238.61 65.6226 238.326 60.7908 236.336 58.8012Z" fill="#317159"/>
<path d="M222.977 67.0439C218.572 68.6072 202.939 70.3125 200.665 71.3073C195.549 70.3125 197.255 55.9589 185.317 42.6002C183.612 40.6106 179.206 40.7527 177.359 44.0213C174.658 48.7111 175.227 51.9798 176.79 55.1063C180.343 62.4962 188.302 82.2501 194.981 83.1028C200.523 83.8134 218.714 79.55 227.383 75.5708C225.962 73.8654 223.972 68.8914 223.688 66.6176C223.498 66.8071 223.262 66.9492 222.977 67.0439Z" fill="#317159"/>
<path d="M119.66 216.691C115.113 209.444 111.986 202.338 108.718 194.806C105.591 187.558 99.1958 180.026 91.2374 179.031C83.1369 178.036 81.2893 186.563 74.4678 184.147C70.3465 182.726 67.9307 179.031 63.9515 178.036C60.9671 177.326 53.7193 177.042 51.1612 178.178C47.0399 179.742 45.7607 184.858 43.2026 188.126C40.7867 191.111 38.3708 191.821 35.1022 193.527C25.7226 198.074 27.2859 209.87 24.4436 218.965L38.2286 229.198C42.9184 230.761 48.0346 231.187 53.0086 230.619C74.0415 228.771 95.3588 230.334 116.534 229.198C126.34 228.629 124.066 223.513 119.66 216.691Z" fill="#D6D6D6"/>
<path d="M223.262 203.19C220.277 198.642 213.172 192.247 208.624 189.831C201.66 186.278 192.707 189.973 185.175 187.273C179.206 185.142 173.522 181.731 167.979 178.746C164 176.615 160.021 174.909 157.321 170.93C155.189 168.23 154.763 166.24 152.205 163.824C144.104 156.292 138.988 164.535 129.75 163.256C126.055 162.83 123.071 160.271 119.376 160.271C116.25 160.414 107.723 162.83 105.307 164.819C102.891 166.667 101.896 170.504 99.6222 172.635C97.2062 174.767 93.9376 175.336 91.8059 177.325C85.8371 183.152 74.4679 194.805 73.8995 202.053L84.2737 220.954C86.4054 226.071 99.9064 226.639 104.738 228.344C109.996 230.05 113.976 230.192 119.376 230.192C135.293 230.192 151.068 229.197 166.984 229.197C179.917 229.197 240.742 229.908 223.262 203.19Z" fill="#ADADAD"/>
<path d="M268.88 204.469C264.049 200.631 259.785 195.942 254.953 192.247C247.847 186.704 240.458 181.872 233.068 176.756C227.525 172.777 219.425 172.493 212.745 173.345C206.919 174.198 201.376 181.73 198.96 186.846C197.539 190.115 179.917 198.784 178.211 202.053C176.932 204.469 192.565 201.2 192.565 203.9C192.423 208.163 196.402 212.853 198.107 216.548C200.523 222.091 205.497 229.339 211.893 230.191L226.246 231.186C237.9 231.186 248.416 229.196 260.069 227.349C265.186 226.638 277.692 226.638 279.397 219.959C280.96 213.422 273.286 207.879 268.88 204.469Z" fill="#5C5C5C"/>
<path d="M269.307 540.286C198.25 540.286 127.145 540.286 55.993 540.286C43.4869 430.858 30.9335 321.477 18.3326 212.144C114.592 212.144 210.803 212.144 306.967 212.144C294.461 321.477 281.908 430.858 269.307 540.286Z" fill="#FCFDFF"/>
<path d="M306.967 212.144C210.803 212.144 114.592 212.144 18.3326 212.144C19.3748 220.765 20.3698 229.434 21.3172 238.151L302.846 248.383C304.172 236.256 305.546 224.176 306.967 212.144Z" fill="#FCFDFF"/>
<path d="M280.676 440.663C286.455 390.733 292.187 340.756 297.872 290.732H27.428C33.1126 340.756 38.8445 390.733 44.6238 440.663H280.676Z" fill="#F6F6FF"/>
<path d="M147.799 318.445L126.624 353.974L141.688 362.216L166.985 317.166L147.799 318.445Z" fill="#195829"/>
<path d="M147.799 318.445C147.799 318.445 158.316 319.582 165.563 332.23C172.953 344.878 176.08 350.705 176.08 350.705L166.416 357.953L191.144 361.221L198.25 340.473L189.581 342.746C189.581 342.746 177.217 321.287 174.516 317.592C171.958 313.897 165.137 309.918 158.315 311.197C151.494 312.334 148.936 316.313 147.799 318.445Z" fill="#195829"/>
<path d="M218.714 393.908L199.813 357.1L184.749 365.485L209.619 410.819L218.714 393.908Z" fill="#195829"/>
<path d="M218.714 393.908C218.714 393.908 212.177 402.15 197.681 401.724C183.043 401.155 176.506 400.871 176.506 400.871L175.369 388.792L159.452 408.119L173.38 425.031L176.08 416.646C176.08 416.646 200.808 417.357 205.355 416.93C209.761 416.646 216.867 412.951 219.425 406.556C221.983 400.161 219.993 396.039 218.714 393.908Z" fill="#195829"/>
<path d="M116.818 417.499L158.315 418.778L158.173 401.582L106.444 401.44L116.818 417.499Z" fill="#195829"/>
<path d="M116.818 417.499C116.818 417.499 112.839 407.835 120.229 395.329C127.761 382.823 131.314 377.138 131.314 377.138L142.399 382.112L133.161 358.806L111.56 362.643L117.671 369.18C117.671 369.18 105.023 390.497 103.175 394.619C101.185 398.74 101.043 406.556 105.449 411.957C109.712 417.357 114.402 417.499 116.818 417.499Z" fill="#195829"/>
<path d="M325.3 213.565C325.3 223.513 317.341 231.471 307.536 231.471H17.9064C7.95838 231.471 0 223.513 0 213.565C0 203.759 7.95838 195.8 17.9064 195.8H307.536C317.341 195.8 325.3 203.759 325.3 213.565Z" fill="#195829"/>
<path d="M239.747 184.288L286.361 549.523H292.471L245.716 184.288H239.747Z" fill="#333333"/>
<path d="M310.946 184.288H304.978L351.591 549.523H357.56L310.946 184.288Z" fill="#333333"/>
<path d="M349.886 515.274H284.655V509.305H349.886V515.274Z" fill="#333333"/>
<path d="M342.354 458.854H277.265V452.885H342.354V458.854Z" fill="#333333"/>
<path d="M334.964 402.434H269.733V396.465H334.964V402.434Z" fill="#333333"/>
<path d="M327.574 346.014H262.343V340.045H327.574V346.014Z" fill="#333333"/>
<path d="M320.042 289.453H254.953V283.626H320.042V289.453Z" fill="#333333"/>
<path d="M312.652 233.033H247.421V227.064H312.652V233.033Z" fill="#333333"/>
</svg>
