<svg width="358" height="316" viewBox="0 0 358 316" fill="none" xmlns="http://www.w3.org/2000/svg">
<path d="M176.54 136.551L197.331 159.839L201.28 187.575L208.18 187.439L209.088 153.756L184.211 117.803L176.54 136.551Z" fill="#D6D6D6"/>
<path d="M202.96 186.213L207.454 185.896L208.861 193.295L205.093 196.155L201.28 194.657L202.778 191.388L201.916 191.434L201.144 192.387L200.236 191.57L202.96 186.213Z" fill="#EBCEB1"/>
<path d="M160.47 309.099L159.789 312.776L152.071 315.227L149.302 310.96L153.524 307.873L161.196 305.422L160.47 309.099Z" fill="#333333"/>
<path d="M176.994 217.718L161.06 307.964L153.887 308.236L149.62 245.5L147.577 214.313L176.994 217.718Z" fill="#333333"/>
<path d="M198.738 216.765L188.524 305.24L181.942 305.83L174.951 238.055L169.413 218.036L198.738 216.765Z" fill="#333333"/>
<path d="M181.896 304.968L182.214 308.781L189.659 311.958L192.927 307.827L189.023 304.332L181.896 304.968Z" fill="#333333"/>
<path d="M149.302 219.352L146.079 208.957L149.302 197.108L198.738 198.833V216.765L149.302 219.352Z" fill="#333333"/>
<path d="M160.152 121.888L143.265 95.6043L143.764 67.5954L136.909 66.6421L130.736 99.7807L149.62 139.184L160.152 121.888Z" fill="#D6D6D6"/>
<path d="M141.903 68.6851L137.363 68.2766L137.182 60.741L141.358 58.5166L144.854 60.6048L142.902 63.6009L143.764 63.6463L144.672 62.8746L145.444 63.8278L141.903 68.6851Z" fill="#EBCEB1"/>
<path d="M175.132 89.8843C170.23 92.9712 163.284 91.2007 158.835 94.8778C155.93 97.2837 154.841 101.596 155.522 105.409C155.839 107.225 156.52 108.996 157.791 110.267C158.563 111.129 159.562 111.719 160.606 112.173C162.013 112.809 163.511 113.127 165.009 113.217C164.918 114.61 164.691 115.971 164.328 117.303C167.143 117 169.957 116.683 172.772 116.35C172.59 114.716 172.409 113.066 172.227 111.402C172.923 111.008 173.574 110.539 174.179 109.994C177.811 106.681 179.354 101.142 178.083 96.285C177.447 94.0153 176.313 91.9271 175.132 89.8843Z" fill="#E6B6AA"/>
<path d="M162.285 93.97C162.467 93.8793 162.664 93.8036 162.876 93.7431C165.826 92.7898 169.004 92.5174 172.091 92.8352C173.226 92.9713 174.361 93.1983 175.359 93.7885C176.812 94.6056 177.811 96.149 178.31 97.7378C178.809 99.3721 178.9 101.097 178.9 102.777C179.581 102.595 180.08 102.05 180.534 101.46C181.805 99.826 183.122 97.7832 183.53 95.6951C183.939 93.6069 183.213 91.1101 184.075 89.1581C184.484 88.2502 185.301 87.5693 185.936 86.7976C187.298 85.118 187.752 82.712 187.117 80.6692C186.708 79.3074 185.8 78.0817 184.574 77.4915C182.486 76.4929 179.99 77.3554 177.72 76.856C176.585 76.629 175.541 76.0389 174.361 75.8119C171.955 75.4034 169.594 76.856 167.733 78.4448C165.872 80.0791 164.192 82.0311 161.922 82.9844C160.106 83.8015 158.064 83.8923 156.202 84.5278C153.07 85.6173 150.619 88.2502 149.529 91.3825C148.304 94.8779 148.576 99.2813 151.209 102.005C152.48 103.367 153.57 104.91 154.614 106.454C155.022 106.998 157.156 108.996 157.02 106.908C156.883 105.273 156.248 103.73 156.112 102.141C155.839 98.1918 158.79 95.2411 162.285 93.97Z" fill="#333333"/>
<path d="M183.757 117.485L159.834 115.488C159.834 115.488 151.935 125.747 143.265 155.299C134.594 184.852 141.04 211 141.04 211C141.04 211 168.005 206.142 206.092 210.546L194.97 137.232L183.757 117.485Z" fill="#D6D6D6"/>
<path d="M283.218 116.94L281.13 110.131L283.945 109.087L286.396 113.445L287.531 112.355L288.575 118.393L285.806 119.891L283.218 116.94Z" fill="#D6D6D6"/>
<path d="M309.275 119.845L296.383 132.692L288.893 116.214L283.491 119.437L292.434 154.437L316.13 136.914L309.275 119.845Z" fill="#D6D6D6"/>
<path d="M332.109 195.883L324.664 249.449L327.297 288.172L321.895 290.033L317.038 254.261L306.688 188.938L332.109 195.883Z" fill="#EBCEB1"/>
<path d="M321.895 291.122L321.305 295.162L322.667 302.743L327.116 302.335L327.978 291.031L327.297 289.261L321.895 291.122Z" fill="#514943"/>
<path d="M288.212 194.294L290.618 239.735L300.741 303.243L306.234 303.152L303.782 244.274L310.91 189.981L288.212 194.294Z" fill="#EBCEB1"/>
<path d="M300.832 302.153L293.841 307.283L294.703 311.142L307.55 308.1L306.506 302.516L300.832 302.153Z" fill="#514943"/>
<path d="M287.032 201.103L287.259 253.852L293.705 289.397L308.413 287.036L307.959 245.908L311.046 200.785L309.502 193.931L288.257 196.337L287.032 201.103Z" fill="#333333"/>
<path d="M313.089 246.681L317.673 284.086L330.43 282.089L327.524 246.499L332.245 200.968L329.476 188.62L308.004 192.252L313.089 246.681Z" fill="#333333"/>
<path d="M338.601 100.553C337.647 91.2466 325.799 85.5722 320.76 95.0144C319.262 97.8744 318.037 100.961 317.991 104.23C317.9 107.453 319.172 110.812 321.714 112.673C321.744 112.703 321.759 112.719 321.759 112.719C321.487 113.505 321.214 114.292 320.942 115.079C320.851 115.215 320.806 115.397 320.851 115.579C320.942 115.76 321.124 115.851 321.35 115.942C322.258 116.275 323.166 116.623 324.074 116.986C324.528 117.122 324.982 117.304 325.481 117.258C326.526 117.167 327.206 116.032 327.479 114.988C327.539 114.746 327.585 114.489 327.615 114.217C333.653 113.49 339.236 106.636 338.601 100.553Z" fill="#E6B6AA"/>
<path d="M320.488 97.8291C318.763 99.8719 318.4 102.641 318.354 105.228C318.354 107.816 317.673 110.177 317.9 112.764C317.537 113.082 316.992 112.764 316.675 112.401C314.768 110.404 312.892 108.391 311.046 106.363C310.819 106.136 310.637 105.909 310.546 105.637C310.456 105.319 310.501 104.956 310.592 104.593C312.181 97.7383 315.676 93.108 320.397 88.2053C322.667 85.8447 328.16 83.7111 330.52 87.2974C331.065 88.1145 331.156 89.1586 331.201 90.1573C331.201 90.7474 331.201 91.3375 330.974 91.8823C330.112 94.1067 327.978 93.6527 326.208 94.1066C324.029 94.6968 321.986 96.0587 320.488 97.8291Z" fill="#333333"/>
<path d="M335.605 104.82C335.287 106.817 334.47 108.996 333.607 110.812C333.289 111.402 331.791 112.764 331.701 113.173C331.383 114.444 333.562 117.848 334.061 119.119C338.54 117.455 343.019 115.79 347.498 114.126C347.861 113.99 348.224 113.854 348.451 113.581C348.678 113.309 348.724 112.991 348.815 112.628C350.04 106.136 349.269 100.008 347.68 93.6981C346.091 87.4335 341.234 81.7591 334.606 81.169C329.249 80.6696 324.937 84.0289 326.026 89.7941C326.843 94.152 331.882 95.8317 334.243 99.1001C335.695 101.143 335.922 102.959 335.605 104.82Z" fill="#333333"/>
<path d="M332.79 117.985C332.881 118.045 332.987 118.106 333.108 118.166C337.92 120.708 340.825 129.742 342.505 135.053C346.772 148.763 347.68 162.563 346.363 176.862C345.682 184.58 344.638 192.297 343.413 199.923C343.095 202.057 338.828 220.805 339.781 221.395C330.339 215.358 320.67 209.592 310.365 205.507C300.015 201.421 288.847 205.053 277.816 206.006C284.036 182.31 291.889 152.394 301.604 130.015C302.784 127.336 303.692 124.431 305.235 121.98C307.006 119.12 309.185 118.484 312.09 117.031C313.043 116.532 314.042 116.033 315.086 115.76C320.624 114.217 327.706 115.352 332.79 117.985Z" fill="#D6D6D6"/>
<path d="M291.934 172.823C289.695 172.974 287.47 173.125 285.261 173.276C285.201 172.308 285.125 171.34 285.034 170.371C286.547 169.917 288.061 169.463 289.574 169.009C289.332 168.586 289.09 168.162 288.847 167.738C290.799 167.874 292.706 168.101 294.613 168.238C294.84 169.236 295.067 170.235 295.294 171.188C294.159 171.733 293.024 172.232 291.934 172.823Z" fill="#EBCEB1"/>
<path d="M327.615 124.658C327.07 124.749 326.525 125.066 326.026 125.429C323.938 126.973 322.576 129.197 321.986 131.603C320.987 135.462 321.305 139.366 320.533 143.179C319.671 147.492 318.354 151.577 316.947 155.799C309.184 160.475 301.331 164.379 292.706 167.42C293.251 169.327 293.75 171.279 294.295 173.185C306.007 171.279 316.72 167.647 327.797 163.516C329.522 157.479 331.201 151.623 332.518 145.403C333.653 139.865 335.332 134.236 333.88 128.607C333.017 125.429 330.702 124.068 327.615 124.658Z" fill="#D6D6D6"/>
<path d="M91.832 163.969L89.7438 168.009L95.9629 172.231L100.094 169.916L100.275 165.876H96.6893L97.0978 165.149L98.2327 164.786L97.8696 163.651L91.832 163.969Z" fill="#EBCEB1"/>
<path d="M56.9684 119.846L69.9515 148.263L93.784 163.016L90.8787 169.281L59.6467 156.57L36.7675 119.346L56.9684 119.846Z" fill="#9299A2"/>
<path d="M33.1359 297.431L32.8635 300.745L30.6845 303.469C30.6845 303.469 30.049 307.509 31.2293 308.19C32.4096 308.916 51.1124 311.141 51.1124 311.141L53.019 308.281L51.4756 305.103L41.6248 300.564L38.2202 296.796L33.1359 297.431Z" fill="#998675"/>
<path d="M52.6559 290.26L52.3835 293.573L50.2045 296.297C50.2045 296.297 49.6144 300.337 50.7946 301.064C51.9749 301.745 70.3146 303.969 70.3146 303.969L72.2212 301.064L70.7232 297.886L61.0086 293.392L57.6947 289.624L52.6559 290.26Z" fill="#998675"/>
<path d="M30.1852 232.38C31.8194 235.785 33.2267 238.826 33.499 243.184C33.7714 247.451 32.9543 251.719 32.3642 255.94C30.276 270.603 30.4576 285.493 30.6845 300.337C35.7991 300.549 40.9136 300.655 46.0281 300.655C46.8906 300.655 47.8893 300.609 48.4341 299.928C49.0242 299.293 48.9788 298.294 48.888 297.432C47.7078 286.9 47.7985 276.277 47.9347 265.7C48.0255 260.48 48.2071 256.031 49.2512 250.992C50.3407 245.999 50.1137 240.824 49.7959 235.739C48.9334 223.346 46.4367 211.181 45.7558 198.788C45.6196 196.563 45.3926 194.157 43.9399 192.432C42.2149 190.344 39.2188 189.936 36.4951 189.936C29.0503 189.936 20.6522 191.116 20.289 200.149C20.1528 203.146 20.9699 206.096 21.7871 209.002C23.739 215.629 25.8272 222.302 28.5056 228.658C29.0503 230.02 29.6404 231.2 30.1852 232.38Z" fill="#333333"/>
<path d="M50.9308 226.706C52.4743 230.156 53.8361 233.288 53.8815 237.646C53.9269 241.913 52.8828 246.135 52.0203 250.311C49.0242 264.883 48.4795 279.773 47.9347 294.572C53.3519 295.056 58.7842 295.419 64.2316 295.661C65.1396 295.706 66.1836 295.661 66.8192 295.071C67.5001 294.435 67.4547 293.437 67.4093 292.574C66.5468 279.409 65.5481 266.245 66.5014 253.08C66.8192 248.041 67.4547 243.048 67.7725 238.009C68.3172 228.204 67.5001 218.353 66.3198 208.638C65.5935 202.601 66.6376 189.754 60.5546 186.122C57.7855 184.488 54.3355 184.261 51.1124 184.76C49.4782 184.987 47.8439 185.441 46.4367 186.304C43.8038 187.938 42.3965 190.979 42.0788 193.976C41.8064 196.972 42.4873 199.968 43.2136 202.918C44.9387 209.637 46.7999 216.401 49.342 222.892C49.8414 224.254 50.3861 225.48 50.9308 226.706Z" fill="#333333"/>
<path d="M24.2838 113.762C20.3798 116.077 17.4291 119.618 16.385 124.884C11.7547 148.626 14.6146 173.139 17.5199 197.153C17.7015 198.788 18.0193 200.649 19.3357 201.602C20.8338 202.692 22.9219 202.192 24.7378 201.693C38.8103 197.517 53.2914 194.566 67.8633 192.795C67.0008 175.137 65.2757 157.523 62.7336 140.001C62.0527 135.28 61.281 130.513 59.5559 126.064C55.6065 116.168 48.888 109.086 37.6754 109.994C32.9089 110.403 28.1424 111.492 24.2838 113.762Z" fill="#D6D6D6"/>
<path d="M48.8881 90.4742C49.0696 93.5156 49.2058 96.7387 47.7078 99.3716C46.4367 101.596 44.1216 103.049 42.3511 104.91C41.307 106.09 40.3991 107.588 40.2176 109.132C39.9906 110.72 40.8531 112.037 40.8531 113.626C40.8531 113.762 40.8077 113.898 40.7623 114.034C40.6715 114.171 40.5353 114.261 40.3991 114.352C39.7182 114.715 38.8557 114.761 38.0386 114.761C37.1307 114.761 36.0866 114.897 35.1333 114.761C33.9076 114.624 34.1346 114.352 34.0438 113.126C33.8622 111.22 33.5898 109.359 32.9997 107.588C31.774 103.911 29.0957 100.734 28.3694 96.8749C27.5069 92.6077 28.7779 88.4314 30.1398 84.3458C30.7299 82.53 31.4109 80.6688 32.6365 79.2161C35.3603 76.0385 41.8064 74.9944 44.8479 78.2628C48.5249 82.1668 48.5703 85.3445 48.8881 90.4742Z" fill="#E6B6AA"/>
<path d="M47.9348 88.3863C49.8868 91.11 50.2045 94.9686 48.7065 98.0101C51.0216 96.3759 52.1111 93.516 52.5651 90.7469C52.8374 89.2034 52.9282 87.66 52.792 86.1165C52.2019 81.2592 48.3433 76.7651 43.5314 76.0842C40.3083 75.6756 40.3083 79.7612 41.5794 81.7586C43.2136 84.3915 46.1189 85.935 47.9348 88.3863Z" fill="#333333"/>
<path d="M39.4004 73.542C37.63 72.6795 35.5418 72.6341 33.5445 72.8156C30.8207 73.0426 25.3733 73.8597 22.1502 75.9025C20.289 71.9985 15.0686 69.0478 11.21 71.0452C8.94021 72.2255 7.98691 74.813 9.031 76.8558C9.30337 77.3552 9.66654 77.8091 10.1205 78.1723C10.529 78.49 11.0284 78.7624 11.3462 79.1256C12.6626 80.4874 11.4824 82.4394 10.4837 83.9829C9.43956 85.7079 8.66784 87.6145 8.30468 89.5665C8.0777 90.656 8.03231 91.7909 8.53166 92.835C9.03101 93.8337 10.2567 94.6962 11.5731 94.6508C14.0245 94.56 14.5238 92.4718 14.66 90.5652C14.7962 88.3862 15.1594 86.4796 16.1581 84.4822C16.5212 83.7105 17.0206 82.9388 17.7923 82.7118C17.9436 82.6815 18.0949 82.6664 18.2462 82.6664C17.7469 84.4822 17.4291 86.3434 17.7015 88.3408C18.2916 92.381 19.7897 96.3304 22.241 99.5535C24.6924 102.822 28.1878 105.319 32.0918 106.408C32.3642 103.911 29.7766 102.05 29.2773 99.5989C29.0503 98.2824 29.4589 96.8751 30.1398 95.7403C30.8207 94.56 31.774 93.6067 32.7273 92.608C34.3918 90.9738 36.0412 89.3244 37.6754 87.6599C39.0373 86.3434 40.3537 84.9816 41.3978 83.3473C43.3952 80.0789 43.3044 75.4486 39.4004 73.542Z" fill="#333333"/>
<path d="M175.722 33.5492C176.494 34.9565 177.13 36.4545 177.947 37.8164C180.943 42.946 183.894 48.0757 186.753 53.3416L176.993 59.1068C171.183 62.5114 171.047 66.6878 176.676 68.322L192.609 72.9523C198.284 74.5866 207.544 77.3103 213.174 78.9445L229.107 83.5748C234.782 85.2091 240.456 81.8498 241.773 76.13L245.45 59.9239C246.721 54.2041 248.854 44.8073 250.171 39.0421L253.802 22.8813C255.119 17.1161 251.396 15.2095 245.586 18.6596L235.599 24.561C231.922 18.2964 228.29 12.0773 226.883 9.80749C223.66 4.67782 217.486 0.72843 205.32 0.773825C196.286 0.864615 172.363 1.0008 157.201 1.0462C159.683 5.43441 162.179 9.82262 164.691 14.2108C168.353 20.657 172.03 27.1031 175.722 33.5492Z" fill="#195829"/>
<path d="M101.501 55.1122L133.596 73.9512C138.362 76.7204 144.627 75.1769 147.487 70.4558C147.487 70.4558 165.599 40.7219 167.279 37.9528C168.459 35.91 169.866 35.1383 171.183 35.4106C171.637 35.5014 172 35.0475 171.773 34.6389L152.662 1.04639C147.396 1.09178 143.219 1.13718 141.04 1.13718C132.688 1.18257 123.155 2.63522 116.436 12.8038C111.261 20.6572 98.1873 41.539 98.1873 41.539C95.282 46.2147 96.7801 52.2977 101.501 55.1122Z" fill="#195829"/>
<path d="M239.049 150.715C237.445 150.684 235.856 150.654 234.282 150.624C228.29 150.533 222.389 150.397 216.442 150.17L216.533 138.821C216.624 132.057 213.128 129.787 208.816 133.782L196.604 144.995C192.246 148.99 185.165 155.527 180.852 159.521L168.641 170.734C164.283 174.729 164.237 181.311 168.459 185.397L180.398 196.927C184.665 201.013 191.611 207.686 195.833 211.771L207.772 223.302C212.039 227.387 215.579 225.163 215.625 218.399L215.761 206.823C223.024 206.914 230.197 207.005 232.875 206.959C238.958 206.869 245.54 203.646 251.76 193.205C256.39 185.488 268.647 164.923 276.455 151.895C271.401 151.774 266.362 151.638 261.338 151.486C253.893 151.305 246.448 150.942 239.049 150.715Z" fill="#195829"/>
<path d="M287.486 110.948C283.445 102.459 272.369 80.4881 272.369 80.4881C269.872 75.54 263.88 73.6334 259.023 76.2663L226.293 94.0159C221.435 96.6034 219.529 102.777 222.116 107.68C222.116 107.68 238.186 138.549 239.684 141.409C240.774 143.497 240.728 145.131 239.821 146.084C239.503 146.402 239.684 146.947 240.184 146.992L278.815 147.991C281.493 143.497 283.627 139.911 284.716 138.049C289.029 130.877 292.706 121.934 287.486 110.948Z" fill="#195829"/>
<path d="M103.544 147.628C104.316 146.266 105.269 144.949 106.041 143.588C108.946 138.367 111.851 133.192 114.847 128.062L124.834 133.51C130.736 136.778 134.367 134.735 132.915 129.061L128.738 112.991C127.286 107.271 124.834 97.9653 123.382 92.2455L119.205 76.1756C117.753 70.5011 111.942 67.3235 106.358 69.1393L90.5609 74.269C84.9773 76.0848 75.8074 79.0355 70.1784 80.8967L54.4263 85.9809C48.7972 87.7968 49.0696 91.9731 55.0164 95.1962L65.1849 100.78C61.6895 107.135 58.1941 113.445 56.9684 115.806C54.1993 121.208 53.9723 128.562 60.2369 138.957C64.8672 146.674 77.2601 167.193 85.0681 180.176C87.5497 175.788 90.0313 171.4 92.5129 167.012C96.205 160.565 99.8821 154.104 103.544 147.628Z" fill="#195829"/>
<path d="M149.666 153.075C149.666 153.075 114.847 152.712 111.624 152.666C109.264 152.666 107.857 151.895 107.448 150.578C107.312 150.17 106.722 150.079 106.495 150.487L87.3832 184.08C90.107 188.574 92.2859 192.16 93.3754 194.022C97.688 201.149 103.816 208.639 116.028 209.184C125.379 209.638 149.983 210.182 149.983 210.182C155.522 210.318 160.016 205.915 159.97 200.377L159.743 163.198C159.743 157.66 155.204 153.12 149.666 153.075Z" fill="#195829"/>
<path d="M74.7634 154.3L73.5831 158.658L80.5286 161.473L84.0694 158.34L83.3885 154.346L79.893 155.117L80.12 154.3L81.1641 153.71L80.574 152.666L74.7634 154.3Z" fill="#D6D6D6"/>
<path d="M31.1839 118.983C31.3655 119.013 31.5471 119.074 31.7286 119.165C32.4096 119.573 33.0905 121.026 33.5899 121.661C35.7688 124.567 37.9478 127.472 40.1268 130.377C42.3965 133.404 44.6814 136.445 46.9815 139.502C47.5716 140.319 49.0243 143.224 50.0229 143.587L76.443 152.893L74.945 159.657L41.7156 153.892C37.8116 149.837 33.9076 145.781 30.0036 141.726C26.0088 137.595 13.9791 129.515 20.743 123.114C22.0141 121.934 23.6483 121.162 25.2825 120.526C26.826 119.891 29.5043 118.62 31.1839 118.983Z" fill="#D6D6D6"/>
</svg>
