<svg width="100%" height="100%" preserveAspectRatio="xMidYMid meet" viewBox="0 0 140 140" fill="none" xmlns="http://www.w3.org/2000/svg">
<circle cx="70" cy="70" r="70" fill="#195829"/>
<g clip-path="url(#clip0_2015_6695)">
<path d="M68.1875 107.137C67.0286 106.767 65.9873 106.099 65.1683 105.2C64.3492 104.3 63.781 103.201 63.5208 102.012C63.2545 100.913 62.7324 99.8926 61.997 99.0333C61.2617 98.1741 60.3338 97.5006 59.2889 97.0677C58.2441 96.6348 57.1118 96.4548 55.9842 96.5422C54.8566 96.6296 53.7656 96.9821 52.8 97.5708C46.3708 101.487 39.0083 94.1292 42.925 87.6958C43.5129 86.7306 43.8648 85.6403 43.952 84.5134C44.0392 83.3866 43.8593 82.2551 43.427 81.2109C42.9946 80.1667 42.3219 79.2393 41.4636 78.5039C40.6054 77.7686 39.5857 77.2462 38.4875 76.9792C31.1708 75.2042 31.1708 64.7958 38.4875 63.0208C39.5867 62.7545 40.6074 62.2324 41.4667 61.497C42.3259 60.7617 42.9994 59.8338 43.4323 58.7889C43.8652 57.7441 44.0452 56.6118 43.9578 55.4842C43.8704 54.3566 43.5179 53.2656 42.9292 52.3C39.0125 45.8708 46.3708 38.5083 52.8042 42.425C56.9708 44.9583 62.3708 42.7167 63.5208 37.9875C65.2958 30.6708 75.7042 30.6708 77.4792 37.9875C77.7455 39.0867 78.2676 40.1074 79.003 40.9667C79.7383 41.8259 80.6662 42.4994 81.711 42.9323C82.7559 43.3652 83.8882 43.5452 85.0158 43.4578C86.1434 43.3704 87.2344 43.0179 88.2 42.4292C94.6292 38.5125 101.992 45.8708 98.075 52.3042C97.4871 53.2694 97.1352 54.3597 97.048 55.4866C96.9608 56.6134 97.1407 57.7449 97.573 58.7891C98.0054 59.8333 98.6781 60.7607 99.5364 61.496C100.395 62.2314 101.414 62.7538 102.512 63.0208C107.971 64.3458 109.358 70.4792 106.667 74.2458" stroke="#FCFDFF" stroke-width="6.25" stroke-linecap="round" stroke-linejoin="round"/>
<path d="M83 99.1666L91.3333 107.5L108 90.8333" stroke="#FCFDFF" stroke-width="6.25" stroke-linecap="round" stroke-linejoin="round"/>
<path d="M58 70C58 73.3152 59.317 76.4946 61.6612 78.8388C64.0054 81.183 67.1848 82.5 70.5 82.5C73.8152 82.5 76.9946 81.183 79.3388 78.8388C81.683 76.4946 83 73.3152 83 70C83 66.6848 81.683 63.5054 79.3388 61.1612C76.9946 58.817 73.8152 57.5 70.5 57.5C67.1848 57.5 64.0054 58.817 61.6612 61.1612C59.317 63.5054 58 66.6848 58 70Z" stroke="#FCFDFF" stroke-width="6.25" stroke-linecap="round" stroke-linejoin="round"/>
</g>
<defs>
<clipPath id="clip0_2015_6695">
<rect width="100" height="100" fill="white" transform="translate(20.5 20)"/>
</clipPath>
</defs>
</svg>
