<svg width="100%" height="100%" viewBox="0 0 32 32" fill="none" xmlns="http://www.w3.org/2000/svg"  preserveAspectRatio="xMidYMid meet">
<rect x="0.32" y="0.32" width="31.36" height="31.36" rx="15.68" stroke="#FCFDFF" stroke-width="0.64"/>
<path d="M21.3017 13.2802C21.3098 13.3977 21.3098 13.5152 21.3098 13.6339C21.3098 17.2485 18.5581 21.4172 13.5265 21.4172V21.415C12.0401 21.4172 10.5846 20.9914 9.33334 20.1887C9.54947 20.2147 9.76668 20.2277 9.98444 20.2282C11.2162 20.2293 12.4128 19.816 13.3818 19.0549C12.2113 19.0327 11.1848 18.2695 10.8262 17.1553C11.2362 17.2344 11.6588 17.2181 12.0612 17.1082C10.785 16.8503 9.86689 15.7291 9.86689 14.4269C9.86689 14.415 9.86689 14.4036 9.86689 14.3922C10.2471 14.604 10.6729 14.7215 11.1084 14.7345C9.90644 13.9312 9.53593 12.3322 10.2618 11.082C11.6506 12.791 13.6998 13.83 15.8995 13.9399C15.6791 12.9898 15.9802 11.9942 16.6909 11.3263C17.7927 10.2906 19.5255 10.3437 20.5612 11.445C21.1738 11.3242 21.761 11.0994 22.2983 10.7809C22.0941 11.4141 21.6667 11.952 21.0958 12.2938C21.638 12.2298 22.1678 12.0847 22.6667 11.8631C22.2994 12.4135 21.8368 12.8929 21.3017 13.2802Z" fill="#FCFDFF"/>
</svg>
