<svg width="358" height="522" viewBox="0 0 358 522" fill="none" xmlns="http://www.w3.org/2000/svg">
<path d="M39.9 515.4H168.56C177.24 515.4 184.52 508.82 184.94 500.28L198.94 263.82H9.38L23.38 500.14C23.8 508.68 31.08 515.4 39.9 515.4Z" fill="#D0E9D6"/>
<path d="M83.16 396.4L88.9 399.48L82.18 375.82L58.66 383.66L65.1 387.02L61.46 393.6C59.5 397.38 60.06 401.58 62.44 404.52H62.3L75.46 425.66C76.86 427.9 79.24 429.16 81.76 429.16H96.88V408.58H76.86L83.16 396.4Z" fill="#D0E9D6"/>
<path d="M103.88 359.16L110.88 370.92L105.28 374.28L128.94 381L134.68 356.92L128.52 360.56L124.74 354.12C122.64 350.34 118.72 348.66 114.94 348.94H90.16C87.5 348.94 85.12 350.34 83.72 352.44L75.74 365.32L93.24 376.24L103.88 359.16Z" fill="#D0E9D6"/>
<path d="M148.68 394.44L141.54 381L123.48 390.8L132.86 408.44L119.14 408.58V402.14L101.5 419.22L119.42 436.16V429.02H126.84C131.18 429.02 134.54 426.5 136.22 423.14L148.54 401.58C149.8 399.34 149.94 396.68 148.68 394.44Z" fill="#D0E9D6"/>
<path d="M0 275.16L10.36 281.6H197.82L208.32 275.16V251.92H0V275.16Z" fill="#D0E9D6"/>
<path d="M198.24 282.58H10.08V280.48H198.24V282.58Z" fill="#73BD84"/>
<path d="M208.32 276.14H0V274.04H208.32V276.14Z" fill="#73BD84"/>
<path d="M165.06 515.4H162.96V281.18H165.06V515.4Z" fill="#73BD84"/>
<path d="M45.36 515.4H43.26V281.18H45.36V515.4Z" fill="#73BD84"/>
<path fill-rule="evenodd" clip-rule="evenodd" d="M124.6 296.86H83.58C79.8 296.86 76.72 293.78 76.72 290V280.48H131.6V290C131.6 293.78 128.52 296.86 124.6 296.86ZM78.82 282.58V290C78.82 292.66 81.06 294.76 83.58 294.76H124.6C127.26 294.76 129.5 292.66 129.5 290V282.58H78.82Z" fill="#73BD84"/>
<path d="M142.8 122.56L137.2 147.34L179.62 169.32C192.08 175.76 202.44 174.36 211.26 169.74L281.54 132.92L264.6 102.68L195.02 141.74L142.8 122.56Z" fill="#E6B6AA"/>
<path d="M120.12 150.28H133.56C141.54 150.28 147.98 143.84 147.98 136V130.68C147.98 125.5 143.64 121.16 138.46 121.16H120.12C114.94 121.16 110.6 125.5 110.6 130.68V140.76C110.6 146.08 114.94 150.28 120.12 150.28Z" fill="#E6B6AA"/>
<path d="M43.96 193.4L133.84 164.7C137.48 163.58 139.58 159.66 138.32 155.88L117.46 90.3603C116.34 86.5803 112.28 84.4803 108.64 85.7403L18.76 114.3C14.98 115.56 13.02 119.48 14.14 123.26L35 188.78C36.26 192.56 40.18 194.52 43.96 193.4Z" fill="#317159"/>
<path d="M146.58 160.64C147.42 164.28 145.04 168.06 141.12 169.32L40.6 201.38C36.68 202.64 32.48 200.82 31.08 197.46L146.58 160.64Z" fill="#FCFDFF"/>
<path d="M42.28 187.1L131.6 158.68L110.32 91.9004L21 120.32L42.28 187.1Z" fill="#333333"/>
<path d="M44.24 194.38L43.68 192.42L133.42 163.72L134.12 165.82L44.24 194.38Z" fill="#333333"/>
<path d="M87.08 180.52L91.28 179.26L100.38 176.32C100.94 178.14 99.96 179.96 98.14 180.52L82.04 185.56C80.36 186.12 78.54 185.14 77.98 183.46L87.08 180.52Z" fill="#333333"/>
<path d="M108.36 92.6003L91.28 171.56L63.7 180.38L80.78 101.28L108.36 92.6003Z" fill="#5C5C5C"/>
<path d="M41.86 185.56L58.38 108.42L69.3 104.92L52.36 184.02L42.28 187.1L41.86 185.56Z" fill="#5C5C5C"/>
<path d="M86.2401 135.02L84.2801 134.04L89.8801 123.26L91.7 124.24L86.2401 135.02Z" fill="white"/>
<path d="M92.96 132.78L82.1801 127.32L83.16 125.36L93.94 130.96L92.96 132.78Z" fill="white"/>
<path d="M58.8 143.7L56.98 142.72L62.44 131.94L64.4 132.92L58.8 143.7Z" fill="white"/>
<path d="M65.52 141.6L54.74 136L55.72 134.18L66.5 139.78L65.52 141.6Z" fill="white"/>
<path d="M72.94 152.66L71.12 151.54C72.66 148.74 75.18 146.64 78.26 145.66C81.2 144.68 84.56 144.96 87.5 146.36L86.52 148.18C84.14 147.06 81.34 146.92 78.82 147.76C76.3 148.46 74.2 150.28 72.94 152.66Z" fill="white"/>
<path d="M123.62 132.22H134.96C137.06 132.22 138.74 130.54 138.74 128.44V128.3C138.74 126.2 137.06 124.52 134.96 124.52H123.62C121.52 124.52 119.84 126.2 119.84 128.3V128.44C119.84 130.54 121.52 132.22 123.62 132.22Z" fill="#E6B6AA"/>
<path d="M212.24 127.18L243.74 168.9L280.14 147.76L264.74 117.66L248.36 109.96L258.86 91.2003L212.24 127.18Z" fill="#317159"/>
<path d="M258.3 510.08H284.06L287.28 478.86H261.52L258.3 510.08Z" fill="#E6B6AA"/>
<path d="M287.28 503.08L258.16 498.32L226.94 506.72C223.02 507.84 219.94 510.5 218.26 514.14L215.04 521.28H288.96L287.28 503.08Z" fill="#5A8D7A"/>
<path d="M240.24 233.58H309.54L295.26 495.94H249.9L240.24 233.58Z" fill="#333333"/>
<path d="M327.04 510.08H352.94L349.3 478.86H323.4L327.04 510.08Z" fill="#E6B6AA"/>
<path d="M240.24 233.58H323.26L357.56 495.94H312.06L240.24 233.58Z" fill="#333333"/>
<path d="M353.5 503.08L324.52 498.32L304.92 506.72C301 508.54 297.92 510.5 296.24 514.14L293.02 521.28H356.16L353.5 503.08Z" fill="#5A8D7A"/>
<path d="M295.4 98.3403L260.54 103.94L231 56.4802L265.86 50.8802L295.4 98.3403Z" fill="#E6B6AA"/>
<path d="M238.42 237.92L231 182.9C231 182.9 238 118.22 250.46 87.9803L279.44 72.3004C297.36 82.5204 309.4 100.44 311.92 120.88L326.9 237.92H238.42Z" fill="#317159"/>
<path d="M214.34 62.3603L217.7 49.9003C217.7 49.9003 209.3 33.2403 220.92 23.4403C252.56 20.3603 270.34 33.2403 273.28 63.0603L239.96 81.1203C234.22 84.2003 227.22 81.8203 225.12 75.9403L221.9 67.5403L217.42 66.8403C215.18 66.5603 213.92 64.4603 214.34 62.3603Z" fill="#E6B6AA"/>
<path d="M210.28 8.60033C215.6 5.94033 221.62 7.0603 225.54 10.8403C229.04 7.2003 233.52 4.2603 238.7 2.4403C254.8 -3.0197 272.72 4.96026 278.32 20.0803C280 24.9803 280.42 30.0203 279.58 34.7803C279.487 35.3403 279.347 35.8536 279.16 36.3203L273.28 63.0603C260.82 63.7603 255.5 55.7803 254.66 54.3803C258.16 52.1403 259.56 47.5203 257.18 43.6003C255.64 41.2203 252.98 39.8203 250.18 40.1003C245.84 40.3803 242.9 43.8803 242.9 47.8003V55.6403C238.28 55.6403 234.5 51.8603 234.5 47.2403L234.36 34.0803L215.18 33.9403C215.087 33.847 214.947 33.8003 214.76 33.8003C209.3 33.1003 204.4 29.0403 203.28 23.0203C202.16 17.2803 205.1 11.2603 210.28 8.60033Z" fill="#333333"/>
<path d="M242.9 49.0603H221.34V46.9603H242.9V49.0603Z" fill="#333333"/>
<path fill-rule="evenodd" clip-rule="evenodd" d="M220.92 60.8203C217.56 60.8203 216.16 51.1603 216.02 50.0403C215.6 47.2403 215.6 44.5803 215.88 42.4803C216.16 39.8669 216.953 38.4669 218.26 38.2803C219.473 38.0936 220.547 39.2136 221.48 41.6403C222.32 43.6003 223.02 46.2603 223.3 49.0603C223.72 51.8603 223.72 54.5203 223.58 56.6203C223.207 59.2336 222.413 60.6336 221.2 60.8203C221.107 60.8203 221.013 60.8203 220.92 60.8203ZM218.54 40.5203C217.98 41.3603 217.42 44.7203 218.12 49.7603C218.82 54.8003 220.08 57.8803 220.92 58.5803C221.34 57.7403 221.9 54.3803 221.2 49.3403C220.64 44.3003 219.24 41.0803 218.54 40.5203Z" fill="#333333"/>
<path d="M245.14 79.5802L244.02 77.6203L251.44 73.7003L252.42 75.5203L245.14 79.5802Z" fill="#43275B"/>
<path d="M164.5 233.86L175.98 223.78C180.88 219.3 181.3 211.74 176.96 206.84L172.48 201.66C168 196.76 160.44 196.34 155.54 200.68L144.06 210.76C139.16 215.24 138.74 222.8 143.08 227.7L147.56 232.88C151.9 237.78 159.46 238.2 164.5 233.86Z" fill="#E6B6AA"/>
<path d="M161.84 198.3L163.38 223.08L226.66 214.26C240.52 212.3 248.22 205.3 252.84 196.48L289.38 126.2L245.28 112.76L223.58 182.9L161.84 198.3Z" fill="#E6B6AA"/>
<path d="M230.72 143.56L279.86 161.48L298.9 123.96L269.78 107.02L251.72 109.54L250.46 87.9803L230.72 143.56Z" fill="#317159"/>
<path d="M125.72 215.66L117.04 209.22L129.92 188.92L139.58 193.96L125.72 215.66Z" fill="#43275B"/>
<path d="M155.96 233.58L168.56 213.56L137.2 190.18L121.38 215.24L155.96 233.58Z" fill="white"/>
<path d="M145.6 229.38L127.12 219.58L143.64 193.54L160.44 206L145.6 229.38Z" fill="#F7B531"/>
<path d="M136.36 188.5L140 190.46L122.78 217.62L119.56 215.1L136.36 188.5Z" fill="#43275B"/>
<path d="M139.58 219.58C142.52 221.54 146.44 220.7 148.26 217.76C150.08 214.82 149.24 210.9 146.3 209.08C143.36 207.12 139.58 208.1 137.62 211.04C135.8 213.84 136.64 217.76 139.58 219.58Z" fill="white"/>
<path d="M163.8 234.42L176.54 223.22C181.16 219.16 181.58 212.02 177.52 207.4L174.44 204.04C170.38 199.42 163.38 199 158.76 203.06L146.02 214.26C141.54 218.46 140.98 225.46 145.18 230.08L148.12 233.44C152.18 238.06 159.32 238.48 163.8 234.42Z" fill="#E6B6AA"/>
</svg>
