<svg width="100%" height="100%" preserveAspectRatio="xMidYMid meet"
 viewBox="0 0 50 50" fill="none" xmlns="http://www.w3.org/2000/svg">
<rect x="0.5" y="0.5" width="49" height="49" rx="24.5" stroke="white"/>
<path d="M37.199 18.3973C36.9869 17.7431 36.5723 17.1466 35.9966 16.6674C35.4209 16.1883 34.7042 15.8432 33.9182 15.6667C31.2205 15 25 15 25 15C25 15 18.7795 15 16.0818 15.6667C15.2958 15.8432 14.5791 16.1883 14.0034 16.6674C13.4277 17.1466 13.0131 17.7431 12.801 18.3973C12 20.6427 12 25.3333 12 25.3333C12 25.3333 12 30.024 12.801 32.2693C13.0131 32.9236 13.4277 33.5201 14.0034 33.9992C14.5791 34.4784 15.2958 34.8235 16.0818 35C18.7795 35 25 35 25 35C25 35 31.2205 35 33.9182 34.3333C34.7042 34.1568 35.4209 33.8117 35.9966 33.3326C36.5723 32.8534 36.9869 32.2569 37.199 31.6027C38 29.3573 38 24.6667 38 24.6667C38 24.6667 38 19.976 37.199 17.7307V18.3973ZM21.7961 29.02V20.98L29.8059 25L21.7961 29.02Z" fill="white"/>
</svg>
