<svg width="100%" height="100%" preserveAspectRatio="xMidYMid meet" viewBox="0 0 98 98" fill="none" xmlns="http://www.w3.org/2000/svg" >
<rect x="1" y="1" width="96" height="96" rx="48" stroke="#333333"/>
<g clip-path="url(#clip0_27_88)">
<path d="M29 51.5C33.4577 52.0298 37.6076 54.0438 40.7819 57.2181C43.9562 60.3924 45.9702 64.5423 46.5 69C48.7098 67.726 50.5582 65.9096 51.8706 63.7223C53.1829 61.5351 53.9158 59.0493 54 56.5C58.1978 55.0233 61.8634 52.335 64.5334 48.775C67.2033 45.2151 68.7577 40.9433 69 36.5C69 34.5109 68.2098 32.6032 66.8033 31.1967C65.3968 29.7902 63.4891 29 61.5 29C57.0567 29.2423 52.7849 30.7967 49.225 33.4666C45.665 36.1366 42.9767 39.8022 41.5 44C38.9507 44.0842 36.4649 44.8171 34.2777 46.1294C32.0904 47.4418 30.274 49.2902 29 51.5Z" stroke="#333333" stroke-width="1.125" stroke-linecap="round" stroke-linejoin="round"/>
<path d="M36.4988 54C33.8968 55.4689 31.7929 57.6815 30.4567 60.3539C29.1204 63.0264 28.6127 66.0371 28.9988 69C31.9617 69.386 34.9723 68.8784 37.6448 67.5421C40.3173 66.2059 42.5298 64.1019 43.9988 61.5" stroke="#333333" stroke-width="1.125" stroke-linecap="round" stroke-linejoin="round"/>
<path d="M54 41.5C54 42.163 54.2634 42.7989 54.7322 43.2678C55.2011 43.7366 55.837 44 56.5 44C57.163 44 57.7989 43.7366 58.2678 43.2678C58.7366 42.7989 59 42.163 59 41.5C59 40.837 58.7366 40.2011 58.2678 39.7322C57.7989 39.2634 57.163 39 56.5 39C55.837 39 55.2011 39.2634 54.7322 39.7322C54.2634 40.2011 54 40.837 54 41.5Z" stroke="#333333" stroke-width="1.125" stroke-linecap="round" stroke-linejoin="round"/>
</g>
<defs>
<clipPath id="clip0_27_88">
<rect width="60" height="60" fill="white" transform="translate(19 19)"/>
</clipPath>
</defs>
</svg>
