<svg width="100%" height="100%" preserveAspectRatio="xMidYMid meet" viewBox="0 0 1440 1022" fill="none" xmlns="http://www.w3.org/2000/svg">
<path d="M103.607 0.015625V1021.1" stroke="#E5E5E5"/>
<path d="M208.441 0.015625V1021.1" stroke="#E5E5E5"/>
<path d="M313.273 0.015625V1021.1" stroke="#E5E5E5"/>
<path d="M418.107 0.015625V1021.1" stroke="#E5E5E5"/>
<path d="M522.941 0.015625V1021.1" stroke="#E5E5E5"/>
<path d="M627.775 0.015625V1021.1" stroke="#E5E5E5"/>
<path d="M732.609 0.015625V1021.1" stroke="#E5E5E5"/>
<path d="M837.443 0.015625V1021.1" stroke="#E5E5E5"/>
<path d="M942.277 0.015625V1021.1" stroke="#E5E5E5"/>
<path d="M1047.11 0.015625V1021.1" stroke="#E5E5E5"/>
<path d="M1151.94 0.015625V1021.1" stroke="#E5E5E5"/>
<path d="M1256.78 0.015625V1021.1" stroke="#E5E5E5"/>
<path d="M1361.61 0.015625V1021.1" stroke="#E5E5E5"/>
<path d="M1508.38 63.8359L-1.22571 63.8359" stroke="#E5E5E5"/>
<path d="M1508.38 191.469L-1.22571 191.469" stroke="#E5E5E5"/>
<path d="M1508.38 319.102L-1.22571 319.101" stroke="#E5E5E5"/>
<path d="M1508.38 446.734L-1.22571 446.734" stroke="#E5E5E5"/>
<path d="M1508.38 574.375L-1.22571 574.375" stroke="#E5E5E5"/>
<path d="M1508.38 638.188L-1.22571 638.187" stroke="#E5E5E5"/>
<path d="M1508.38 702.008L-1.22571 702.008" stroke="#E5E5E5"/>
<path d="M1508.38 765.828L-1.22571 765.828" stroke="#E5E5E5"/>
<path d="M1508.38 829.641L-1.22571 829.641" stroke="#E5E5E5"/>
<path d="M1508.38 893.461L-1.22571 893.461" stroke="#E5E5E5"/>
<path d="M1508.38 957.281L-1.22571 957.281" stroke="#E5E5E5"/>
</svg>
