<svg width="100%" height="100%" preserveAspectRatio="xMidYMid meet" viewBox="0 0 50 50" fill="none" xmlns="http://www.w3.org/2000/svg">
<rect x="0.5" y="0.5" width="49" height="49" rx="24.5" stroke="#195829"/>
<path d="M25 15.1687C28.1807 15.1687 28.6145 15.1687 29.9157 15.1687C31.0723 15.1687 31.6506 15.4578 32.0843 15.6024C32.6627 15.8916 33.0964 16.0361 33.5301 16.4699C33.9639 16.9036 34.253 17.3374 34.3976 17.9157C34.5422 18.3494 34.6867 18.9277 34.8313 20.0843C34.8313 21.3855 34.8313 21.6747 34.8313 25C34.8313 28.3253 34.8313 28.6145 34.8313 29.9157C34.8313 31.0723 34.5422 31.6506 34.3976 32.0843C34.1084 32.6627 33.9639 33.0964 33.5301 33.5301C33.0964 33.9639 32.6627 34.253 32.0843 34.3976C31.6506 34.5422 31.0723 34.6867 29.9157 34.8313C28.6145 34.8313 28.3253 34.8313 25 34.8313C21.6747 34.8313 21.3855 34.8313 20.0843 34.8313C18.9277 34.8313 18.3494 34.5422 17.9157 34.3976C17.3374 34.1084 16.9036 33.9639 16.4699 33.5301C16.0361 33.0964 15.747 32.6627 15.6024 32.0843C15.4578 31.6506 15.3133 31.0723 15.1687 29.9157C15.1687 28.6145 15.1687 28.3253 15.1687 25C15.1687 21.6747 15.1687 21.3855 15.1687 20.0843C15.1687 18.9277 15.4578 18.3494 15.6024 17.9157C15.8916 17.3374 16.0361 16.9036 16.4699 16.4699C16.9036 16.0361 17.3374 15.747 17.9157 15.6024C18.3494 15.4578 18.9277 15.3133 20.0843 15.1687C21.3855 15.1687 21.8193 15.1687 25 15.1687ZM25 13C21.6747 13 21.3855 13 20.0843 13C18.7831 13 17.9157 13.2892 17.1928 13.5783C16.4699 13.8675 15.747 14.3012 15.0241 15.0241C14.3012 15.747 14.012 16.3253 13.5783 17.1928C13.2892 17.9157 13.1446 18.7831 13 20.0843C13 21.3855 13 21.8193 13 25C13 28.3253 13 28.6145 13 29.9157C13 31.2169 13.2892 32.0843 13.5783 32.8072C13.8675 33.5301 14.3012 34.253 15.0241 34.9759C15.747 35.6988 16.3253 35.988 17.1928 36.4217C17.9157 36.7108 18.7831 36.8554 20.0843 37C21.3855 37 21.8193 37 25 37C28.1807 37 28.6145 37 29.9157 37C31.2169 37 32.0843 36.7108 32.8072 36.4217C33.5301 36.1325 34.253 35.6988 34.9759 34.9759C35.6988 34.253 35.988 33.6747 36.4217 32.8072C36.7108 32.0843 36.8554 31.2169 37 29.9157C37 28.6145 37 28.1807 37 25C37 21.8193 37 21.3855 37 20.0843C37 18.7831 36.7108 17.9157 36.4217 17.1928C36.1325 16.4699 35.6988 15.747 34.9759 15.0241C34.253 14.3012 33.6747 14.012 32.8072 13.5783C32.0843 13.2892 31.2169 13.1446 29.9157 13C28.6145 13 28.3253 13 25 13Z" fill="#195829"/>
<path d="M25 18.7831C21.5301 18.7831 18.7831 21.5301 18.7831 25C18.7831 28.4699 21.5301 31.2169 25 31.2169C28.4699 31.2169 31.2169 28.4699 31.2169 25C31.2169 21.5301 28.4699 18.7831 25 18.7831ZM25 29.0482C22.8313 29.0482 20.9518 27.3133 20.9518 25C20.9518 22.8313 22.6867 20.9518 25 20.9518C27.1687 20.9518 29.0482 22.6867 29.0482 25C29.0482 27.1687 27.1687 29.0482 25 29.0482Z" fill="#195829"/>
<path d="M31.3614 20.0843C32.1599 20.0843 32.8072 19.437 32.8072 18.6386C32.8072 17.8401 32.1599 17.1928 31.3614 17.1928C30.563 17.1928 29.9157 17.8401 29.9157 18.6386C29.9157 19.437 30.563 20.0843 31.3614 20.0843Z" fill="#195829"/>
</svg>
