<svg width="100%" height="100%" preserveAspectRatio="xMidYMid meet" viewBox="0 0 50 50" fill="none" xmlns="http://www.w3.org/2000/svg">
<rect x="0.5" y="0.5" width="49" height="49" rx="24.5" stroke="#195829"/>
<path d="M32.9525 20.9201C32.9647 21.0964 32.9647 21.2727 32.9647 21.4507C32.9647 26.8726 28.8371 33.1257 21.2897 33.1257V33.1224C19.0601 33.1257 16.8769 32.487 15 31.2829C15.3242 31.3219 15.65 31.3414 15.9766 31.3422C17.8243 31.3438 19.6191 30.7239 21.0727 29.5823C19.3169 29.549 17.7772 28.4042 17.2393 26.7328C17.8544 26.8514 18.4881 26.8271 19.0918 26.6621C17.1775 26.2754 15.8003 24.5935 15.8003 22.6402C15.8003 22.6223 15.8003 22.6053 15.8003 22.5882C16.3707 22.9059 17.0093 23.0822 17.6626 23.1017C15.8596 21.8967 15.3039 19.4982 16.3926 17.6229C18.4759 20.1864 21.5497 21.7448 24.8493 21.9097C24.5186 20.4846 24.9703 18.9912 26.0364 17.9894C27.689 16.4358 30.2882 16.5155 31.8418 18.1673C32.7607 17.9861 33.6415 17.6489 34.4475 17.1712C34.1412 18.121 33.5001 18.9278 32.6437 19.4405C33.457 19.3446 34.2517 19.1269 35 18.7946C34.4491 19.6201 33.7552 20.3392 32.9525 20.9201Z" fill="#195829"/>
</svg>
