<svg width="100%" height="100%" viewBox="0 0 33 32" fill="none" xmlns="http://www.w3.org/2000/svg" preserveAspectRatio="xMidYMid meet">
<g clip-path="url(#clip0_107_9045)">
<path d="M8.49935 13.3359H11.166C11.8733 13.3359 12.5515 13.6169 13.0516 14.117C13.5517 14.6171 13.8327 15.2954 13.8327 16.0026V22.6693H9.83268C9.12544 22.6693 8.44716 22.3883 7.94706 21.8882C7.44697 21.3881 7.16602 20.7098 7.16602 20.0026C7.16602 19.2954 7.44697 18.6171 7.94706 18.117C8.44716 17.6169 9.12544 17.3359 9.83268 17.3359H13.8327" stroke="#333333" stroke-width="2" stroke-linecap="round" stroke-linejoin="round"/>
<path d="M19.166 9.33594V22.6693" stroke="#333333" stroke-width="2" stroke-linecap="round" stroke-linejoin="round"/>
<path d="M19.166 16.0026C19.166 15.2954 19.447 14.6171 19.9471 14.117C20.4472 13.6169 21.1254 13.3359 21.8327 13.3359H23.166C23.8733 13.3359 24.5515 13.6169 25.0516 14.117C25.5517 14.6171 25.8327 15.2954 25.8327 16.0026V20.0026C25.8327 20.7098 25.5517 21.3881 25.0516 21.8882C24.5515 22.3883 23.8733 22.6693 23.166 22.6693H21.8327C21.1254 22.6693 20.4472 22.3883 19.9471 21.8882C19.447 21.3881 19.166 20.7098 19.166 20.0026V16.0026Z" stroke="#333333" stroke-width="2" stroke-linecap="round" stroke-linejoin="round"/>
</g>
<defs>
<clipPath id="clip0_107_9045">
<rect width="32" height="32" fill="white" transform="translate(0.5)"/>
</clipPath>
</defs>
</svg>
